SplineFontDB: 3.2
FontName: tigger-bolditalic
FullName: tigger-bolditalic
FamilyName: tigger
Weight: Bold
Copyright: (c) 2025 Tadhg O'Brien
Version: 2025.13
ItalicAngle: 0
UnderlinePosition: -150
UnderlineWidth: 50
Ascent: 800
Descent: 200
InvalidEm: 0
sfntRevision: 0x07e92148
LayerCount: 2
Layer: 0 1 "Back" 1
Layer: 1 1 "Fore" 0
XUID: [1021 796 -163880829 3577067]
StyleMap: 0x0021
FSType: 0
OS2Version: 1
OS2_WeightWidthSlopeOnly: 0
OS2_UseTypoMetrics: 0
CreationTime: 1280473793
ModificationTime: 1736637381
PfmFamily: 17
TTFWeight: 700
TTFWidth: 5
LineGap: 90
VLineGap: 0
Panose: 2 0 6 3 0 0 0 0 0 0
OS2TypoAscent: 800
OS2TypoAOffset: 0
OS2TypoDescent: -200
OS2TypoDOffset: 0
OS2TypoLinegap: 90
OS2WinAscent: 843
OS2WinAOffset: 0
OS2WinDescent: 347
OS2WinDOffset: 0
HheadAscent: 843
HheadAOffset: 0
HheadDescent: -347
HheadDOffset: 0
OS2SubXSize: 650
OS2SubYSize: 700
OS2SubXOff: 0
OS2SubYOff: 140
OS2SupXSize: 650
OS2SupYSize: 700
OS2SupXOff: 0
OS2SupYOff: 480
OS2StrikeYSize: 49
OS2StrikeYPos: 258
OS2Vendor: '2ttf'
OS2CodePages: 00000001.00000000
OS2UnicodeRanges: a00000af.00010042.00000000.00000000
Lookup: 1 0 0 "'rtla' Right to Left Alternates lookup 0" { "'rtla' Right to Left Alternates lookup 0 subtable"  } ['rtla' ('DFLT' <'dflt' > ) ]
Lookup: 260 0 0 "'mark' Mark Positioning lookup 0" { "'mark' Mark Positioning lookup 0 subtable"  } ['mark' ('DFLT' <'dflt' > 'arab' <'dflt' > 'armn' <'dflt' > 'cher' <'dflt' > 'cyrl' <'dflt' > 'grek' <'dflt' > 'hang' <'dflt' > 'hebr' <'dflt' > 'khmr' <'dflt' > 'latn' <'dflt' > 'mong' <'dflt' > ) ]
Lookup: 258 0 0 "'kern' Horizontal Kerning in Latin lookup 1" { "'kern' Horizontal Kerning in Latin lookup 1 subtable"  } ['kern' ('DFLT' <'dflt' > 'latn' <'dflt' > ) ]
MarkAttachClasses: 1
DEI: 91125
TtTable: prep
PUSHW_1
 511
SCANCTRL
PUSHB_1
 1
SCANTYPE
SVTCA[y-axis]
MPPEM
PUSHB_1
 8
LT
IF
PUSHB_2
 1
 1
INSTCTRL
EIF
PUSHB_2
 70
 6
CALL
IF
POP
PUSHB_1
 16
EIF
MPPEM
PUSHB_1
 20
GT
IF
POP
PUSHB_1
 128
EIF
SCVTCI
PUSHB_1
 6
CALL
NOT
IF
EIF

StartChar: .notdef
Encoding: 65536 -1 0
Width: 500
GlyphClass: 1
Flags: W
LayerCount: 2
Fore
SplineSet
100 50 m 1,0,-1
 400 50 l 1,1,-1
 400 483 l 1,2,-1
 100 483 l 1,3,-1
 100 50 l 1,0,-1
50 0 m 1,4,-1
 50 533 l 1,5,-1
 450 533 l 1,6,-1
 450 0 l 1,7,-1
 50 0 l 1,4,-1
EndSplineSet
EndChar

StartChar: exclam
Encoding: 33 33 4
AltUni2: 00ff01.ffffffff.0 00fe57.ffffffff.0 00fe15.ffffffff.0 002762.ffffffff.0 00ff01.ffffffff.0 00fe57.ffffffff.0 00fe15.ffffffff.0 002762.ffffffff.0
Width: 176
GlyphClass: 1
Flags: W
LayerCount: 2
Fore
SplineSet
85 131 m 0,0,1
 90 131 90 131 95 130 c 0,2,3
 107 130 107 130 115 126 c 0,4,5
 139 114 139 114 155 99 c 0,6,7
 174 75 174 75 174 52 c 0,8,9
 174 24 174 24 157 5 c 0,10,11
 145 -8 145 -8 124 -16 c 0,12,13
 110 -22 110 -22 96 -22 c 0,14,15
 90 -22 90 -22 85 -21 c 0,16,17
 56 -17 56 -17 41 6 c 0,18,19
 28 24 28 24 28 46 c 0,20,21
 28 74 28 74 45 105 c 0,22,23
 59 131 59 131 85 131 c 0,0,1
155 207 m 0,24,25
 155 188 155 188 141 174 c 128,-1,26
 127 160 127 160 107.5 160 c 128,-1,27
 88 160 88 160 74 174 c 128,-1,28
 60 188 60 188 60 207 c 0,29,30
 60 391 60 391 86 645 c 0,31,32
 88 664 88 664 101 676 c 128,-1,33
 114 688 114 688 131 688 c 0,34,35
 156 688 156 688 170 670 c 0,36,37
 180 656 180 656 180 640 c 0,38,39
 180 638 180 638 180 636 c 0,40,41
 155 382 155 382 155 207 c 0,24,25
EndSplineSet
EndChar

StartChar: quotedbl
Encoding: 34 34 5
AltUni2: 00ff02.ffffffff.0 00201d.ffffffff.0 00201c.ffffffff.0 00030e.ffffffff.0 00030b.ffffffff.0 0002ba.ffffffff.0 00ff02.ffffffff.0 00201d.ffffffff.0 00201c.ffffffff.0 00030e.ffffffff.0 00030b.ffffffff.0 0002ba.ffffffff.0
Width: 292
GlyphClass: 1
Flags: W
LayerCount: 2
Fore
SplineSet
116 595 m 0,0,1
 116 569 116 569 117.5 554.5 c 128,-1,2
 119 540 119 540 119 537 c 0,3,4
 119 519 119 519 108 504 c 0,5,6
 92 485 92 485 65 485 c 0,7,8
 47 485 47 485 31 497 c 0,9,10
 16 510 16 510 13 532 c 0,11,12
 10 563 10 563 10 595 c 0,13,14
 10 681 10 681 34 772 c 0,15,16
 40 794 40 794 60 805 c 0,17,18
 72 811 72 811 86 811 c 0,19,20
 95 811 95 811 102 809 c 0,21,22
 122 802 122 802 133 784 c 0,23,24
 139 772 139 772 139 758 c 0,25,26
 139 750 139 750 137 743 c 0,27,28
 116 669 116 669 116 595 c 0,0,1
262 611 m 0,29,30
 262 575 262 575 270 536 c 0,31,32
 271 530 271 530 271 525 c 0,33,34
 271 509 271 509 262 496 c 0,35,36
 250 478 250 478 228 472 c 0,37,38
 222 471 222 471 217 471 c 0,39,40
 201 471 201 471 187 481 c 0,41,42
 170 493 170 493 165 514 c 0,43,44
 155 558 155 558 155 607 c 0,45,46
 155 609 155 609 155 611 c 0,47,48
 155 687 155 687 177 774 c 0,49,50
 183 796 183 796 202 807 c 0,51,52
 214 814 214 814 229 814 c 0,53,54
 237 814 237 814 244 812 c 0,55,56
 264 806 264 806 275 788 c 0,57,58
 283 776 283 776 283 761 c 0,59,60
 283 754 283 754 281 747 c 0,61,62
 262 674 262 674 262 611 c 0,29,30
EndSplineSet
EndChar

StartChar: numbersign
Encoding: 35 35 6
AltUni2: 00ff03.ffffffff.0 00fe5f.ffffffff.0 00ff03.ffffffff.0 00fe5f.ffffffff.0
Width: 731
GlyphClass: 1
Flags: W
LayerCount: 2
Fore
SplineSet
315 376 m 2,0,-1
 315 375 l 1,1,2
 311 332 311 332 310 281 c 1,3,4
 363 281 363 281 447 284 c 1,5,6
 446 318 446 318 444 374 c 1,7,-1
 444 374 l 1,8,-1
 444 404 l 1,9,10
 361 399 361 399 330 398 c 0,11,12
 325 397 325 397 317 397 c 1,13,14
 317 391 317 391 316 385 c 128,-1,15
 315 379 315 379 315 376 c 2,0,-1
542 548 m 0,16,17
 542 527 542 527 541 505 c 1,18,19
 600 509 600 509 679 516 c 1,20,-1
 679 516 l 1,21,22
 681 516 681 516 683 516 c 0,23,24
 700 516 700 516 713 504 c 0,25,26
 730 490 730 490 730 468 c 0,27,28
 730 450 730 450 717.5 436.5 c 128,-1,29
 705 423 705 423 686 421 c 0,30,31
 603 414 603 414 539 410 c 1,32,-1
 539 374 l 2,33,34
 541 321 541 321 542 289 c 1,35,36
 633 296 633 296 660 299 c 128,-1,37
 687 302 687 302 690 302 c 0,38,39
 707 302 707 302 720 290 c 0,40,41
 735 277 735 277 735 255 c 0,42,43
 735 239 735 239 724 224 c 0,44,45
 713 210 713 210 694 207 c 0,46,47
 626 200 626 200 550 195 c 1,48,49
 550 195 550 195 551 189 c 128,-1,50
 552 183 552 183 553 177 c 0,51,52
 567 87 567 87 595 50 c 0,53,54
 604 38 604 38 604 23 c 0,55,56
 604 -2 604 -2 585 -16 c 0,57,58
 572 -26 572 -26 556 -26 c 0,59,60
 533 -26 533 -26 519 -7 c 0,61,62
 477 49 477 49 459 163 c 0,63,64
 457 178 457 178 455 190 c 1,65,66
 369 186 369 186 314 186 c 1,67,68
 326 101 326 101 363 55 c 0,69,70
 373 43 373 43 373 26 c 0,71,72
 373 2 373 2 355 -12 c 0,73,74
 343 -22 343 -22 326 -22 c 0,75,76
 302 -22 302 -22 288 -4 c 0,77,78
 233 64 233 64 219 185 c 1,79,-1
 178 185 l 2,80,81
 86 185 86 185 48 184 c 1,82,-1
 48 184 l 1,83,84
 29 184 29 184 14.5 198 c 128,-1,85
 0 212 0 212 0 231.5 c 128,-1,86
 0 251 0 251 14 265 c 128,-1,87
 28 279 28 279 47 279 c 0,88,89
 85 280 85 280 178 280 c 2,90,-1
 215 280 l 1,91,92
 216 335 216 335 220 383 c 1,93,-1
 220 384 l 1,94,-1
 221 394 l 1,95,96
 97 391 97 391 53 391 c 0,97,98
 35 391 35 391 22 404 c 0,99,100
 8 418 8 418 7 438 c 0,101,102
 7 457 7 457 20 471 c 0,103,104
 34 485 34 485 54 486 c 0,105,106
 171 487 171 487 232 489 c 1,107,108
 232 495 232 495 237.5 541.5 c 128,-1,109
 243 588 243 588 245 608 c 2,110,-1
 245 609 l 1,111,112
 251 662 251 662 251 696 c 0,113,114
 251 716 251 716 264.5 729.5 c 128,-1,115
 278 743 278 743 298 743 c 128,-1,116
 318 743 318 743 332 729 c 128,-1,117
 346 715 346 715 346 696 c 0,118,119
 346 656 346 656 340 598 c 0,120,121
 339 589 339 589 337.5 573 c 128,-1,122
 336 557 336 557 334 546 c 0,123,124
 332 531 332 531 331.5 523 c 128,-1,125
 331 515 331 515 327 493 c 1,126,127
 356 494 356 494 446 499 c 1,128,129
 447 523 447 523 447 550 c 1,130,-1
 447 550 l 1,131,132
 450 676 450 676 449 696 c 2,133,-1
 449 697 l 2,134,135
 449 717 449 717 463 731 c 256,136,137
 477 745 477 745 497 745 c 128,-1,138
 517 745 517 745 530.5 731.5 c 128,-1,139
 544 718 544 718 544 699 c 0,140,141
 545 676 545 676 542 548 c 0,16,17
EndSplineSet
EndChar

StartChar: dollar
Encoding: 36 36 7
AltUni2: 00ff04.ffffffff.0 00fe69.ffffffff.0 00ff04.ffffffff.0 00fe69.ffffffff.0
Width: 595
GlyphClass: 1
Flags: W
LayerCount: 2
Fore
SplineSet
364 119 m 1,0,1
 393 131 393 131 420 152 c 0,2,3
 482 197 482 197 480 244 c 0,4,5
 479 276 479 276 467 296 c 0,6,7
 457 311 457 311 440 319 c 0,8,9
 416 331 416 331 365 334 c 1,10,-1
 365 274 l 2,11,12
 365 237 365 237 364 223 c 2,13,-1
 364 119 l 1,0,1
160 440 m 0,14,15
 161 440 161 440 161 439 c 0,16,17
 163 438 163 438 167 437.5 c 128,-1,18
 171 437 171 437 173 437 c 0,19,20
 195 433 195 433 261 436 c 1,21,22
 262 446 262 446 262 466.5 c 128,-1,23
 262 487 262 487 263 497 c 0,24,25
 263 500 263 500 265 550 c 1,26,27
 259 549 259 549 254 545 c 0,28,29
 202 520 202 520 177 491 c 0,30,31
 157 465 157 465 160 440 c 0,14,15
437 580 m 0,32,33
 415 586 415 586 371 580 c 1,34,35
 370 557 370 557 369 541 c 128,-1,36
 368 525 368 525 367.5 512.5 c 128,-1,37
 367 500 367 500 367 494 c 0,38,39
 366 475 366 475 366 438 c 1,40,41
 380 438 380 438 402 436 c 0,42,43
 451 430 451 430 485 413 c 0,44,45
 580 367 580 367 584 249 c 0,46,47
 587 194 587 194 554 144 c 0,48,49
 529 103 529 103 483 68 c 0,50,51
 428 26 428 26 360 7 c 1,52,53
 357 -75 357 -75 348 -149 c 0,54,55
 346 -171 346 -171 329 -184.5 c 128,-1,56
 312 -198 312 -198 291 -195 c 0,57,58
 269 -193 269 -193 256 -176 c 128,-1,59
 243 -159 243 -159 245 -138 c 0,60,61
 252 -79 252 -79 255 -6 c 1,62,63
 189 -6 189 -6 89 14 c 0,64,65
 68 18 68 18 56 36 c 128,-1,66
 44 54 44 54 48 75 c 0,67,68
 53 96 53 96 70.5 108 c 128,-1,69
 88 120 88 120 109 116 c 0,70,71
 202 98 202 98 259 99 c 1,72,73
 260 136 260 136 260 223 c 2,74,-1
 260 274 l 1,75,-1
 260 332 l 1,76,77
 218 330 218 330 215 330 c 0,78,79
 179 330 179 330 156 334 c 0,80,81
 121 339 121 339 98 356 c 0,82,83
 66 378 66 378 58 417 c 0,84,85
 44 494 44 494 96 556 c 0,86,87
 135 606 135 606 209 640 c 0,88,89
 238 653 238 653 271 664 c 1,90,91
 274 730 274 730 272 764 c 0,92,93
 270 785 270 785 284 802 c 128,-1,94
 298 819 298 819 320 820 c 128,-1,95
 342 821 342 821 358 807 c 128,-1,96
 374 793 374 793 376 772 c 0,97,98
 377 741 377 741 376 686 c 1,99,100
 429 689 429 689 462 681 c 0,101,102
 483 677 483 677 494 658 c 128,-1,103
 505 639 505 639 500 618 c 0,104,105
 496 597 496 597 477 586 c 128,-1,106
 458 575 458 575 437 580 c 0,32,33
EndSplineSet
EndChar

StartChar: percent
Encoding: 37 37 8
AltUni2: 00ff05.ffffffff.0 00fe6a.ffffffff.0 00066a.ffffffff.0 00ff05.ffffffff.0 00fe6a.ffffffff.0 00066a.ffffffff.0
Width: 731
GlyphClass: 1
Flags: W
LayerCount: 2
Fore
SplineSet
563 158 m 1,0,1
 548 155 548 155 536 159 c 1,2,3
 515 149 515 149 501 125 c 128,-1,4
 487 101 487 101 488 78 c 0,5,6
 488 62 488 62 494 57 c 0,7,8
 500 53 500 53 505 52 c 0,9,10
 517 50 517 50 534 53 c 0,11,12
 552 56 552 56 561 73 c 0,13,14
 571 95 571 95 568 131 c 0,15,16
 567 143 567 143 563 158 c 1,0,1
528 256 m 1,17,18
 554 275 554 275 584 270.5 c 128,-1,19
 614 266 614 266 635 240 c 0,20,21
 666 203 666 203 672 142 c 0,22,23
 678 80 678 80 655 29 c 0,24,25
 623 -40 623 -40 550 -50 c 0,26,27
 475 -62 475 -62 428 -23 c 0,28,29
 384 13 384 13 384 77 c 0,30,31
 383 130 383 130 413 180 c 128,-1,32
 443 230 443 230 492 253 c 0,33,34
 507 261 507 261 528 256 c 1,17,18
218 584 m 1,35,36
 203 581 203 581 191 585 c 1,37,38
 170 575 170 575 156 551 c 128,-1,39
 142 527 142 527 143 504 c 0,40,41
 143 488 143 488 150 483 c 0,42,43
 152 481 152 481 160 478 c 0,44,45
 172 476 172 476 189 479 c 0,46,47
 208 482 208 482 216 500 c 0,48,49
 226 521 226 521 223 558 c 0,50,51
 222 569 222 569 218 584 c 1,35,36
183 683 m 1,52,53
 210 702 210 702 239.5 697 c 128,-1,54
 269 692 269 692 290 666 c 0,55,56
 321 629 321 629 327 568 c 0,57,58
 333 508 333 508 310 455 c 0,59,60
 278 388 278 388 205 376 c 0,61,62
 130 364 130 364 83 403 c 0,63,64
 39 439 39 439 39 503 c 0,65,66
 38 556 38 556 68 606 c 128,-1,67
 98 656 98 656 147 679 c 0,68,69
 163 688 163 688 183 683 c 1,52,53
109 -18 m 0,70,71
 162 145 162 145 331 368 c 0,72,73
 490 574 490 574 635 694 c 0,74,75
 651 708 651 708 673 706 c 128,-1,76
 695 704 695 704 708 687 c 0,77,78
 722 671 722 671 719.5 649.5 c 128,-1,79
 717 628 717 628 701 614 c 0,80,81
 562 498 562 498 414 305 c 0,82,83
 256 97 256 97 208 -50 c 0,84,85
 202 -70 202 -70 182.5 -80 c 128,-1,86
 163 -90 163 -90 143 -84 c 0,87,88
 123 -77 123 -77 112.5 -58 c 128,-1,89
 102 -39 102 -39 109 -18 c 0,70,71
EndSplineSet
EndChar

StartChar: ampersand
Encoding: 38 38 9
AltUni2: 00ff06.ffffffff.0 00fe60.ffffffff.0 00ff06.ffffffff.0 00fe60.ffffffff.0
Width: 650
GlyphClass: 1
Flags: W
LayerCount: 2
Fore
SplineSet
356 738 m 0,0,1
 311 731 311 731 254.5 678.5 c 128,-1,2
 198 626 198 626 168 566 c 0,3,4
 154 536 154 536 150 517 c 128,-1,5
 146 498 146 498 146 457 c 128,-1,6
 146 416 146 416 157 367 c 128,-1,7
 168 318 168 318 176 303 c 128,-1,8
 184 288 184 288 184 281 c 2,9,-1
 154 228 l 1,10,11
 64 101 64 101 64 18 c 0,12,13
 64 -12 64 -12 67.5 -19.5 c 128,-1,14
 71 -27 71 -27 94 -42 c 0,15,16
 161 -87 161 -87 262.5 -75.5 c 128,-1,17
 364 -64 364 -64 438 -4 c 1,18,-1
 468 18 l 1,19,-1
 498 -4 l 1,20,21
 528 -34 528 -34 558 -34 c 2,22,-1
 588 -34 l 1,23,-1
 588 33 l 1,24,25
 581 41 581 41 569.5 41 c 128,-1,26
 558 41 558 41 544 56 c 2,27,-1
 528 71 l 1,28,-1
 558 108 l 1,29,-1
 506 161 l 1,30,-1
 491 146 l 1,31,32
 468 131 468 131 464.5 131 c 128,-1,33
 461 131 461 131 397.5 187 c 128,-1,34
 334 243 334 243 311 266 c 2,35,-1
 288 288 l 1,36,-1
 304 318 l 1,37,38
 386 423 386 423 431 509.5 c 128,-1,39
 476 596 476 596 476 641 c 128,-1,40
 476 686 476 686 468.5 704.5 c 128,-1,41
 461 723 461 723 438.5 734.5 c 128,-1,42
 416 746 416 746 401 746 c 128,-1,43
 386 746 386 746 356 738 c 0,0,1
341 641 m 0,44,45
 378 663 378 663 389.5 663 c 128,-1,46
 401 663 401 663 394 633 c 0,47,48
 378 566 378 566 304 453 c 2,49,-1
 258 386 l 2,50,51
 244 371 244 371 240 371 c 128,-1,52
 236 371 236 371 228 393 c 0,53,54
 206 476 206 476 243.5 539.5 c 128,-1,55
 281 603 281 603 341 641 c 0,44,45
214 176 m 2,56,-1
 244 221 l 1,57,-1
 348 123 l 1,58,-1
 408 71 l 1,59,60
 416 71 416 71 390 52 c 128,-1,61
 364 33 364 33 330 18 c 128,-1,62
 296 3 296 3 247 3 c 128,-1,63
 198 3 198 3 168 10.5 c 128,-1,64
 138 18 138 18 138 29.5 c 128,-1,65
 138 41 138 41 161 89.5 c 128,-1,66
 184 138 184 138 214 176 c 2,56,-1
EndSplineSet
EndChar

StartChar: quotesingle
Encoding: 39 39 10
AltUni2: 00ff07.ffffffff.0 002032.ffffffff.0 002019.ffffffff.0 000374.ffffffff.0 0002c8.ffffffff.0 0002bc.ffffffff.0 0002b9.ffffffff.0 00ff07.ffffffff.0 002032.ffffffff.0 002019.ffffffff.0 000374.ffffffff.0 0002c8.ffffffff.0 0002bc.ffffffff.0 0002b9.ffffffff.0
Width: 196
GlyphClass: 1
Flags: W
LayerCount: 2
Fore
SplineSet
51 505 m 0,0,1
 48 678 48 678 48 729 c 0,2,3
 48 757 48 757 67.5 776.5 c 128,-1,4
 87 796 87 796 115 796 c 128,-1,5
 143 796 143 796 162.5 776.5 c 128,-1,6
 182 757 182 757 182 734 c 0,7,8
 184 604 184 604 185 505 c 0,9,10
 185 477 185 477 165.5 457.5 c 128,-1,11
 146 438 146 438 118 438 c 128,-1,12
 90 438 90 438 70.5 457.5 c 128,-1,13
 51 477 51 477 51 505 c 0,0,1
EndSplineSet
EndChar

StartChar: parenright
Encoding: 41 41 12
AltUni2: 00ff09.ffffffff.0 00fe5a.ffffffff.0 00fe36.ffffffff.0 00208e.ffffffff.0 00207e.ffffffff.0 00ff09.ffffffff.0 00fe5a.ffffffff.0 00fe36.ffffffff.0 00208e.ffffffff.0 00207e.ffffffff.0
Width: 353
GlyphClass: 1
Flags: W
LayerCount: 2
Fore
SplineSet
127 778 m 0,0,1
 133 778 133 778 139 777 c 0,2,3
 163 773 163 773 177 755 c 0,4,5
 290 575 290 575 317 432 c 0,6,7
 328 374 328 374 328 304 c 0,8,9
 328 201 328 201 305 71 c 0,10,11
 286 -31 286 -31 247 -124 c 0,12,13
 208 -216 208 -216 141 -271 c 0,14,15
 126 -282 126 -282 106 -282 c 0,16,17
 75 -282 75 -282 56 -261 c 0,18,19
 44 -247 44 -247 44 -230 c 0,20,21
 44 -189 44 -189 68 -164 c 1,22,23
 152 -95 152 -95 188 108 c 1,24,25
 188 113 188 113 188 108 c 1,26,27
 206 202 206 202 206 302 c 0,28,29
 206 365 206 365 198 411 c 0,30,31
 177 518 177 518 78 680 c 0,32,33
 67 700 67 700 67 725 c 0,34,35
 67 730 67 730 68 736 c 0,36,37
 73 757 73 757 94 769 c 0,38,39
 109 778 109 778 127 778 c 0,0,1
EndSplineSet
Substitution2: "'rtla' Right to Left Alternates lookup 0 subtable" parenleft
EndChar

StartChar: asterisk
Encoding: 42 42 13
AltUni2: 00ff0a.ffffffff.0 00fe61.ffffffff.0 002731.ffffffff.0 002217.ffffffff.0 00ff0a.ffffffff.0 00fe61.ffffffff.0 002731.ffffffff.0 002217.ffffffff.0
Width: 503
GlyphClass: 1
Flags: W
LayerCount: 2
Fore
SplineSet
251 439 m 1,0,1
 245 430 245 430 227 406.5 c 128,-1,2
 209 383 209 383 198 369 c 0,3,4
 186 354 186 354 166.5 350.5 c 128,-1,5
 147 347 147 347 132 359 c 128,-1,6
 117 371 117 371 114 390 c 128,-1,7
 111 409 111 409 123 425 c 0,8,9
 133 438 133 438 151 462 c 1,10,11
 126 460 126 460 117 460 c 0,12,13
 97 459 97 459 83 472.5 c 128,-1,14
 69 486 69 486 69 506 c 0,15,16
 68 525 68 525 81.5 539 c 128,-1,17
 95 553 95 553 115 553 c 0,18,19
 122 553 122 553 147 555 c 1,20,21
 109 607 109 607 99 623 c 128,-1,22
 89 639 89 639 93 658 c 128,-1,23
 97 677 97 677 114 687 c 0,24,25
 130 697 130 697 149 692.5 c 128,-1,26
 168 688 168 688 178 672 c 0,27,28
 201 635 201 635 246 583 c 1,29,30
 247 584 247 584 252.5 590.5 c 128,-1,31
 258 597 258 597 261 600 c 0,32,33
 267 607 267 607 270 610 c 256,34,35
 273 613 273 613 298 643 c 0,36,37
 301 646 301 646 314 661 c 128,-1,38
 327 676 327 676 330 679 c 0,39,40
 343 693 343 693 362 694 c 128,-1,41
 381 695 381 695 396 682 c 0,42,43
 410 670 410 670 411.5 650.5 c 128,-1,44
 413 631 413 631 400 616 c 0,45,46
 398 614 398 614 385 599 c 128,-1,47
 372 584 372 584 368 580 c 0,48,49
 366 578 366 578 362 573 c 1,50,51
 411 567 411 567 444 551 c 0,52,53
 462 542 462 542 468 524 c 128,-1,54
 474 506 474 506 465 489 c 0,55,56
 456 471 456 471 438 464.5 c 128,-1,57
 420 458 420 458 402 467 c 0,58,59
 382 478 382 478 344 481 c 1,60,61
 381 446 381 446 402 436 c 0,62,63
 419 427 419 427 425.5 409 c 128,-1,64
 432 391 432 391 423 373 c 256,65,66
 414 355 414 355 396 349 c 128,-1,67
 378 343 378 343 360 352 c 0,68,69
 315 374 315 374 251 439 c 1,0,1
EndSplineSet
EndChar

StartChar: plus
Encoding: 43 43 14
AltUni2: 00ff0b.ffffffff.0 00fe62.ffffffff.0 00fb29.ffffffff.0 00208a.ffffffff.0 00207a.ffffffff.0 00ff0b.ffffffff.0 00fe62.ffffffff.0 00fb29.ffffffff.0 00208a.ffffffff.0 00207a.ffffffff.0
Width: 638
GlyphClass: 1
Flags: W
LayerCount: 2
Fore
SplineSet
93 325 m 0,0,1
 126 321 126 321 177 324 c 0,2,3
 219 327 219 327 272 333 c 1,4,-1
 274 333 l 2,5,6
 275 334 275 334 278 334 c 1,7,-1
 278 343 l 2,8,9
 279 407 279 407 278 442 c 0,10,11
 277 487 277 487 270 534 c 0,12,13
 267 556 267 556 279.5 573 c 128,-1,14
 292 590 292 590 313 594 c 0,15,16
 335 597 335 597 352 584.5 c 128,-1,17
 369 572 369 572 373 550 c 0,18,19
 381 502 381 502 382 445 c 0,20,21
 383 408 383 408 382 344 c 1,22,23
 404 345 404 345 443 345 c 0,24,25
 543 340 543 340 604 300 c 0,26,27
 622 288 622 288 626.5 267 c 128,-1,28
 631 246 631 246 619 228 c 128,-1,29
 607 210 607 210 586 205.5 c 128,-1,30
 565 201 565 201 547 213 c 0,31,32
 509 238 509 238 439 241 c 0,33,34
 403 241 403 241 382 239 c 1,35,36
 384 205 384 205 386 186 c 0,37,38
 392 112 392 112 415 58 c 0,39,40
 422 38 422 38 414 18 c 128,-1,41
 406 -2 406 -2 386 -10 c 128,-1,42
 366 -18 366 -18 346 -9.5 c 128,-1,43
 326 -1 326 -1 318 19 c 0,44,45
 291 87 291 87 282 176 c 0,46,47
 279 203 279 203 279 229 c 1,48,49
 224 223 224 223 183 220 c 0,50,51
 125 217 125 217 83 221 c 0,52,53
 61 223 61 223 47.5 240 c 128,-1,54
 34 257 34 257 36 278 c 0,55,56
 38 300 38 300 55 313.5 c 128,-1,57
 72 327 72 327 93 325 c 0,0,1
EndSplineSet
EndChar

StartChar: comma
Encoding: 44 44 15
AltUni2: 00ff0c.ffffffff.0 00fe50.ffffffff.0 00fe11.ffffffff.0 00fe10.ffffffff.0 003001.ffffffff.0 00066c.ffffffff.0 00ff0c.ffffffff.0 00fe50.ffffffff.0 00fe11.ffffffff.0 00fe10.ffffffff.0 003001.ffffffff.0 00066c.ffffffff.0
Width: 230
GlyphClass: 1
Flags: W
LayerCount: 2
Fore
SplineSet
112 -59 m 0,0,1
 92 -84 92 -84 66 -109 c 0,2,3
 52 -124 52 -124 52 -145 c 0,4,5
 52 -165 52 -165 66.5 -180.5 c 128,-1,6
 81 -196 81 -196 101 -196 c 256,7,8
 121 -196 121 -196 137 -180 c 0,9,10
 173 -145 173 -145 194 -116 c 0,11,12
 224 -74 224 -74 224 -28 c 0,13,14
 224 5 224 5 206 40 c 128,-1,15
 188 75 188 75 146 120 c 0,16,17
 131 137 131 137 111 137 c 0,18,19
 90 137 90 137 75 123 c 0,20,21
 59 109 59 109 59 88 c 128,-1,22
 59 67 59 67 71 52 c 0,23,24
 107 13 107 13 115.5 -3.5 c 128,-1,25
 124 -20 124 -20 124 -30 c 128,-1,26
 124 -40 124 -40 112 -59 c 0,0,1
EndSplineSet
EndChar

StartChar: hyphen
Encoding: 45 45 16
AltUni2: 00ff0d.ffffffff.0 00fe63.ffffffff.0 00fe32.ffffffff.0 002500.ffffffff.0 002212.ffffffff.0 00207b.ffffffff.0 002015.ffffffff.0 002014.ffffffff.0 002013.ffffffff.0 002012.ffffffff.0 002011.ffffffff.0 002010.ffffffff.0 00ff0d.ffffffff.0 00fe63.ffffffff.0 00fe32.ffffffff.0 002500.ffffffff.0 002212.ffffffff.0 00207b.ffffffff.0 002015.ffffffff.0 002014.ffffffff.0 002013.ffffffff.0 002012.ffffffff.0 002011.ffffffff.0 002010.ffffffff.0
Width: 444
GlyphClass: 1
Flags: W
LayerCount: 2
Fore
SplineSet
90 344 m 0,0,1
 120 335 120 335 158 333 c 0,2,3
 176 332 176 332 229 332 c 0,4,5
 279 332 279 332 298 331 c 0,6,7
 348 326 348 326 371 320 c 0,8,9
 391 317 391 317 401 296 c 128,-1,10
 411 275 411 275 409 248 c 0,11,12
 405 223 405 223 390 208 c 128,-1,13
 375 193 375 193 357 198 c 0,14,15
 319 205 319 205 294 206 c 0,16,17
 278 207 278 207 229 207 c 0,18,19
 175 207 175 207 154 209 c 0,20,21
 109 212 109 212 73 221 c 0,22,23
 55 225 55 225 44.5 247 c 128,-1,24
 34 269 34 269 37.5 294 c 128,-1,25
 41 319 41 319 56.5 334 c 128,-1,26
 72 349 72 349 90 344 c 0,0,1
EndSplineSet
EndChar

StartChar: period
Encoding: 46 46 17
AltUni2: 00ff0e.ffffffff.0 00fe52.ffffffff.0 002024.ffffffff.0 00ff0e.ffffffff.0 00fe52.ffffffff.0 002024.ffffffff.0
Width: 198
GlyphClass: 1
Flags: W
LayerCount: 2
Fore
SplineSet
152 -15 m 0,0,1
 189 1 189 1 189 48 c 0,2,3
 189 57 189 57 185 71 c 0,4,5
 182 83 182 83 174 99 c 0,6,7
 159 131 159 131 137 145 c 0,8,9
 124 155 124 155 103 155 c 128,-1,10
 82 155 82 155 65 138 c 0,11,12
 53 125 53 125 50 107 c 0,13,14
 49 100 49 100 49 86 c 0,15,16
 51 74 51 74 57 42 c 0,17,18
 61 31 61 31 61 26 c 0,19,20
 62 24 62 24 65 17 c 0,21,22
 72 -11 72 -11 100 -19 c 0,23,24
 117 -21 117 -21 123 -21 c 0,25,26
 139 -21 139 -21 152 -15 c 0,0,1
EndSplineSet
EndChar

StartChar: slash
Encoding: 47 47 18
AltUni2: 00ff0f.ffffffff.0 002215.ffffffff.0 00ff0f.ffffffff.0 002215.ffffffff.0
Width: 678
GlyphClass: 1
Flags: W
LayerCount: 2
Fore
SplineSet
40 -92 m 0,0,1
 38 -109 38 -109 53 -121.5 c 128,-1,2
 68 -134 68 -134 91 -134 c 128,-1,3
 114 -134 114 -134 131 -125 c 128,-1,4
 148 -116 148 -116 150 -102 c 2,5,-1
 150 -101 l 1,6,7
 183 100 183 100 302 308.5 c 128,-1,8
 421 517 421 517 604 699 c 0,9,10
 614 709 614 709 614 724.5 c 128,-1,11
 614 740 614 740 594 748.5 c 128,-1,12
 574 757 574 757 551.5 757 c 128,-1,13
 529 757 529 757 512 741 c 0,14,15
 322 550 322 550 198.5 333.5 c 128,-1,16
 75 117 75 117 40 -92 c 0,0,1
EndSplineSet
EndChar

StartChar: zero
Encoding: 48 48 19
AltUni2: 00ff10.ffffffff.0 002080.ffffffff.0 002070.ffffffff.0 00ff10.ffffffff.0 002080.ffffffff.0 002070.ffffffff.0
Width: 531
GlyphClass: 1
Flags: W
LayerCount: 2
Fore
SplineSet
277 607 m 0,0,1
 252 607 252 607 222 595 c 0,2,3
 217 592 217 592 212 591 c 0,4,5
 184 548 184 548 160 475 c 1,6,7
 131 364 131 364 131 275 c 1,8,-1
 131 275 l 1,9,10
 131 270 131 270 131 265 c 0,11,12
 131 176 131 176 168 129 c 1,13,14
 203 92 203 92 281 92 c 0,15,16
 295 92 295 92 310 93 c 0,17,18
 370 97 370 97 404 174 c 1,19,20
 426 242 426 242 426 322 c 0,21,22
 426 359 426 359 421 399 c 0,23,24
 406 520 406 520 348 579 c 0,25,26
 316 607 316 607 277 607 c 0,0,1
521 325 m 0,27,28
 521 229 521 229 493 149 c 0,29,30
 472 86 472 86 436 49 c 0,31,32
 391 4 391 4 322 -2 c 0,33,34
 300 -4 300 -4 280 -4 c 0,35,36
 149 -4 149 -4 89 74 c 0,37,38
 36 146 36 146 36 267 c 0,39,40
 36 271 36 271 36 276 c 0,41,42
 36 376 36 376 67 500 c 0,43,44
 95 599 95 599 128 654 c 0,45,46
 140 667 140 667 158 670 c 1,47,48
 164 676 164 676 173 680 c 0,49,50
 229 703 229 703 280 703 c 0,51,52
 365 703 365 703 428 640 c 1,53,54
 498 558 498 558 516 411 c 0,55,56
 521 366 521 366 521 325 c 0,27,28
EndSplineSet
EndChar

StartChar: one
Encoding: 49 49 20
AltUni2: 00ff11.ffffffff.0 002081.ffffffff.0 0000b9.ffffffff.0 00ff11.ffffffff.0 002081.ffffffff.0 0000b9.ffffffff.0
Width: 337
GlyphClass: 1
Flags: W
LayerCount: 2
Fore
SplineSet
194 527 m 0,0,1
 184 520 184 520 171 520 c 128,-1,2
 158 520 158 520 145 532 c 0,3,4
 125 549 125 549 125 583 c 0,5,6
 125 594 125 594 134 602 c 0,7,8
 157 633 157 633 188 669 c 0,9,10
 220 703 220 703 225 707 c 0,11,12
 228 709 228 709 243 721 c 0,13,14
 246 723 246 723 257 727 c 0,15,16
 267 730 267 730 278 730 c 0,17,18
 304 730 304 730 318 717 c 0,19,20
 327 709 327 709 327 699 c 0,21,22
 327 693 327 693 326 686 c 0,23,24
 326 679 326 679 324 673 c 0,25,26
 324 670 324 670 319 654 c 0,27,28
 306 589 306 589 303 584 c 0,29,30
 290 534 290 534 283 510 c 0,31,32
 230 320 230 320 228 66 c 1,33,34
 246 71 246 71 262 60 c 128,-1,35
 278 49 278 49 284 24 c 0,36,37
 287 15 287 15 287 3 c 0,38,39
 287 -3 287 -3 281 -10 c 0,40,41
 273 -22 273 -22 254 -26 c 0,42,43
 240 -31 240 -31 216 -36 c 1,44,45
 213 -21 213 -21 211 -37 c 1,46,47
 177 -45 177 -45 142 -65 c 0,48,49
 124 -71 124 -71 119 -71 c 0,50,51
 112 -71 112 -71 106 -70 c 0,52,53
 87 -66 87 -66 77 -55 c 0,54,55
 70 -47 70 -47 70 -39 c 0,56,57
 70 -30 70 -30 72 -22 c 0,58,59
 77 3 77 3 95 16 c 0,60,61
 119 31 119 31 133 37 c 1,62,63
 133 317 133 317 192 531 c 1,64,65
 193 529 193 529 194 527 c 0,0,1
EndSplineSet
EndChar

StartChar: two
Encoding: 50 50 21
AltUni2: 00ff12.ffffffff.0 002082.ffffffff.0 0000b2.ffffffff.0 00ff12.ffffffff.0 002082.ffffffff.0 0000b2.ffffffff.0
Width: 540
GlyphClass: 1
Flags: W
LayerCount: 2
Fore
SplineSet
106 466 m 0,0,1
 93 456 93 456 77 456 c 0,2,3
 52 456 52 456 38 474 c 0,4,5
 29 486 29 486 29 500 c 0,6,7
 29 504 29 504 29 507 c 0,8,9
 39 587 39 587 105 643 c 0,10,11
 165 692 165 692 253 701 c 0,12,13
 274 704 274 704 294 704 c 0,14,15
 360 704 360 704 411 676 c 0,16,17
 480 633 480 633 483 545 c 1,18,19
 483 537 483 537 483 545 c 1,20,21
 483 507 483 507 475 475 c 0,22,23
 462 421 462 421 420 351 c 0,24,25
 387 303 387 303 332 240 c 1,26,27
 332 244 332 244 332 239 c 0,28,29
 284 186 284 186 271 171 c 0,30,31
 242 136 242 136 224 111 c 0,32,33
 223 108 223 108 219 102.5 c 128,-1,34
 215 97 215 97 213 93.5 c 128,-1,35
 211 90 211 90 206 82 c 1,36,37
 212 85 212 85 214.5 85.5 c 128,-1,38
 217 86 217 86 235 94 c 1,39,-1
 237 94 l 1,40,41
 237 95 237 95 240 96 c 128,-1,42
 243 97 243 97 248.5 99 c 128,-1,43
 254 101 254 101 256 102 c 0,44,45
 301 121 301 121 334 131 c 0,46,47
 387 146 387 146 425 147 c 1,48,49
 425 155 425 155 425 147 c 1,50,51
 437 147 437 147 451 143 c 1,52,53
 457 148 457 148 463 136 c 0,54,55
 466 135 466 135 477 128 c 0,56,57
 481 128 481 128 482 128 c 0,58,59
 495 128 495 128 506 121 c 0,60,61
 524 111 524 111 528 92 c 0,62,63
 530 81 530 81 530 76 c 1,64,65
 530 86 530 86 530 75 c 0,66,67
 527 55 527 55 516 43 c 0,68,69
 502 27 502 27 478 27 c 2,70,-1
 477 27 l 1,71,72
 476 40 476 40 475 28 c 1,73,74
 468 42 468 42 460 30 c 1,75,76
 459 43 459 43 458 31 c 1,77,78
 445 37 445 37 419 54 c 1,79,80
 419 66 419 66 419 55 c 1,81,82
 419 67 419 67 418 55 c 1,83,84
 396 52 396 52 373.5 45.5 c 128,-1,85
 351 39 351 39 302 20 c 2,86,87
 302 20 302 20 256 1 c 0,88,89
 231 -9 231 -9 207 -15 c 0,90,91
 156 -26 156 -26 143 -26 c 2,92,93
 143 -26 143 -26 142 -26 c 0,94,95
 122 -26 122 -26 104 -20 c 256,96,97
 86 -14 86 -14 78 1 c 0,98,99
 74 7 74 7 72 21 c 0,100,101
 72 23 72 23 72 27 c 0,102,103
 71 44 71 44 86 70 c 0,104,105
 90 77 90 77 93.5 84 c 128,-1,106
 97 91 97 91 102 100 c 1,107,108
 102 110 102 110 102 101 c 1,109,110
 105 106 105 106 123 139 c 0,111,112
 127 144 127 144 129 150 c 0,113,114
 129 158 129 158 129 152 c 1,115,116
 130 160 130 160 132 154 c 1,117,118
 147 180 147 180 184 224 c 0,119,120
 214 262 214 262 245 294 c 0,121,122
 299 355 299 355 329 397 c 0,123,124
 365 450 365 450 379 496 c 0,125,126
 385 522 385 522 385 543 c 0,127,128
 384 581 384 581 352 600 c 0,129,130
 329 613 329 613 295 613 c 0,131,132
 282 613 282 613 268 611 c 0,133,134
 212 604 212 604 170 574 c 0,135,136
 128 541 128 541 123 496 c 0,137,138
 121 478 121 478 106 466 c 0,0,1
EndSplineSet
EndChar

StartChar: three
Encoding: 51 51 22
AltUni2: 00ff13.ffffffff.0 002083.ffffffff.0 0000b3.ffffffff.0 00ff13.ffffffff.0 002083.ffffffff.0 0000b3.ffffffff.0
Width: 532
GlyphClass: 1
Flags: W
LayerCount: 2
Fore
SplineSet
86 511 m 0,0,1
 81 510 81 510 77 510 c 0,2,3
 61 510 61 510 48 520 c 128,-1,4
 35 530 35 530 32 549 c 0,5,6
 31 553 31 553 31 557 c 0,7,8
 31 572 31 572 40 583 c 0,9,10
 126 692 126 692 233 697 c 0,11,12
 244 697 244 697 248 697 c 0,13,14
 344 697 344 697 401 622 c 1,15,16
 433 573 433 573 433 519 c 0,17,18
 433 491 433 491 424 462.5 c 128,-1,19
 415 434 415 434 402 413 c 1,20,21
 423 406 423 406 441 393 c 0,22,23
 480 369 480 369 500.5 329.5 c 128,-1,24
 521 290 521 290 521 248 c 0,25,26
 521 144 521 144 426 75 c 1,27,28
 426 86 426 86 426 75 c 1,29,30
 313 3 313 3 114 3 c 0,31,32
 95 3 95 3 81 17 c 128,-1,33
 67 31 67 31 67 50.5 c 128,-1,34
 67 70 67 70 81 84 c 128,-1,35
 95 98 95 98 114 98 c 0,36,37
 281 98 281 98 365 151 c 0,38,39
 426 192 426 192 426 247 c 1,40,41
 426 254 426 254 426 247 c 1,42,43
 426 249 426 249 426 251 c 0,44,45
 426 296 426 296 386 320 c 0,46,47
 361 335 361 335 329 335 c 0,48,49
 309 335 309 335 286 329 c 0,50,51
 280 327 280 327 270 323 c 0,52,53
 256 318 256 318 238 318 c 0,54,55
 204 318 204 318 191 346 c 0,56,57
 187 355 187 355 187 363.5 c 128,-1,58
 187 372 187 372 191 381 c 0,59,60
 199 399 199 399 218 405 c 128,-1,61
 237 411 237 411 245 414 c 0,62,63
 305 440 305 440 323 488 c 0,64,65
 328 504 328 504 328 519 c 0,66,67
 328 548 328 548 309 574 c 0,68,69
 284 608 284 608 243 608 c 0,70,71
 241 608 241 608 240 608 c 0,72,73
 179 603 179 603 116 529 c 0,74,75
 106 514 106 514 86 511 c 0,0,1
EndSplineSet
EndChar

StartChar: four
Encoding: 52 52 23
AltUni2: 00ff14.ffffffff.0 002084.ffffffff.0 002074.ffffffff.0 00ff14.ffffffff.0 002084.ffffffff.0 002074.ffffffff.0
Width: 574
GlyphClass: 1
Flags: W
LayerCount: 2
Fore
SplineSet
440 396 m 0,0,1
 438 376 438 376 434 303 c 1,2,3
 503 323 503 323 517 323 c 1,4,5
 517 323 517 323 517 323 c 1,6,7
 529 323 529 323 540 317 c 0,8,9
 557 307 557 307 561 288 c 0,10,11
 563 281 563 281 563 275 c 0,12,13
 563 263 563 263 557 253 c 0,14,15
 547 237 547 237 526 232 c 0,16,17
 515 230 515 230 460 215 c 0,18,19
 450 211 450 211 448.5 211 c 128,-1,20
 447 211 447 211 446 210 c 0,21,22
 444 209 444 209 426 206 c 1,23,24
 424 156 424 156 424 110.5 c 128,-1,25
 424 65 424 65 429 37 c 0,26,27
 430 32 430 32 430 27 c 0,28,29
 430 15 430 15 422 3 c 0,30,31
 406 -16 406 -16 378 -16 c 0,32,33
 360 -16 360 -16 346 -8 c 0,34,35
 328 3 328 3 324 21 c 0,36,37
 316 53 316 53 316 129 c 0,38,39
 316 145 316 145 318 189 c 1,40,41
 292 185 292 185 270 185 c 0,42,43
 217 185 217 185 177 202 c 0,44,45
 116 230 116 230 89 303 c 0,46,47
 66 363 66 363 66 460 c 0,48,49
 66 476 66 476 67 492 c 0,50,51
 69 521 69 521 71 564 c 0,52,53
 71 570 71 570 73 582 c 0,54,55
 73 595 73 595 77 614 c 0,56,57
 78 618 78 618 81.5 654 c 128,-1,58
 85 690 85 690 85 691 c 0,59,60
 87 709 87 709 100 720 c 0,61,62
 113 732 113 732 130 732 c 0,63,64
 153 732 153 732 168 717 c 0,65,66
 179 704 179 704 179 688 c 0,67,68
 179 686 179 686 171 603 c 0,69,70
 171 594 171 594 167 571 c 0,71,72
 167 569 167 569 166 564 c 0,73,74
 165 552 165 552 162 486 c 0,75,76
 161 463 161 463 161 455 c 0,77,78
 161 376 161 376 178 331 c 0,79,80
 193 293 193 293 223 281 c 0,81,82
 242 273 242 273 272 273 c 0,83,84
 285 273 285 273 299 275 c 0,85,86
 304 276 304 276 311.5 277 c 128,-1,87
 319 278 319 278 325 279 c 1,88,89
 325 288 325 288 325 294 c 2,90,-1
 325 295 l 1,91,-1
 332 401 l 2,92,93
 334 429 334 429 334 448.5 c 128,-1,94
 334 468 334 468 333 482 c 0,95,96
 333 502 333 502 349 516 c 0,97,98
 366 531 366 531 388 531 c 128,-1,99
 410 531 410 531 425 517.5 c 128,-1,100
 440 504 440 504 441 485 c 0,101,102
 443 447 443 447 440 396 c 0,0,1
EndSplineSet
EndChar

StartChar: five
Encoding: 53 53 24
AltUni2: 00ff15.ffffffff.0 002085.ffffffff.0 002075.ffffffff.0 00ff15.ffffffff.0 002085.ffffffff.0 002075.ffffffff.0
Width: 509
GlyphClass: 1
Flags: W
LayerCount: 2
Fore
SplineSet
209 423 m 2,0,-1
 210 423 l 1,1,-1
 243 424 l 2,2,3
 275 424 275 424 306 420.5 c 128,-1,4
 337 417 337 417 366 404 c 0,5,6
 426 372 426 372 439 295 c 0,7,8
 442 277 442 277 442 258 c 0,9,10
 442 204 442 204 414 148 c 0,11,12
 381 82 381 82 314 40 c 0,13,14
 250 0 250 0 186 0 c 0,15,16
 90 0 90 0 53 90 c 0,17,18
 50 99 50 99 50 108 c 128,-1,19
 50 117 50 117 53 125 c 0,20,21
 61 143 61 143 80 149 c 0,22,23
 97 156 97 156 115.5 149 c 128,-1,24
 134 142 134 142 141 124 c 0,25,26
 153 94 153 94 177 91 c 0,27,28
 179 91 179 91 182 91 c 0,29,30
 210 91 210 91 247 113 c 0,31,32
 293 140 293 140 320 186 c 0,33,34
 342 222 342 222 342 257 c 0,35,36
 342 267 342 267 340 278 c 0,37,38
 333 311 333 311 312 320 c 0,39,40
 292 329 292 329 244 329 c 0,41,42
 241 329 241 329 231 328.5 c 128,-1,43
 221 328 221 328 213 328 c 0,44,45
 159 325 159 325 134 330 c 0,46,47
 80 340 80 340 61 383 c 0,48,49
 53 402 53 402 53 427 c 128,-1,50
 53 452 53 452 62 484 c 0,51,52
 79 543 79 543 130 641 c 0,53,54
 132 645 132 645 135 650 c 0,55,56
 147 669 147 669 171 671 c 0,57,58
 244 679 244 679 440 720 c 0,59,60
 445 721 445 721 451 721 c 0,61,62
 464 721 464 721 475 714 c 0,63,64
 492 704 492 704 497 685 c 0,65,66
 498 680 498 680 498 677.5 c 128,-1,67
 498 675 498 675 498 674 c 0,68,69
 498 662 498 662 491 651 c 0,70,71
 481 635 481 635 461 631 c 0,72,73
 280 595 280 595 212 585 c 1,74,75
 148 471 148 471 148 429 c 0,76,77
 148 427 148 427 148 425 c 0,78,79
 150 424 150 424 152 424 c 0,80,81
 169 422 169 422 209 423 c 2,0,-1
EndSplineSet
EndChar

StartChar: six
Encoding: 54 54 25
AltUni2: 00ff16.ffffffff.0 002086.ffffffff.0 002076.ffffffff.0 00ff16.ffffffff.0 002086.ffffffff.0 002076.ffffffff.0
Width: 502
GlyphClass: 1
Flags: W
LayerCount: 2
Fore
SplineSet
348 302 m 0,0,1
 324 319 324 319 292 319 c 0,2,3
 270 319 270 319 244 310.5 c 128,-1,4
 218 302 218 302 197.5 289 c 128,-1,5
 177 276 177 276 173 269 c 0,6,7
 163 249 163 249 142 244 c 1,8,9
 137 200 137 200 136 185 c 0,10,11
 136 152 136 152 145 128 c 0,12,13
 169 65 169 65 273 59 c 0,14,15
 278 59 278 59 283 59 c 0,16,17
 343 59 343 59 374 97 c 1,18,19
 397 132 397 132 397 180 c 0,20,21
 397 192 397 192 395 205 c 0,22,23
 388 270 388 270 348 302 c 0,0,1
201 397 m 0,24,25
 250 412 250 412 293 412 c 0,26,27
 364 412 364 412 413 372 c 0,28,29
 478 319 478 319 489 222 c 0,30,31
 491 203 491 203 491 186 c 0,32,33
 491 113 491 113 453 57 c 0,34,35
 395 -27 395 -27 266 -21 c 1,36,37
 266 -6 266 -6 266 -21 c 1,38,39
 98 -10 98 -10 56 107 c 0,40,41
 42 145 42 145 42 193 c 0,42,43
 42 255 42 255 65 333 c 0,44,45
 95 435 95 435 165 557 c 1,46,47
 165 548 165 548 166 557 c 1,48,49
 243 665 243 665 299 711 c 0,50,51
 315 724 315 724 338 724 c 128,-1,52
 361 724 361 724 377 709 c 0,53,54
 390 695 390 695 390 677 c 128,-1,55
 390 659 390 659 375 645 c 0,56,57
 325 604 325 604 263 512 c 0,58,59
 223 453 223 453 192 393 c 1,60,61
 199 396 199 396 201 397 c 0,24,25
EndSplineSet
EndChar

StartChar: seven
Encoding: 55 55 26
AltUni2: 00ff17.ffffffff.0 002087.ffffffff.0 002077.ffffffff.0 00ff17.ffffffff.0 002087.ffffffff.0 002077.ffffffff.0
Width: 539
GlyphClass: 1
Flags: W
LayerCount: 2
Fore
SplineSet
337 719 m 1,0,-1
 337 719 l 1,1,2
 346 720 346 720 349 720 c 256,3,4
 352 720 352 720 355 722 c 0,5,6
 390 725 390 725 410 725 c 0,7,8
 488 725 488 725 522 669 c 0,9,10
 528 658 528 658 528 647 c 0,11,12
 528 626 528 626 520.5 606.5 c 128,-1,13
 513 587 513 587 503 564.5 c 128,-1,14
 493 542 493 542 466 486 c 128,-1,15
 439 430 439 430 428 406 c 1,16,17
 442 408 442 408 455 409 c 0,18,19
 460 410 460 410 465 410 c 0,20,21
 479 410 479 410 490 403 c 0,22,23
 507 392 507 392 511 372 c 0,24,25
 511 368 511 368 511 365 c 0,26,27
 511 350 511 350 502 337 c 0,28,29
 490 322 490 322 470 319 c 2,30,-1
 469 319 l 2,31,32
 460 319 460 319 415 313 c 1,33,-1
 414 313 l 2,34,35
 404 313 404 313 383 311 c 1,36,37
 381 305 381 305 378 299 c 0,38,39
 338 217 338 217 319 150 c 0,40,41
 307 106 307 106 307 78 c 0,42,43
 307 62 307 62 310 53.5 c 128,-1,44
 313 45 313 45 313 36 c 128,-1,45
 313 27 313 27 306 17 c 0,46,47
 294 1 294 1 273 -4 c 0,48,49
 266 -6 266 -6 255 -6 c 128,-1,50
 244 -6 244 -6 232 0 c 0,51,52
 213 10 213 10 206 28 c 0,53,54
 200 50 200 50 200 78 c 0,55,56
 200 118 200 118 214 171 c 0,57,58
 231 227 231 227 262 299 c 1,59,60
 253 298 253 298 244 296 c 0,61,62
 239 296 239 296 235 296 c 0,63,64
 217 296 217 296 203 304 c 0,65,66
 185 314 185 314 181 332 c 0,67,68
 180 337 180 337 180 342 c 0,69,70
 180 355 180 355 189 366 c 0,71,72
 201 383 201 383 224 385 c 0,73,74
 267 391 267 391 309 395 c 1,75,76
 335 447 335 447 409 582 c 0,77,78
 423 612 423 612 429 628 c 1,79,80
 421 630 421 630 409 630 c 256,81,82
 397 630 397 630 371 627 c 2,83,-1
 370 627 l 2,84,85
 368 627 368 627 364 626.5 c 128,-1,86
 360 626 360 626 357 625.5 c 128,-1,87
 354 625 354 625 347 625 c 0,88,89
 306 621 306 621 264 612 c 128,-1,90
 222 603 222 603 162 589 c 1,91,92
 161 574 161 574 161 588 c 1,93,94
 141 583 141 583 96 572 c 0,95,96
 77 566 77 566 60 576 c 128,-1,97
 43 586 43 586 39 605 c 0,98,99
 37 612 37 612 37 618 c 0,100,101
 37 630 37 630 43 641 c 0,102,103
 53 658 53 658 72 663 c 0,104,105
 102 671 102 671 125 678 c 1,106,-1
 126 678 l 2,107,108
 129 679 129 679 136 680 c 0,109,110
 180 693 180 693 230 704 c 0,111,112
 290 715 290 715 337 719 c 1,0,-1
EndSplineSet
EndChar

StartChar: eight
Encoding: 56 56 27
AltUni2: 00ff18.ffffffff.0 002088.ffffffff.0 002078.ffffffff.0 00ff18.ffffffff.0 002088.ffffffff.0 002078.ffffffff.0
Width: 497
GlyphClass: 1
Flags: W
LayerCount: 2
Fore
SplineSet
360 408 m 0,0,1
 350 399 350 399 288 347 c 1,2,3
 294 344 294 344 300 341 c 2,4,-1
 301 341 l 1,5,6
 363 310 363 310 371 305 c 0,7,8
 407 280 407 280 426 262 c 0,9,10
 487 205 487 205 487 130 c 0,11,12
 487 82 487 82 454 47 c 0,13,14
 426 18 426 18 384 2 c 0,15,16
 329 -17 329 -17 272 -17 c 0,17,18
 239 -17 239 -17 209 -11 c 0,19,20
 203 -9 203 -9 196 -6 c 2,21,-1
 190 -6 l 1,22,23
 189 10 189 10 187 -4 c 1,24,25
 87 24 87 24 44 71 c 0,26,27
 13 106 13 106 13 150 c 0,28,29
 13 214 13 214 79 290 c 0,30,31
 100 313 100 313 120 334 c 1,32,33
 95 357 95 357 81 379 c 0,34,35
 61 413 61 413 61 452 c 0,36,37
 61 510 61 510 108 576 c 0,38,39
 144 627 144 627 180 654 c 0,40,41
 249 706 249 706 327 706 c 0,42,43
 363 706 363 706 389 691 c 0,44,45
 405 682 405 682 429 657 c 0,46,47
 461 624 461 624 461 581 c 0,48,49
 461 574 461 574 460 566 c 0,50,51
 457 530 457 530 425 483 c 0,52,53
 398 445 398 445 360 408 c 0,0,1
358 591 m 0,54,55
 341 607 341 607 335 611 c 0,56,57
 332 612 332 612 328 612 c 0,58,59
 292 612 292 612 254 582 c 0,60,61
 232 565 232 565 193 517 c 0,62,63
 159 470 159 470 159 442 c 0,64,65
 159 413 159 413 195 386 c 1,66,67
 238 408 238 408 281 460 c 1,68,69
 322 499 322 499 342 526 c 0,70,71
 363 552 363 552 366 571 c 0,72,73
 366 572 366 572 366 574 c 0,74,75
 366 583 366 583 358 591 c 0,54,55
111 156 m 0,76,77
 108 148 108 148 108 142 c 0,78,79
 108 130 108 130 116 121 c 0,80,81
 140 95 140 95 222 71 c 0,82,83
 230 69 230 69 236 66 c 0,84,85
 262 63 262 63 272 63 c 0,86,87
 308 63 308 63 346 76 c 0,88,89
 392 93 392 93 392 121 c 0,90,91
 392 159 392 159 357 191 c 0,92,93
 331 215 331 215 251 256 c 0,94,95
 247 258 247 258 239 262 c 128,-1,96
 231 266 231 266 227 268 c 128,-1,97
 223 270 223 270 216.5 273.5 c 128,-1,98
 210 277 210 277 208 278 c 0,99,100
 177 251 177 251 157 228 c 2,101,-1
 156 227 l 2,102,103
 117 184 117 184 111 156 c 0,76,77
EndSplineSet
EndChar

StartChar: nine
Encoding: 57 57 28
AltUni2: 00ff19.ffffffff.0 002089.ffffffff.0 002079.ffffffff.0 00ff19.ffffffff.0 002089.ffffffff.0 002079.ffffffff.0
Width: 504
GlyphClass: 1
Flags: W
LayerCount: 2
Fore
SplineSet
390 327 m 0,0,1
 399 371 399 371 399 410 c 0,2,3
 399 447 399 447 392 481 c 0,4,5
 376 563 376 563 307 586 c 0,6,7
 282 594 282 594 260 594 c 0,8,9
 228 594 228 594 201 577 c 0,10,11
 157 545 157 545 152 483 c 0,12,13
 152 476 152 476 152 469 c 0,14,15
 152 406 152 406 192 370 c 0,16,17
 246 326 246 326 347 326 c 0,18,19
 365 326 365 326 383 327 c 2,20,-1
 384 327 l 2,21,22
 387 327 387 327 390 327 c 0,0,1
173 94 m 0,23,24
 220 94 220 94 266 124 c 0,25,26
 322 161 322 161 359 231 c 1,27,28
 351 231 351 231 344 231 c 0,29,30
 196 231 196 231 122 303 c 0,31,32
 57 369 57 369 57 471 c 0,33,34
 57 480 57 480 57 489 c 0,35,36
 63 589 63 589 134 648 c 0,37,38
 186 690 186 690 257 690 c 0,39,40
 303 690 303 690 352 672 c 0,41,42
 460 628 460 628 486 499 c 0,43,44
 493 458 493 458 493 414 c 0,45,46
 493 335 493 335 468 249 c 0,47,48
 428 120 428 120 338 51 c 1,49,50
 261 -2 261 -2 174 -2 c 0,51,52
 131 -2 131 -2 86 16 c 0,53,54
 68 21 68 21 61 34 c 0,55,56
 58 40 58 40 58 46 c 0,57,58
 58 58 58 58 61 70 c 0,59,60
 69 94 69 94 87 104 c 0,61,62
 96 108 96 108 105 108 c 0,63,64
 115 108 115 108 124 104 c 0,65,66
 149 94 149 94 173 94 c 0,23,24
EndSplineSet
EndChar

StartChar: colon
Encoding: 58 58 29
AltUni2: 00ff1a.ffffffff.0 00fe55.ffffffff.0 00fe13.ffffffff.0 002236.ffffffff.0 000589.ffffffff.0 00ff1a.ffffffff.0 00fe55.ffffffff.0 00fe13.ffffffff.0 002236.ffffffff.0 000589.ffffffff.0
Width: 230
GlyphClass: 1
Flags: W
LayerCount: 2
Fore
SplineSet
63 74 m 0,0,1
 63 72 63 72 63 71 c 2,2,-1
 63 70 l 2,3,4
 63 51 63 51 76 36 c 0,5,6
 88 23 88 23 108 19 c 0,7,8
 113 18 113 18 120 18 c 128,-1,9
 127 18 127 18 138 20 c 0,10,11
 170 28 170 28 188 53 c 1,12,13
 197 74 197 74 198 84 c 0,14,15
 198 103 198 103 183 123 c 0,16,17
 163 149 163 149 132 157 c 0,18,19
 127 158 127 158 123 158 c 0,20,21
 109 158 109 158 100 146 c 2,22,-1
 99 144 l 1,23,24
 84 136 84 136 76 124 c 0,25,26
 72 117 72 117 70 112 c 0,27,28
 63 91 63 91 63 74 c 0,0,1
73 349 m 0,29,30
 73 323 73 323 91 303 c 0,31,32
 112 280 112 280 150 280 c 0,33,34
 190 280 190 280 205 311 c 0,35,36
 210 327 210 327 210 335 c 0,37,38
 210 353 210 353 199 374 c 0,39,40
 184 404 184 404 159 417 c 0,41,42
 143 426 143 426 128 426 c 0,43,44
 107 426 107 426 90 409 c 0,45,46
 83 398 83 398 83 393.5 c 128,-1,47
 83 389 83 389 83 383 c 2,48,-1
 81 380 l 2,49,50
 75 372 75 372 74 363.5 c 128,-1,51
 73 355 73 355 73 349 c 0,29,30
EndSplineSet
EndChar

StartChar: semicolon
Encoding: 59 59 30
AltUni2: 00ff1b.ffffffff.0 00fe54.ffffffff.0 00fe14.ffffffff.0 00037e.ffffffff.0 00ff1b.ffffffff.0 00fe54.ffffffff.0 00fe14.ffffffff.0 00037e.ffffffff.0
Width: 212
GlyphClass: 1
Flags: W
LayerCount: 2
Fore
SplineSet
120 378 m 0,0,1
 131 378 131 378 142 373 c 0,2,3
 209 344 209 344 209 286 c 0,4,5
 209 249 209 249 177 222 c 0,6,7
 153 203 153 203 126 203 c 0,8,9
 110 203 110 203 95 209 c 0,10,11
 47 231 47 231 47 293 c 2,12,-1
 47 298 l 1,13,-1
 47 306 l 1,14,-1
 47 307 l 1,15,16
 51 331 51 331 66 343 c 1,17,-1
 70 348 l 1,18,-1
 72 349 l 1,19,-1
 73 350 l 2,20,21
 75 351 75 351 78 356 c 2,22,-1
 79 358 l 2,23,24
 84 363 84 363 85 363 c 0,25,26
 100 378 100 378 120 378 c 0,0,1
217 37 m 0,27,28
 217 -20 217 -20 186 -65 c 0,29,30
 160 -104 160 -104 117 -118 c 0,31,32
 108 -121 108 -121 97.5 -121 c 128,-1,33
 87 -121 87 -121 76 -116 c 0,34,35
 54 -106 54 -106 49 -84 c 0,36,37
 42 -63 42 -63 51.5 -43 c 128,-1,38
 61 -23 61 -23 83 -16 c 0,39,40
 91 -13 91 -13 99 -1 c 0,41,42
 109 15 109 15 109 36 c 0,43,44
 109 48 109 48 104 58 c 0,45,46
 101 65 101 65 93 68 c 0,47,48
 72 75 72 75 62 95 c 0,49,50
 57 107 57 107 57 117 c 128,-1,51
 57 127 57 127 60 136 c 0,52,53
 67 158 67 158 88 168 c 0,54,55
 99 173 99 173 109.5 173 c 128,-1,56
 120 173 120 173 129 170 c 0,57,58
 177 154 177 154 202 106 c 0,59,60
 217 72 217 72 217 37 c 0,27,28
EndSplineSet
EndChar

StartChar: less
Encoding: 60 60 31
AltUni2: 00ff1c.ffffffff.0 00fe64.ffffffff.0 003008.ffffffff.0 002329.ffffffff.0 002039.ffffffff.0 00ff1c.ffffffff.0 00fe64.ffffffff.0 003008.ffffffff.0 002329.ffffffff.0 002039.ffffffff.0
Width: 390
GlyphClass: 1
Flags: W
LayerCount: 2
Fore
SplineSet
320 122 m 0,0,1
 361 88 361 88 361 53 c 0,2,3
 361 36 361 36 354 22 c 0,4,5
 345 1 345 1 324 -7 c 0,6,7
 314 -11 314 -11 303.5 -11 c 128,-1,8
 293 -11 293 -11 282 -5 c 0,9,10
 253 9 253 9 251 39 c 0,11,12
 248 41 248 41 238 49 c 0,13,14
 209 71 209 71 200 84 c 0,15,16
 185 103 185 103 135 163 c 1,17,-1
 85 217 l 2,18,19
 58 246 58 246 48 264 c 0,20,21
 33 289 33 289 33 317 c 0,22,23
 33 353 33 353 63 391 c 0,24,25
 79 411 79 411 115 447 c 0,26,27
 170 499 170 499 302 630 c 0,28,29
 318 647 318 647 340.5 647 c 128,-1,30
 363 647 363 647 379 632 c 0,31,32
 395 616 395 616 395 593 c 128,-1,33
 395 570 395 570 380 555 c 0,34,35
 340 515 340 515 300 475 c 0,36,37
 208 387 208 387 185.5 364.5 c 128,-1,38
 163 342 163 342 148 325 c 0,39,40
 146 322 146 322 142 316 c 1,41,42
 149 307 149 307 164 289 c 0,43,44
 211 240 211 240 215 235 c 0,45,46
 249 197 249 197 285 150 c 1,47,-1
 285 149 l 1,48,49
 289 145 289 145 304 135 c 0,50,51
 311 129 311 129 314 126 c 0,52,53
 318 123 318 123 320 122 c 0,0,1
EndSplineSet
Substitution2: "'rtla' Right to Left Alternates lookup 0 subtable" greater
EndChar

StartChar: equal
Encoding: 61 61 32
AltUni2: 00ff1d.ffffffff.0 00fe66.ffffffff.0 00208c.ffffffff.0 00207c.ffffffff.0 00ff1d.ffffffff.0 00fe66.ffffffff.0 00208c.ffffffff.0 00207c.ffffffff.0
Width: 546
GlyphClass: 1
Flags: W
LayerCount: 2
Fore
SplineSet
549 369 m 0,0,1
 549 349 549 349 534.5 333 c 128,-1,2
 520 317 520 317 498 316 c 1,3,-1
 498 316 l 1,4,5
 298 308 298 308 118 315 c 1,6,-1
 118 315 l 1,7,8
 96 316 96 316 81 332 c 128,-1,9
 66 348 66 348 66 370 c 0,10,11
 67 393 67 393 83 408 c 128,-1,12
 99 423 99 423 119 423 c 0,13,14
 121 423 121 423 123 423 c 0,15,16
 297 416 297 416 492 424 c 0,17,18
 495 424 495 424 496 424 c 0,19,20
 516 424 516 424 532 410 c 0,21,22
 549 394 549 394 549 369 c 0,0,1
498 227 m 0,23,24
 518 227 518 227 533 212.5 c 128,-1,25
 548 198 548 198 551 176 c 0,26,27
 551 174 551 174 551 172 c 0,28,29
 551 152 551 152 536.5 136 c 128,-1,30
 522 120 522 120 500 119 c 0,31,32
 388 113 388 113 127 108 c 0,33,34
 125 108 125 108 123 108 c 0,35,36
 102 108 102 108 86.5 123.5 c 128,-1,37
 71 139 71 139 71 161 c 128,-1,38
 71 183 71 183 86 199 c 0,39,40
 102 215 102 215 124 216 c 0,41,42
 384 221 384 221 494 227 c 0,43,44
 496 227 496 227 498 227 c 0,23,24
EndSplineSet
EndChar

StartChar: greater
Encoding: 62 62 33
AltUni2: 00ff1e.ffffffff.0 00fe65.ffffffff.0 003009.ffffffff.0 00232a.ffffffff.0 00203a.ffffffff.0 00ff1e.ffffffff.0 00fe65.ffffffff.0 003009.ffffffff.0 00232a.ffffffff.0 00203a.ffffffff.0
Width: 361
GlyphClass: 1
Flags: W
LayerCount: 2
Fore
SplineSet
79 647 m 0,0,1
 104 647 104 647 120 629 c 0,2,3
 174 568 174 568 220 520 c 0,4,5
 261 479 261 479 291 444 c 0,6,7
 326 407 326 407 338 390 c 0,8,9
 366 350 366 350 366 317 c 0,10,11
 366 291 366 291 354 268 c 0,12,13
 340 243 340 243 318 218 c 2,14,-1
 310 209 l 2,15,16
 301 197 301 197 289.5 183.5 c 128,-1,17
 278 170 278 170 273 164 c 0,18,19
 243 129 243 129 213 86 c 0,20,21
 203 72 203 72 178 51 c 0,22,23
 171 44 171 44 166 40 c 1,24,25
 165 26 165 26 159 16 c 0,26,27
 151 1 151 1 133 -6 c 0,28,29
 112 -15 112 -15 92 -6 c 0,30,31
 71 3 71 3 62 23 c 0,32,33
 57 37 57 37 57 53 c 128,-1,34
 57 69 57 69 67 87 c 0,35,36
 76 105 76 105 93 119 c 0,37,38
 99 125 99 125 109 134 c 0,39,40
 122 144 122 144 126 149 c 0,41,42
 164 202 164 202 201 246 c 0,43,44
 235 288 235 288 235 288 c 2,45,46
 254 310 254 310 257 316 c 1,47,48
 254 321 254 321 251 327 c 0,49,50
 239 343 239 343 212 371 c 1,51,-1
 212 371 l 1,52,53
 182 406 182 406 142 446 c 0,54,55
 118 471 118 471 40 557 c 0,56,57
 26 572 26 572 26 592 c 0,58,59
 26 617 26 617 44 633 c 0,60,61
 59 647 59 647 79 647 c 0,0,1
EndSplineSet
Substitution2: "'rtla' Right to Left Alternates lookup 0 subtable" less
EndChar

StartChar: question
Encoding: 63 63 34
AltUni2: 00ff1f.ffffffff.0 00fe56.ffffffff.0 00fe16.ffffffff.0 00ff1f.ffffffff.0 00fe56.ffffffff.0 00fe16.ffffffff.0
Width: 464
GlyphClass: 1
Flags: W
LayerCount: 2
Fore
SplineSet
227 84 m 0,0,1
 245 95 245 95 263 95 c 0,2,3
 280 95 280 95 294 89 c 0,4,5
 322 77 322 77 335 50 c 0,6,7
 342 36 342 36 342 22 c 0,8,9
 342 21 342 21 342 21 c 2,10,11
 342 5 342 5 333 -11 c 0,12,13
 319 -40 319 -40 279 -58 c 0,14,15
 255 -69 255 -69 236 -69 c 0,16,17
 216 -69 216 -69 202 -62 c 0,18,19
 168 -44 168 -44 168 -10 c 0,20,21
 168 20 168 20 191 48 c 0,22,23
 198 57 198 57 203 61 c 0,24,25
 214 75 214 75 227 84 c 0,0,1
75 494 m 0,26,27
 75 497 75 497 75 501 c 0,28,29
 82 565 82 565 133 620 c 0,30,31
 180 670 180 670 240 694 c 0,32,33
 283 711 283 711 320 711 c 0,34,35
 345 711 345 711 368 703 c 0,36,37
 440 681 440 681 463 599 c 0,38,39
 469 573 469 573 469 547 c 0,40,41
 469 478 469 478 424 399 c 0,42,43
 415 382 415 382 391 343.5 c 128,-1,44
 367 305 367 305 363 296 c 0,45,46
 344 262 344 262 337 235 c 0,47,48
 336 231 336 231 335 228.5 c 128,-1,49
 334 226 334 226 333 220 c 2,50,-1
 328 198 l 1,51,-1
 327 197 l 2,52,53
 326 194 326 194 325 190 c 0,54,55
 321 175 321 175 317 170 c 0,56,57
 301 144 301 144 270 140 c 1,58,-1
 269 140 l 2,59,60
 243 140 243 140 228 158 c 0,61,62
 222 164 222 164 216 175 c 0,63,64
 211 191 211 191 211 213.5 c 128,-1,65
 211 236 211 236 230 253 c 1,66,-1
 233 268 l 2,67,68
 243 304 243 304 269 348 c 0,69,70
 278 365 278 365 300 402 c 0,71,72
 341 469 341 469 351 496 c 128,-1,73
 361 523 361 523 361 546 c 0,74,75
 361 559 361 559 357 571 c 0,76,77
 351 595 351 595 335 601 c 0,78,79
 328 603 328 603 320 603 c 0,80,81
 302 603 302 603 280 594 c 0,82,83
 242 578 242 578 214 548 c 128,-1,84
 186 518 186 518 183 490 c 0,85,86
 181 467 181 467 163 453 c 0,87,88
 148 441 148 441 130 441 c 0,89,90
 103 441 103 441 87 461 c 0,91,92
 75 476 75 476 75 494 c 0,26,27
EndSplineSet
EndChar

StartChar: at
Encoding: 64 64 35
AltUni2: 00ff20.ffffffff.0 00fe6b.ffffffff.0 00ff20.ffffffff.0 00fe6b.ffffffff.0
Width: 537
GlyphClass: 1
Flags: W
LayerCount: 2
Fore
SplineSet
302 265 m 1,0,1
 308 269 308 269 313 275 c 0,2,3
 315 277 315 277 316 277 c 0,4,5
 324 289 324 289 325 318 c 0,6,7
 326 344 326 344 329 365 c 0,8,9
 334 389 334 389 342 411 c 1,10,11
 331 419 331 419 326 420 c 0,12,13
 323 420 323 420 321 418 c 0,14,15
 300 400 300 400 295 344 c 0,16,17
 289 293 289 293 302 265 c 1,0,1
437 311 m 1,18,19
 437 312 437 312 438 313 c 0,20,21
 443 328 443 328 446 368 c 0,22,23
 449 422 449 422 449 442 c 0,24,25
 448 474 448 474 438 510 c 0,26,27
 428 539 428 539 387 559 c 0,28,29
 345 579 345 579 307 572 c 0,30,31
 287 568 287 568 280 565 c 0,32,33
 278 565 278 565 273 562 c 0,34,35
 270 559 270 559 264 552 c 0,36,37
 250 538 250 538 242 531 c 0,38,39
 176 467 176 467 159 386 c 0,40,41
 143 313 143 313 172 243 c 128,-1,42
 201 173 201 173 264 132 c 0,43,44
 335 87 335 87 423 88 c 0,45,46
 439 89 439 89 450.5 77.5 c 128,-1,47
 462 66 462 66 463 50 c 0,48,49
 463 34 463 34 452 22.5 c 128,-1,50
 441 11 441 11 424 10 c 0,51,52
 310 8 310 8 222 67 c 0,53,54
 139 120 139 120 100 213 c 0,55,56
 62 303 62 303 82 402 c 0,57,58
 105 505 105 505 188 587 c 0,59,60
 198 595 198 595 207 606 c 0,61,62
 210 609 210 609 212.5 611.5 c 128,-1,63
 215 614 215 614 216 615.5 c 128,-1,64
 217 617 217 617 219 618.5 c 128,-1,65
 221 620 221 620 222 621 c 0,66,67
 234 632 234 632 257 640 c 0,68,69
 260 641 260 641 271 643.5 c 128,-1,70
 282 646 282 646 291 648 c 0,71,72
 352 662 352 662 421 629 c 0,73,74
 493 593 493 593 512 533 c 0,75,76
 524 494 524 494 526 445 c 0,77,78
 527 422 527 422 524 362 c 0,79,80
 518 273 518 273 485 241 c 0,81,82
 460 219 460 219 429 225 c 0,83,84
 408 229 408 229 389 248 c 1,85,86
 381 234 381 234 376 228 c 0,87,88
 375 227 375 227 373 224.5 c 128,-1,89
 371 222 371 222 370 221 c 0,90,91
 333 184 333 184 300 184 c 0,92,93
 260 183 260 183 238 221 c 0,94,95
 209 269 209 269 217 351 c 0,96,97
 225 438 225 438 270 477 c 0,98,99
 301 505 301 505 343 496 c 0,100,101
 380 487 380 487 416 448 c 0,102,103
 436 427 436 427 422 403 c 0,104,105
 422 402 422 402 421.5 399.5 c 128,-1,106
 421 397 421 397 420 396 c 0,107,108
 412 380 412 380 420 349 c 0,109,110
 427 326 427 326 437 311 c 1,18,19
EndSplineSet
EndChar

StartChar: A
Encoding: 65 65 36
AltUni2: 00ff21.ffffffff.0 001d2c.ffffffff.0 0013aa.ffffffff.0 000410.ffffffff.0 000391.ffffffff.0 00ff21.ffffffff.0 001d2c.ffffffff.0 0013aa.ffffffff.0 000410.ffffffff.0 000391.ffffffff.0
Width: 496
GlyphClass: 1
Flags: W
LayerCount: 2
Fore
SplineSet
350 656 m 1,0,1
 303 617 303 617 262 549 c 0,2,3
 213 469 213 469 183 368 c 0,4,5
 169 320 169 320 162 272 c 1,6,7
 205 289 205 289 244 309 c 0,8,9
 310 342 310 342 377 387 c 1,10,11
 378 436 378 436 378 451 c 0,12,13
 378 526 378 526 373 572 c 1,14,15
 373 570 373 570 373 572 c 1,16,17
 368 626 368 626 350 656 c 1,0,1
56 141 m 0,18,19
 56 260 56 260 89 391 c 0,20,21
 119 506 119 506 167 598 c 1,22,23
 223 691 223 691 295 741 c 0,24,25
 319 756 319 756 358 756 c 0,26,27
 364 756 364 756 370 755 c 0,28,29
 391 754 391 754 407 743 c 0,30,31
 455 696 455 696 468 581 c 0,32,33
 473 529 473 529 473 444 c 0,34,35
 473 363 473 363 471 343 c 0,36,37
 470 281 470 281 470 243 c 0,38,39
 470 211 470 211 471 190 c 0,40,41
 473 112 473 112 483 79 c 0,42,43
 485 70 485 70 485 62 c 0,44,45
 485 53 485 53 479 46 c 0,46,47
 469 34 469 34 450 30 c 0,48,49
 444 29 444 29 434.5 29 c 128,-1,50
 425 29 425 29 414 33 c 0,51,52
 397 40 397 40 392 53 c 0,53,54
 377 105 377 105 376 187 c 0,55,56
 375 201 375 201 375 214 c 0,57,58
 375 232 375 232 376 268 c 1,59,60
 328 249 328 249 302 240 c 0,61,62
 218 200 218 200 152 179 c 1,63,64
 151 148 151 148 151 138 c 0,65,66
 151 65 151 65 167 15 c 0,67,68
 170 6 170 6 170 -6 c 0,69,70
 170 -12 170 -12 164 -18 c 0,71,72
 154 -30 154 -30 135 -34 c 0,73,74
 128 -36 128 -36 119 -36 c 128,-1,75
 110 -36 110 -36 100 -32 c 0,76,77
 83 -26 83 -26 77 -13 c 0,78,79
 56 52 56 52 56 141 c 0,18,19
EndSplineSet
EndChar

StartChar: B
Encoding: 66 66 37
AltUni2: 00ff22.ffffffff.0 00212c.ffffffff.0 001d2e.ffffffff.0 0013f4.ffffffff.0 000412.ffffffff.0 000392.ffffffff.0 00ff22.ffffffff.0 00212c.ffffffff.0 001d2e.ffffffff.0 0013f4.ffffffff.0 000412.ffffffff.0 000392.ffffffff.0
Width: 512
GlyphClass: 1
Flags: W
LayerCount: 2
Fore
SplineSet
319 509 m 0,0,1
 342 534 342 534 342 557 c 0,2,3
 342 566 342 566 339 575 c 0,4,5
 326 608 326 608 280 631 c 0,6,7
 238 650 238 650 192 650 c 0,8,9
 178 650 178 650 175 649 c 0,10,11
 170 540 170 540 169 423 c 1,12,13
 177 426 177 426 183.5 428.5 c 128,-1,14
 190 431 190 431 193 431 c 0,15,16
 216 439 216 439 244 450 c 0,17,18
 272 462 272 462 288 476 c 128,-1,19
 304 490 304 490 319 509 c 0,0,1
358 108 m 0,20,21
 385 134 385 134 385 167 c 0,22,23
 385 204 385 204 348 245 c 0,24,25
 308 285 308 285 255 303 c 0,26,27
 222 313 222 313 194 313 c 0,28,29
 181 313 181 313 169 311 c 1,30,31
 169 199 169 199 173 111 c 0,32,33
 174 103 174 103 174 88 c 0,34,35
 175 74 175 74 175 56 c 1,36,37
 182 58 182 58 189 59 c 0,38,39
 212 64 212 64 218 64 c 0,40,41
 327 82 327 82 358 108 c 0,20,21
66 151 m 1,42,43
 60 378 60 378 67 585 c 1,44,45
 56 578 56 578 40 578 c 128,-1,46
 24 578 24 578 11 590 c 0,47,48
 -6 603 -6 603 -6 626 c 0,49,50
 -6 642 -6 642 5 656 c 0,51,52
 66 723 66 723 161 731 c 0,53,54
 188 733 188 733 192.5 733 c 128,-1,55
 197 733 197 733 197 733 c 2,56,57
 268 733 268 733 333 704 c 1,58,59
 412 663 412 663 435 598 c 0,60,61
 443 573 443 573 443 550 c 0,62,63
 443 496 443 496 402 445 c 0,64,65
 379 417 379 417 366 405 c 0,66,67
 348 390 348 390 329 380 c 1,68,69
 384 355 384 355 422 313 c 0,70,71
 484 246 484 246 484 174.5 c 128,-1,72
 484 103 484 103 426 50 c 0,73,74
 399 24 399 24 342 5 c 0,75,76
 308 -5 308 -5 236 -18 c 1,77,-1
 234 -18 l 2,78,79
 232 -18 232 -18 228 -19 c 0,80,81
 188 -26 188 -26 183 -27 c 0,82,83
 120 -38 120 -38 103 -43 c 0,84,85
 83 -50 83 -50 65 -41 c 128,-1,86
 47 -32 47 -32 41 -12 c 0,87,88
 34 7 34 7 42 23.5 c 128,-1,89
 50 40 50 40 66 46 c 1,90,91
 67 53 67 53 69 59 c 0,92,93
 69 62 69 62 68.5 85 c 128,-1,94
 68 108 68 108 67 115 c 0,95,96
 67 125 67 125 67 117 c 1,97,98
 67 131 67 131 67 128 c 1,99,100
 67 131 67 131 67 133 c 0,101,102
 67 142 67 142 66 134 c 1,103,104
 66 145 66 145 66 138 c 1,105,106
 66 153 66 153 66 151 c 1,42,43
EndSplineSet
EndChar

StartChar: C
Encoding: 67 67 38
AltUni2: 00ff23.ffffffff.0 00a7f2.ffffffff.0 00216d.ffffffff.0 00212d.ffffffff.0 002102.ffffffff.0 0013df.ffffffff.0 000421.ffffffff.0 00ff23.ffffffff.0 00a7f2.ffffffff.0 00216d.ffffffff.0 00212d.ffffffff.0 002102.ffffffff.0 0013df.ffffffff.0 000421.ffffffff.0
Width: 561
GlyphClass: 1
Flags: W
LayerCount: 2
Fore
SplineSet
65 103 m 0,0,1
 62 120 62 120 62 149 c 0,2,3
 62 179 62 179 70 227 c 0,4,5
 94 360 94 360 166 506 c 1,6,7
 250 662 250 662 341 725 c 0,8,9
 391 757 391 757 438 757 c 0,10,11
 449 757 449 757 460 755 c 0,12,13
 516 743 516 743 547 675 c 0,14,15
 550 669 550 669 550 663 c 0,16,17
 550 651 550 651 546 638 c 0,18,19
 538 614 538 614 520 605 c 0,20,21
 511 600 511 600 502 600 c 128,-1,22
 493 600 493 600 484 605 c 0,23,24
 465 615 465 615 458 641 c 0,25,26
 452 653 452 653 443 662 c 0,27,28
 439 662 439 662 436 662 c 0,29,30
 427 662 427 662 409 651 c 0,31,32
 338 605 338 605 262 472 c 0,33,34
 187 335 187 335 164 211 c 0,35,36
 157 173 157 173 157 142 c 0,37,38
 157 130 157 130 159 118 c 0,39,40
 163 108 163 108 167 105 c 0,41,42
 196 94 196 94 240 94 c 0,43,44
 262 94 262 94 288 97 c 1,45,46
 288 119 288 119 288 97 c 1,47,48
 322 101 322 101 380 115 c 1,49,-1
 381 115 l 2,50,51
 383 115 383 115 384 115 c 0,52,53
 386 116 386 116 389 117 c 0,54,55
 394 118 394 118 409 121 c 0,56,57
 423 124 423 124 434 126 c 0,58,59
 444 129 444 129 450 129 c 0,60,61
 463 129 463 129 474 120 c 0,62,63
 491 106 491 106 496 81 c 0,64,65
 497 73 497 73 497 66 c 0,66,67
 497 57 497 57 490 50 c 0,68,69
 480 38 480 38 459 35 c 0,70,71
 447 32 447 32 438 30 c 0,72,73
 427 27 427 27 420 25 c 2,74,-1
 418 25 l 1,75,76
 418 105 418 105 417 23 c 1,77,78
 416 24 416 24 415 23 c 2,79,-1
 408 23 l 2,80,81
 405 22 405 22 403 22 c 0,82,83
 302 -1 302 -1 236 -1 c 0,84,85
 172 -1 172 -1 125 20 c 0,86,87
 76 41 76 41 65 103 c 0,0,1
EndSplineSet
EndChar

StartChar: D
Encoding: 68 68 39
AltUni2: 00ff24.ffffffff.0 00216e.ffffffff.0 002145.ffffffff.0 001d30.ffffffff.0 0013a0.ffffffff.0 00ff24.ffffffff.0 00216e.ffffffff.0 002145.ffffffff.0 001d30.ffffffff.0 0013a0.ffffffff.0
Width: 658
GlyphClass: 1
Flags: W
LayerCount: 2
Fore
SplineSet
527 420 m 0,0,1
 538 460 538 460 538 490 c 0,2,3
 538 517 538 517 531 540 c 0,4,5
 513 593 513 593 444 627 c 0,6,7
 416 641 416 641 350 647 c 0,8,9
 313 651 313 651 281.5 651 c 128,-1,10
 250 651 250 651 225 649 c 1,11,12
 197 506 197 506 173 299 c 0,13,14
 161 175 161 175 161 99 c 0,15,16
 161 93 161 93 161 87 c 1,17,-1
 161 87 l 1,18,19
 161 69 161 69 163 56 c 1,20,21
 306 117 306 117 375 186 c 1,22,23
 425 230 425 230 462 284 c 1,24,-1
 462 285 l 1,25,26
 510 356 510 356 527 420 c 0,0,1
64 18 m 1,27,28
 58 55 58 55 58 118 c 0,29,30
 58 190 58 190 71 309 c 0,31,32
 87 471 87 471 114 628 c 1,33,34
 103 625 103 625 100 622 c 1,35,36
 100 622 100 622 103 620 c 0,37,38
 105 617 105 617 105 611 c 0,39,40
 105 599 105 599 102 588 c 0,41,42
 95 564 95 564 76 552 c 0,43,44
 66 546 66 546 56.5 546 c 128,-1,45
 47 546 47 546 39 550 c 0,46,47
 19 559 19 559 11 584 c 0,48,49
 1 611 1 611 1 636 c 0,50,51
 1 648 1 648 5 659 c 0,52,53
 17 689 17 689 54 708 c 0,54,55
 106 737 106 737 196 745 c 0,56,57
 236 749 236 749 278.5 749 c 128,-1,58
 321 749 321 749 366 744 c 0,59,60
 452 735 452 735 498 711 c 0,61,62
 595 658 595 658 624 569 c 0,63,64
 636 533 636 533 636 491 c 0,65,66
 636 378 636 378 550 241 c 0,67,68
 505 169 505 169 453 119 c 0,69,70
 356 23 356 23 169 -49 c 1,71,72
 156 -61 156 -61 138 -61 c 0,73,74
 136 -61 136 -61 135 -61 c 0,75,76
 80 -82 80 -82 34 -94 c 0,77,78
 14 -98 14 -98 -4 -91 c 0,79,80
 -22 -83 -22 -83 -27 -69 c 0,81,82
 -29 -65 -29 -65 -29 -60 c 0,83,84
 -29 -43 -29 -43 -22 -29 c 0,85,86
 -11 -6 -11 -6 8 1 c 0,87,88
 34 8 34 8 64 18 c 1,27,28
EndSplineSet
EndChar

StartChar: E
Encoding: 69 69 40
AltUni2: 00ff25.ffffffff.0 002130.ffffffff.0 001d31.ffffffff.0 0013ac.ffffffff.0 000415.ffffffff.0 000395.ffffffff.0 00ff25.ffffffff.0 002130.ffffffff.0 001d31.ffffffff.0 0013ac.ffffffff.0 000415.ffffffff.0 000395.ffffffff.0
Width: 565
GlyphClass: 1
Flags: W
LayerCount: 2
Fore
SplineSet
101.5 507 m 128,-1,1
 105 518 105 518 107 524 c 1,2,3
 86 536 86 536 86 561 c 0,4,5
 86 564 86 564 87 568 c 0,6,7
 95 629 95 629 154 675 c 0,8,9
 201 709 201 709 278 730 c 0,10,11
 384 762 384 762 515 765 c 0,12,13
 518 765 518 765 519 765 c 0,14,15
 537 765 537 765 551 752 c 0,16,17
 565 740 565 740 567 720 c 0,18,19
 567 707 567 707 567 719 c 1,20,21
 567 700 567 700 553 686 c 0,22,23
 538 672 538 672 518 671 c 0,24,25
 408 670 408 670 312 643 c 0,26,27
 285 636 285 636 265 628 c 1,28,29
 230 566 230 566 191 448 c 1,30,31
 267 480 267 480 362 496 c 0,32,33
 366 497 366 497 371 497 c 0,34,35
 387 497 387 497 402 488 c 0,36,37
 420 478 420 478 425 459 c 0,38,39
 426 454 426 454 426 448 c 0,40,41
 426 435 426 435 417 423 c 0,42,43
 404 407 404 407 382 403 c 0,44,45
 247 379 247 379 159 325 c 1,46,47
 150 271 150 271 149 237 c 1,48,49
 149 246 149 246 149 237 c 1,50,51
 148 224 148 224 148 213 c 0,52,53
 148 122 148 122 186 82 c 0,54,55
 205 61 205 61 238 54 c 0,56,57
 252 52 252 52 268 52 c 0,58,59
 302 52 302 52 345 63 c 0,60,61
 352 64 352 64 359 64 c 0,62,63
 373 64 373 64 386 58 c 0,64,65
 406 47 406 47 412 27 c 0,66,67
 413 21 413 21 413 15 c 0,68,69
 413 2 413 2 406 -10 c 0,70,71
 395 -28 395 -28 373 -33 c 0,72,73
 292 -46 292 -46 271 -46 c 0,74,75
 270 -46 270 -46 269 -46 c 0,76,77
 163 -46 163 -46 104 19 c 0,78,79
 48 84 48 84 48 209 c 0,80,81
 48 235 48 235 50 257 c 1,82,83
 36 260 36 260 26 270 c 0,84,85
 11 284 11 284 11 304 c 128,-1,86
 11 324 11 324 26 337 c 0,87,88
 41 352 41 352 66 372 c 1,89,90
 77 427 77 427 96 489 c 0,91,0
 98 496 98 496 101.5 507 c 128,-1,1
EndSplineSet
EndChar

StartChar: F
Encoding: 70 70 41
AltUni2: 00ff26.ffffffff.0 00a7f3.ffffffff.0 002131.ffffffff.0 00ff26.ffffffff.0 00a7f3.ffffffff.0 002131.ffffffff.0
Width: 591
GlyphClass: 1
Flags: W
LayerCount: 2
Fore
SplineSet
591 699 m 0,0,1
 592 693 592 693 592 688 c 0,2,3
 592 673 592 673 584 661 c 0,4,5
 573 645 573 645 553 641 c 0,6,7
 548 640 548 640 543 640 c 0,8,9
 529 640 529 640 517 648 c 0,10,11
 511 650 511 650 507 650 c 0,12,13
 490 650 490 650 484 650 c 128,-1,14
 478 650 478 650 465 650 c 0,15,16
 422 648 422 648 337 633 c 0,17,18
 248 615 248 615 179 595 c 0,19,20
 179 593 179 593 178 588 c 0,21,22
 177 569 177 569 174 552 c 0,23,24
 169 497 169 497 161 415 c 1,25,26
 271 452 271 452 430 452 c 0,27,28
 452 452 452 452 468 438 c 0,29,30
 483 424 483 424 483 402.5 c 128,-1,31
 483 381 483 381 468 368 c 0,32,33
 452 354 452 354 430 354 c 0,34,35
 249 354 249 354 153 307 c 1,36,37
 148 196 148 196 148 164 c 0,38,39
 148 58 148 58 163 8 c 0,40,41
 164 2 164 2 164 -5 c 0,42,43
 164 -17 164 -17 158 -29 c 0,44,45
 148 -46 148 -46 129 -52 c 0,46,47
 122 -55 122 -55 112 -55 c 128,-1,48
 102 -55 102 -55 91 -48 c 0,49,50
 73 -37 73 -37 68 -18 c 0,51,52
 50 44 50 44 50 161 c 0,53,54
 50 234 50 234 57 328 c 0,55,56
 62 398 62 398 67 471 c 0,57,58
 77 572 77 572 78 583 c 1,59,60
 68 590 68 590 61 603 c 0,61,62
 57 612 57 612 57 621 c 128,-1,63
 57 630 57 630 61 639 c 0,64,65
 68 656 68 656 87 665 c 1,66,67
 103 659 103 659 118 677 c 1,68,69
 196 702 196 702 313 727 c 0,70,71
 418 749 418 749 487 749 c 0,72,73
 542 749 542 749 570 730 c 0,74,75
 586 719 586 719 591 699 c 0,0,1
57 327 m 1024,76,-1
EndSplineSet
EndChar

StartChar: G
Encoding: 71 71 42
AltUni2: 00ff27.ffffffff.0 001d33.ffffffff.0 0013c0.ffffffff.0 00ff27.ffffffff.0 001d33.ffffffff.0 0013c0.ffffffff.0
Width: 538
GlyphClass: 1
Flags: W
LayerCount: 2
Fore
SplineSet
456 38 m 0,0,1
 445 31 445 31 432 31 c 0,2,3
 428 31 428 31 420 32 c 0,4,5
 417 29 417 29 413 28 c 0,6,7
 354 -3 354 -3 298 -3 c 0,8,9
 259 -3 259 -3 220 11 c 0,10,11
 39 81 39 81 39 243 c 0,12,13
 39 377 39 377 160 545 c 1,14,15
 267 674 267 674 377 746 c 0,16,17
 433 786 433 786 469 786 c 0,18,19
 489 786 489 786 503 776 c 0,20,21
 521 764 521 764 526 739 c 0,22,23
 527 733 527 733 527 725 c 0,24,25
 527 707 527 707 519 686 c 0,26,27
 512 669 512 669 494 662 c 0,28,29
 484 657 484 657 475 657 c 0,30,31
 453 657 453 657 438 673 c 1,32,33
 344 608 344 608 248 493 c 1,34,35
 140 353 140 353 134 250 c 0,36,37
 134 245 134 245 134 240 c 0,38,39
 134 132 134 132 261 84 c 0,40,41
 287 77 287 77 299 77 c 0,42,43
 310 77 310 77 325 81 c 0,44,45
 347 87 347 87 394 116 c 1,46,47
 403 148 403 148 405 154 c 2,48,-1
 405 155 l 1,49,50
 415 196 415 196 421 220 c 0,51,52
 429 257 429 257 431 278 c 1,53,54
 412 274 412 274 380 263 c 0,55,56
 365 260 365 260 362.5 260 c 128,-1,57
 360 260 360 260 360 260 c 2,58,59
 349 260 349 260 338 264 c 0,60,61
 318 272 318 272 310 290 c 0,62,63
 306 299 306 299 306 308 c 128,-1,64
 306 317 306 317 310 326 c 0,65,66
 319 345 319 345 341 351 c 0,67,68
 427 375 427 375 443 375 c 0,69,70
 448 375 448 375 453 375 c 1,71,72
 453 375 453 375 453 375 c 1,73,74
 488 372 488 372 507 349 c 0,75,76
 526 327 526 327 526 289 c 0,77,78
 526 259 526 259 514 206 c 0,79,80
 510 189 510 189 478 66 c 0,81,82
 473 47 473 47 456 38 c 0,0,1
EndSplineSet
EndChar

StartChar: H
Encoding: 72 72 43
AltUni2: 00ff28.ffffffff.0 00210d.ffffffff.0 00210c.ffffffff.0 00210b.ffffffff.0 001d34.ffffffff.0 0013bb.ffffffff.0 00041d.ffffffff.0 000397.ffffffff.0 00ff28.ffffffff.0 00210d.ffffffff.0 00210c.ffffffff.0 00210b.ffffffff.0 001d34.ffffffff.0 0013bb.ffffffff.0 00041d.ffffffff.0 000397.ffffffff.0
Width: 537
GlyphClass: 1
Flags: W
LayerCount: 2
Fore
SplineSet
448 244 m 0,0,1
 448 133 448 133 476 43 c 0,2,3
 479 34 479 34 479 22 c 0,4,5
 479 15 479 15 473 9 c 0,6,7
 463 -4 463 -4 443 -8 c 0,8,9
 436 -9 436 -9 426.5 -9 c 128,-1,10
 417 -9 417 -9 406 -6 c 0,11,12
 385 1 385 1 378 15 c 0,13,14
 342 120 342 120 342 242 c 0,15,16
 342 270 342 270 344 300 c 1,17,18
 288 288 288 288 276 285 c 0,19,20
 209 271 209 271 165 254 c 1,21,22
 143 251 143 251 125 247 c 1,23,24
 123 188 123 188 124 148 c 0,25,26
 127 56 127 56 153 14 c 0,27,28
 161 -1 161 -1 161 -16 c 0,29,30
 161 -22 161 -22 158 -27 c 0,31,32
 151 -40 151 -40 133 -46 c 0,33,34
 115 -54 115 -54 95 -50 c 256,35,36
 75 -46 75 -46 66 -33 c 0,37,38
 31 30 31 30 25 144 c 0,39,40
 25 145 25 145 25 145 c 2,41,42
 25 160 25 160 25 176 c 0,43,44
 25 257 25 257 38 359 c 0,45,46
 48 435 48 435 65 532 c 1,47,48
 65 530 65 530 65 534 c 0,49,50
 67 543 67 543 80 614 c 0,51,52
 92 680 92 680 95 701 c 0,53,54
 98 716 98 716 115 724 c 0,55,56
 128 731 128 731 143 731 c 0,57,58
 171 731 171 731 188 717 c 0,59,60
 198 708 198 708 198 696 c 0,61,62
 198 690 198 690 189 643 c 0,63,64
 180 598 180 598 172 560 c 0,65,66
 165 520 165 520 163 515 c 0,67,68
 145 421 145 421 135 349 c 1,69,70
 183 366 183 366 249 381 c 0,71,72
 280 387 280 387 355 402 c 1,73,74
 375 538 375 538 434 716 c 0,75,76
 442 730 442 730 459 737 c 0,77,78
 469 740 469 740 478.5 740 c 128,-1,79
 488 740 488 740 496 739 c 0,80,81
 516 735 516 735 525 722 c 0,82,83
 530 716 530 716 530 709 c 0,84,85
 530 698 530 698 528 688 c 0,86,87
 471 499 471 499 455 361 c 0,88,89
 448 300 448 300 448 244 c 0,0,1
EndSplineSet
EndChar

StartChar: I
Encoding: 73 73 44
AltUni2: 00ff29.ffffffff.0 002160.ffffffff.0 002111.ffffffff.0 002110.ffffffff.0 001d35.ffffffff.0 0004c0.ffffffff.0 000406.ffffffff.0 000399.ffffffff.0 00ff29.ffffffff.0 002160.ffffffff.0 002111.ffffffff.0 002110.ffffffff.0 001d35.ffffffff.0 0004c0.ffffffff.0 000406.ffffffff.0 000399.ffffffff.0
Width: 232
GlyphClass: 1
Flags: W
LayerCount: 2
Fore
SplineSet
54 116 m 0,0,1
 54 207 54 207 68 384 c 0,2,3
 92 689 92 689 111 734 c 0,4,5
 114 737 114 737 118 739 c 0,6,7
 141 755 141 755 160 755 c 0,8,9
 189 755 189 755 204 711 c 1,10,11
 204 712 204 712 204 712 c 1,12,13
 204 700 204 700 161 349 c 0,14,15
 152 273 152 273 152 17 c 0,16,17
 152 10 152 10 152 7 c 0,18,19
 151 3 151 3 151 1 c 0,20,21
 151 -2 151 -2 145 -14 c 0,22,23
 139 -27 139 -27 133 -30 c 0,24,25
 125 -37 125 -37 114 -37 c 128,-1,26
 103 -37 103 -37 93 -33 c 0,27,28
 84 -26 84 -26 74 -13.5 c 128,-1,29
 64 -1 64 -1 59 27 c 0,30,31
 54 58 54 58 54 116 c 0,0,1
EndSplineSet
EndChar

StartChar: J
Encoding: 74 74 45
AltUni2: 00ff2a.ffffffff.0 001d36.ffffffff.0 0013ab.ffffffff.0 000408.ffffffff.0 00ff2a.ffffffff.0 001d36.ffffffff.0 0013ab.ffffffff.0 000408.ffffffff.0
Width: 501
GlyphClass: 1
Flags: W
LayerCount: 2
Fore
SplineSet
234 72 m 0,0,1
 260 72 260 72 287 92 c 0,2,3
 349 147 349 147 374 281 c 0,4,5
 388 369 388 369 388 478 c 256,6,7
 388 587 388 587 374 716 c 0,8,9
 374 719 374 719 374 723 c 0,10,11
 374 735 374 735 385 746 c 0,12,13
 396 756 396 756 416 758 c 0,14,15
 419 758 419 758 423 758 c 0,16,17
 439 758 439 758 453 749.5 c 128,-1,18
 467 741 467 741 469 727 c 0,19,20
 499 453 499 453 468 265 c 0,21,22
 440 101 440 101 368 25 c 1,23,24
 324 -12 324 -12 271 -23 c 0,25,26
 252 -26 252 -26 233 -26 c 0,27,28
 198 -26 198 -26 165 -14 c 0,29,30
 83 22 83 22 47 135 c 0,31,32
 44 141 44 141 44 148 c 0,33,34
 44 160 44 160 49 174 c 0,35,36
 58 198 58 198 77 207 c 0,37,38
 85 210 85 210 94 210 c 128,-1,39
 103 210 103 210 114 202 c 0,40,41
 131 190 131 190 137 165 c 0,42,43
 161 94 161 94 212 75 c 0,44,45
 223 72 223 72 234 72 c 0,0,1
EndSplineSet
EndChar

StartChar: K
Encoding: 75 75 46
AltUni2: 00ff2b.ffffffff.0 00212a.ffffffff.0 001d37.ffffffff.0 0013e6.ffffffff.0 00041a.ffffffff.0 00039a.ffffffff.0 00ff2b.ffffffff.0 00212a.ffffffff.0 001d37.ffffffff.0 0013e6.ffffffff.0 00041a.ffffffff.0 00039a.ffffffff.0
Width: 550
GlyphClass: 1
Flags: W
LayerCount: 2
Fore
SplineSet
123 622 m 1,0,-1
 123 620 l 1,1,2
 137 701 137 701 141 729 c 0,3,4
 144 742 144 742 158 750 c 0,5,6
 173 759 173 759 192 759 c 0,7,8
 220 759 220 759 237 745 c 0,9,10
 249 736 249 736 249 725 c 0,11,12
 249 721 249 721 248 710 c 0,13,14
 246 700 246 700 227 606 c 0,15,16
 227 598 227 598 224 585 c 256,17,18
 221 572 221 572 220 567 c 0,19,20
 216 542 216 542 212 526 c 0,21,22
 210 515 210 515 209 506 c 1,23,24
 325 651 325 651 458 740 c 0,25,26
 470 747 470 747 485 747 c 0,27,28
 490 747 490 747 495 746 c 0,29,30
 515 744 515 744 527 733 c 0,31,32
 537 723 537 723 537 712 c 0,33,34
 537 680 537 680 517 662 c 0,35,36
 356 550 356 550 230 360 c 1,37,38
 246 340 246 340 280 291 c 0,39,40
 281 289 281 289 285 284 c 0,41,42
 287 282 287 282 296 267 c 1,43,-1
 298 266 l 1,44,45
 354 192 354 192 385 157 c 0,46,47
 431 102 431 102 480 61 c 1,48,49
 497 41 497 41 497 12 c 0,50,51
 497 0 497 0 486 -10 c 0,52,53
 471 -23 471 -23 449 -23 c 0,54,55
 431 -23 431 -23 417 -14 c 0,56,57
 354 30 354 30 295 98 c 0,58,59
 259 140 259 140 203 221 c 0,60,61
 203 227 203 227 202 221 c 1,62,63
 199 240 199 240 196 234 c 1,64,65
 195 246 195 246 194 236 c 1,66,-1
 172 257 l 1,67,68
 172 257 172 257 169 250 c 0,69,70
 166 249 166 249 161 248 c 1,71,72
 151 166 151 166 146 104 c 0,73,74
 144 68 144 68 144 53 c 0,75,76
 144 39 144 39 147 28 c 1,77,78
 163 9 163 9 163 -18 c 0,79,80
 163 -23 163 -23 161 -28 c 0,81,82
 155 -42 155 -42 137 -49 c 0,83,84
 127 -53 127 -53 117 -53 c 0,85,86
 58 -53 58 -53 49 16 c 0,87,88
 39 110 39 110 80 371 c 0,89,90
 88 415 88 415 95 461 c 0,91,92
 99 481 99 481 110 545 c 0,93,94
 115 571 115 571 120 604 c 0,95,96
 123 615 123 615 123 622 c 1,0,-1
EndSplineSet
EndChar

StartChar: L
Encoding: 76 76 47
AltUni2: 00ff2c.ffffffff.0 00216c.ffffffff.0 002112.ffffffff.0 001d38.ffffffff.0 0013de.ffffffff.0 00ff2c.ffffffff.0 00216c.ffffffff.0 002112.ffffffff.0 001d38.ffffffff.0 0013de.ffffffff.0
Width: 525
GlyphClass: 1
Flags: W
LayerCount: 2
Fore
SplineSet
154 145 m 0,0,1
 163 102 163 102 176 82 c 0,2,3
 185 69 185 69 198.5 66.5 c 128,-1,4
 212 64 212 64 229 64 c 0,5,6
 267 64 267 64 338 76 c 0,7,8
 339 76 339 76 341.5 76.5 c 128,-1,9
 344 77 344 77 347 77 c 0,10,11
 389 84 389 84 408 85 c 0,12,13
 437 90 437 90 467 90 c 0,14,15
 488 90 488 90 501 75 c 128,-1,16
 514 60 514 60 514 39.5 c 128,-1,17
 514 19 514 19 500.5 3.5 c 128,-1,18
 487 -12 487 -12 467 -12 c 0,19,20
 431 -12 431 -12 365 -23 c 0,21,22
 360 -25 360 -25 354 -25 c 0,23,24
 295 -33 295 -33 271 -36 c 0,25,26
 251 -37 251 -37 227.5 -37 c 128,-1,27
 204 -37 204 -37 181 -33 c 0,28,29
 127 -26 127 -26 95 25 c 0,30,31
 72 63 72 63 60 123 c 0,32,33
 51 178 51 178 51 255 c 0,34,35
 51 374 51 374 74 562 c 0,36,37
 91 694 91 694 91 703 c 0,38,39
 92 724 92 724 106 737 c 0,40,41
 120 751 120 751 137 751 c 0,42,43
 160 751 160 751 175 733 c 0,44,45
 189 720 189 720 189 703 c 0,46,47
 189 694 189 694 180 628 c 0,48,49
 173 570 173 570 166 526 c 0,50,51
 156 443 156 443 150 366 c 0,52,53
 141 226 141 226 154 145 c 0,0,1
EndSplineSet
EndChar

StartChar: M
Encoding: 77 77 48
AltUni2: 00ff2d.ffffffff.0 00216f.ffffffff.0 002133.ffffffff.0 001d39.ffffffff.0 0013b7.ffffffff.0 00041c.ffffffff.0 00039c.ffffffff.0 00ff2d.ffffffff.0 00216f.ffffffff.0 002133.ffffffff.0 001d39.ffffffff.0 0013b7.ffffffff.0 00041c.ffffffff.0 00039c.ffffffff.0
Width: 742
GlyphClass: 1
Flags: W
LayerCount: 2
Fore
SplineSet
215 714 m 1,0,1
 219 720 219 720 219 724 c 2,2,-1
 219 730 l 2,3,4
 219 733 219 733 216 742 c 0,5,6
 209 758 209 758 192 763 c 0,7,8
 185 765 185 765 177.5 765 c 128,-1,9
 170 765 170 765 160.5 760 c 128,-1,10
 151 755 151 755 149 752 c 0,11,12
 147 750 147 750 144 748 c 0,13,14
 138 737 138 737 137 730 c 0,15,16
 135 726 135 726 133 721 c 0,17,18
 72 580 72 580 52 487 c 0,19,20
 25 361 25 361 25 279 c 0,21,22
 25 257 25 257 27 235 c 0,23,24
 31 205 31 205 36 179.5 c 128,-1,25
 41 154 41 154 43 141 c 128,-1,26
 45 128 45 128 47 119 c 0,27,28
 50 110 50 110 50 105 c 0,29,30
 51 97 51 97 54 85 c 0,31,32
 58 65 58 65 71 -14 c 0,33,34
 74 -20 74 -20 77 -23 c 0,35,36
 84 -30 84 -30 94 -38 c 0,37,38
 103 -46 103 -46 112 -46 c 0,39,40
 113 -46 113 -46 114 -46 c 0,41,42
 131 -44 131 -44 140.5 -33 c 128,-1,43
 150 -22 150 -22 150 -9 c 0,44,45
 150 -8 150 -8 150 -7 c 0,46,47
 144 37 144 37 131 104 c 128,-1,48
 118 171 118 171 115.5 184.5 c 128,-1,49
 113 198 113 198 107 240 c 0,50,51
 105 262 105 262 105 281 c 0,52,53
 105 358 105 358 130 471 c 0,54,55
 139 512 139 512 165 586 c 1,56,57
 182 518 182 518 186 490 c 0,58,59
 197 390 197 390 214 317 c 0,60,61
 240 217 240 217 292 137 c 0,62,63
 303 120 303 120 325 111 c 0,64,65
 344 107 344 107 349 107 c 1,66,67
 349 105 349 105 349 107 c 1,68,69
 353 107 353 107 356 107 c 0,70,71
 372 107 372 107 385 117 c 0,72,73
 395 125 395 125 398 133 c 0,74,75
 401 137 401 137 402 143 c 0,76,77
 405 154 405 154 409 165 c 0,78,79
 414 187 414 187 427 261 c 0,80,81
 445 358 445 358 459 421 c 0,82,83
 494 568 494 568 518 618 c 0,84,85
 522 626 522 626 529 644 c 1,86,-1
 529 627 l 2,87,88
 529 606 529 606 531 589 c 0,89,90
 536 523 536 523 543 491 c 1,91,-1
 543 491 l 1,92,93
 543 485 543 485 544 479 c 1,94,-1
 544 479 l 1,95,-1
 544 475 l 1,96,-1
 546 472 l 1,97,-1
 546 471 l 2,98,99
 546 470 546 470 546 468 c 0,100,101
 548 464 548 464 552 430 c 0,102,103
 555 417 555 417 559 361 c 1,104,-1
 559 361 l 1,105,106
 559 335 559 335 563 295 c 0,107,108
 568 229 568 229 568 221 c 0,109,110
 576 143 576 143 588 85 c 0,111,112
 606 10 606 10 636 -18 c 0,113,114
 648 -30 648 -30 664.5 -30 c 128,-1,115
 681 -30 681 -30 693 -21 c 0,116,117
 706 -11 706 -11 706 4 c 0,118,119
 706 17 706 17 696 26 c 0,120,121
 678 41 678 41 666 97 c 0,122,123
 653 154 653 154 648 227 c 1,124,-1
 648 227 l 1,125,126
 648 238 648 238 643.5 289.5 c 128,-1,127
 639 341 639 341 639 364 c 0,128,129
 635 426 635 426 633 436 c 128,-1,130
 631 446 631 446 629 457 c 2,131,-1
 625 475 l 2,132,133
 625 479 625 479 624 482 c 2,134,-1
 624 489 l 2,135,136
 621 499 621 499 620.5 505 c 128,-1,137
 620 511 620 511 617 523 c 0,138,139
 615 535 615 535 613 554 c 0,140,141
 612 574 612 574 611 592 c 0,142,143
 608 606 608 606 608 637 c 2,144,-1
 608 645 l 2,145,146
 608 657 608 657 607 673 c 0,147,148
 607 688 607 688 602 708 c 0,149,150
 598 720 598 720 590 730 c 0,151,152
 577 746 577 746 556 746 c 0,153,154
 551 746 551 746 545 745 c 0,155,156
 507 739 507 739 479 701 c 0,157,158
 460 675 460 675 439 629 c 0,159,160
 410 561 410 561 382 433 c 0,161,162
 381 424 381 424 361 331 c 0,163,164
 357 309 357 309 344 243 c 0,165,166
 342 224 342 224 339 217 c 0,167,168
 338 212 338 212 336 210 c 1,169,170
 306 273 306 273 292 331 c 0,171,172
 276 390 276 390 264 498 c 0,173,174
 258 538 258 538 242 596 c 1,175,176
 242 596 242 596 242 596 c 1,177,178
 242 598 242 598 241 601 c 0,179,180
 224 669 224 669 222.5 679 c 128,-1,181
 221 689 221 689 220 692 c 0,182,183
 220 693 220 693 219 697 c 0,184,185
 218 702 218 702 217 705 c 0,186,187
 216 706 216 706 216 707 c 0,188,189
 216 710 216 710 215 712 c 1,190,-1
 215 711 l 1,191,-1
 215 712 l 1,192,-1
 215 714 l 1,0,1
EndSplineSet
EndChar

StartChar: N
Encoding: 78 78 49
AltUni2: 00ff2e.ffffffff.0 002115.ffffffff.0 001d3a.ffffffff.0 00039d.ffffffff.0 00ff2e.ffffffff.0 002115.ffffffff.0 001d3a.ffffffff.0 00039d.ffffffff.0
Width: 595
GlyphClass: 1
Flags: W
LayerCount: 2
Fore
SplineSet
165 610 m 1,0,1
 159 580 159 580 159 529 c 0,2,3
 159 474 159 474 167 351 c 0,4,5
 169 319 169 319 176 287 c 0,6,7
 180 260 180 260 183 239 c 0,8,9
 190 196 190 196 190 186 c 0,10,11
 192 156 192 156 203 111 c 0,12,13
 220 40 220 40 220 22 c 0,14,15
 220 -3 220 -3 198 -24 c 0,16,17
 179 -40 179 -40 150 -40 c 0,18,19
 135 -40 135 -40 121 -34 c 0,20,21
 106 -25 106 -25 96 -11 c 0,22,23
 82 12 82 12 75 34 c 0,24,25
 47 143 47 143 40 309 c 0,26,27
 37 385 37 385 37 441 c 2,28,-1
 37 443 l 2,29,30
 37 530 37 530 35 563 c 0,31,32
 35 575 35 575 47 583 c 0,33,34
 55 589 55 589 66 592 c 1,35,36
 76 692 76 692 134 724 c 0,37,38
 146 729 146 729 168 729 c 0,39,40
 191 729 191 729 210 717 c 0,41,42
 245 687 245 687 292 580 c 0,43,44
 316 527 316 527 374 359 c 0,45,46
 433 193 433 193 450 164 c 0,47,48
 466 135 466 135 476 116 c 1,49,50
 490 189 490 189 490 334 c 0,51,52
 490 445 490 445 484 547 c 256,53,54
 478 649 478 649 468 714 c 0,55,56
 468 719 468 719 468 724 c 0,57,58
 468 735 468 735 476 743 c 0,59,60
 487 755 487 755 506 757 c 0,61,62
 511 758 511 758 516 758 c 0,63,64
 530 758 530 758 542 753 c 0,65,66
 559 745 559 745 562 731 c 0,67,68
 585 615 585 615 585 374 c 0,69,70
 585 220 585 220 573 118 c 0,71,72
 567 65 567 65 556 43 c 0,73,74
 546 24 546 24 536 15 c 0,75,76
 517 -3 517 -3 490 -3 c 0,77,78
 462 -3 462 -3 437 11 c 0,79,80
 420 22 420 22 404 40 c 0,81,82
 376 74 376 74 354 123 c 0,83,84
 344 146 344 146 310 234 c 0,85,86
 291 281 291 281 265 356 c 0,87,88
 216 497 216 497 195 546 c 0,89,90
 179 583 179 583 165 610 c 1,0,1
EndSplineSet
EndChar

StartChar: O
Encoding: 79 79 50
AltUni2: 00ff2f.ffffffff.0 001d3c.ffffffff.0 000555.ffffffff.0 00041e.ffffffff.0 00039f.ffffffff.0 00ff2f.ffffffff.0 001d3c.ffffffff.0 000555.ffffffff.0 00041e.ffffffff.0 00039f.ffffffff.0
Width: 730
GlyphClass: 1
Flags: W
LayerCount: 2
Fore
SplineSet
133 383 m 0,0,1
 122 332 122 332 122 290 c 0,2,3
 122 220 122 220 155 174 c 0,4,5
 235 68 235 68 314 68 c 0,6,7
 343 68 343 68 374 81 c 0,8,9
 426 105 426 105 474 164.5 c 128,-1,10
 522 224 522 224 554 304 c 0,11,12
 594 405 594 405 594 494 c 0,13,14
 594 546 594 546 579 584 c 0,15,16
 550 655 550 655 466 655 c 0,17,18
 428 655 428 655 378 641 c 0,19,20
 356 635 356 635 337 645 c 0,21,22
 322 653 322 653 314 667 c 1,23,-1
 310 665 l 1,24,25
 270 651 270 651 232 598 c 0,26,27
 159 495 159 495 133 383 c 0,0,1
674 611 m 1,28,29
 695 555 695 555 695 488 c 0,30,31
 695 386 695 386 651 272 c 0,32,33
 614 178 614 178 555 107 c 0,34,35
 494 37 494 37 421 6 c 0,36,37
 368 -18 368 -18 314 -18 c 0,38,39
 276 -18 276 -18 238 -6 c 0,40,41
 145 24 145 24 70 125 c 0,42,43
 20 194 20 194 20 289 c 0,44,45
 20 345 20 345 34 403 c 0,46,47
 64 528 64 528 140 643 c 1,48,49
 197 720 197 720 270 744 c 0,50,51
 302 756 302 756 343 760 c 0,52,53
 364 762 364 762 421 762 c 0,54,55
 451 762 451 762 465 741 c 1,56,57
 517 741 517 741 560 725 c 0,58,59
 639 694 639 694 674 611 c 1,60,61
 674 601 674 601 674 611 c 1,28,29
EndSplineSet
EndChar

StartChar: P
Encoding: 80 80 51
AltUni2: 00ff30.ffffffff.0 002119.ffffffff.0 001d3e.ffffffff.0 0013e2.ffffffff.0 000420.ffffffff.0 0003a1.ffffffff.0 00ff30.ffffffff.0 002119.ffffffff.0 001d3e.ffffffff.0 0013e2.ffffffff.0 000420.ffffffff.0 0003a1.ffffffff.0
Width: 563
GlyphClass: 1
Flags: W
LayerCount: 2
Fore
SplineSet
89 727 m 0,0,1
 100 727 100 727 111 723 c 1,2,3
 214 760 214 760 321 760 c 0,4,5
 350 760 350 760 380 757 c 1,6,7
 380 749 380 749 380 757 c 1,8,9
 545 740 545 740 577 641 c 0,10,11
 585 612 585 612 585 585 c 0,12,13
 585 499 585 499 520 433 c 0,14,15
 463 380 463 380 331 333 c 0,16,17
 313 326 313 326 245 302 c 0,18,19
 176 280 176 280 159 268 c 0,20,21
 142 254 142 254 128 250 c 1,22,23
 133 75 133 75 153 27 c 1,24,25
 167 8 167 8 167 -17 c 0,26,27
 167 -31 167 -31 151 -42 c 0,28,29
 136 -53 136 -53 115 -53 c 0,30,31
 68 -53 68 -53 47 19 c 0,32,33
 27 96 27 96 27 307 c 0,34,35
 27 520 27 520 39 694 c 0,36,37
 40 708 40 708 56 718 c 0,38,39
 71 727 71 727 89 727 c 0,0,1
483 586 m 0,40,41
 483 599 483 599 478 613 c 0,42,43
 468 647 468 647 362 655 c 0,44,45
 339 658 339 658 316 658 c 0,46,47
 228 658 228 658 136 624 c 1,48,49
 131 515 131 515 128 367 c 1,50,51
 164 385 164 385 227 406 c 0,52,53
 291 428 291 428 291 428 c 2,54,55
 406 470 406 470 449 507 c 1,56,57
 483 542 483 542 483 586 c 0,40,41
EndSplineSet
EndChar

StartChar: Q
Encoding: 81 81 52
AltUni2: 00ff31.ffffffff.0 00a7f4.ffffffff.0 00211a.ffffffff.0 00ff31.ffffffff.0 00a7f4.ffffffff.0 00211a.ffffffff.0
Width: 694
GlyphClass: 1
Flags: W
LayerCount: 2
Fore
SplineSet
618 -17 m 0,0,1
 626 -28 626 -28 626 -42 c 0,2,3
 626 -47 626 -47 624 -53 c 0,4,5
 620 -73 620 -73 603 -84 c 0,6,7
 590 -91 590 -91 577 -91 c 0,8,9
 571 -91 571 -91 566 -90 c 0,10,11
 545 -85 545 -85 534 -68 c 0,12,13
 516 -42 516 -42 480 0 c 0,14,15
 479 3 479 3 476 6.5 c 128,-1,16
 473 10 473 10 471 12 c 0,17,18
 408 -20 408 -20 335 -20 c 0,19,20
 172 -20 172 -20 84 117 c 1,21,22
 84 126 84 126 84 117 c 1,23,24
 19 224 19 224 19 364 c 0,25,26
 19 540 19 540 111 652 c 0,27,28
 199 753 199 753 337 753 c 0,29,30
 365 753 365 753 394 749 c 1,31,32
 418 751 418 751 422 751 c 128,-1,33
 426 751 426 751 426 751 c 2,34,35
 540 751 540 751 608 655 c 0,36,37
 672 561 672 561 672 415 c 0,38,39
 672 243 672 243 592 119 c 0,40,41
 576 93 576 93 553 70 c 1,42,43
 555 78 555 78 558 65 c 1,44,45
 560 72 560 72 563 57 c 1,46,47
 563 69 563 69 564 56 c 1,48,49
 596 17 596 17 618 -17 c 0,0,1
574 412 m 0,50,51
 574 424 574 424 574 435 c 0,52,53
 574 553 574 553 524 627 c 0,54,55
 484 683 484 683 423 683 c 0,56,57
 404 683 404 683 389.5 679.5 c 128,-1,58
 375 676 375 676 367 676 c 0,59,60
 352 676 352 676 339 685 c 1,61,62
 250 684 250 684 192 617 c 0,63,64
 124 536 124 536 118 401 c 0,65,66
 118 390 118 390 118 379 c 0,67,68
 118 260 118 260 171 173 c 1,69,70
 261 92 261 92 335 79 c 1,71,72
 374 79 374 79 408 92 c 1,73,74
 379 136 379 136 367 186 c 0,75,76
 366 191 366 191 366 196 c 0,77,78
 366 210 366 210 375 222 c 0,79,80
 390 244 390 244 419 244 c 0,81,82
 435 244 435 244 449 235 c 0,83,84
 467 224 467 224 472 204 c 0,85,86
 475 182 475 182 490 156 c 1,87,88
 568 254 568 254 574 412 c 0,50,51
EndSplineSet
EndChar

StartChar: R
Encoding: 82 82 53
AltUni2: 00ff32.ffffffff.0 00211d.ffffffff.0 00211c.ffffffff.0 00211b.ffffffff.0 001d3f.ffffffff.0 0013a1.ffffffff.0 00ff32.ffffffff.0 00211d.ffffffff.0 00211c.ffffffff.0 00211b.ffffffff.0 001d3f.ffffffff.0 0013a1.ffffffff.0
Width: 577
GlyphClass: 1
Flags: W
LayerCount: 2
Fore
SplineSet
414 578 m 0,0,1
 414 604 414 604 398 621 c 0,2,3
 379 642 379 642 338 650 c 0,4,5
 309 657 309 657 279 657 c 0,6,7
 225 657 225 657 165 636 c 1,8,9
 156 511 156 511 152 379 c 1,10,11
 168 384 168 384 183 387 c 0,12,13
 270 402 270 402 338 450 c 0,14,15
 403 496 403 496 411 548 c 0,16,17
 414 565 414 565 414 578 c 0,0,1
84 703 m 0,18,19
 173 751 173 751 289 751 c 0,20,21
 326 751 326 751 366 742 c 0,22,23
 449 724 449 724 485 670 c 0,24,25
 513 630 513 630 513 576 c 0,26,27
 513 556 513 556 510 535 c 0,28,29
 497 446 497 446 405 376 c 0,30,31
 358 342 358 342 297 319 c 1,32,33
 347 288 347 288 398 244 c 0,34,35
 416 226 416 226 457 179 c 0,36,37
 460 175 460 175 467 167 c 0,38,39
 475 158 475 158 481 150 c 0,40,41
 488 142 488 142 490 139 c 0,42,43
 497 131 497 131 527 79 c 0,44,45
 530 75 530 75 531 70 c 0,46,47
 547 43 547 43 552 34 c 0,48,49
 561 24 561 24 566 1 c 0,50,51
 567 -4 567 -4 567 -14 c 0,52,53
 567 -18 567 -18 565 -19 c 0,54,55
 560 -36 560 -36 538 -43 c 0,56,57
 528 -46 528 -46 518 -46 c 128,-1,58
 508 -46 508 -46 498 -43 c 0,59,60
 481 -35 481 -35 477 -29 c 0,61,62
 476 -27 476 -27 474 -23 c 0,63,64
 472 -20 472 -20 470 -17 c 0,65,66
 459 15 459 15 448 28 c 1,67,68
 448 38 448 38 447 28 c 1,69,70
 447 39 447 39 446 30 c 0,71,72
 445 24 445 24 444 28 c 0,73,74
 431 61 431 61 417 74 c 1,75,76
 417 85 417 85 416 75 c 0,77,78
 416 66 416 66 416 74 c 0,79,80
 407 94 407 94 399 94 c 1,81,82
 378 117 378 117 375 120 c 0,83,84
 346 152 346 152 319 180 c 0,85,86
 271 226 271 226 234 253 c 1,87,88
 184 277 184 277 162 277 c 0,89,90
 160 277 160 277 156.5 276.5 c 128,-1,91
 153 276 153 276 151 276 c 1,92,93
 152 89 152 89 174 40 c 0,94,95
 178 28 178 28 178 16 c 0,96,97
 178 9 178 9 175 3 c 0,98,99
 168 -10 168 -10 149 -14 c 0,100,101
 135 -18 135 -18 132.5 -18 c 128,-1,102
 130 -18 130 -18 130 -18 c 2,103,104
 122 -18 122 -18 113 -16 c 0,105,106
 95 -11 95 -11 86 1 c 0,107,108
 56 71 56 71 56 293 c 0,109,110
 56 315 56 315 56 337 c 0,111,112
 59 509 59 509 69 635 c 0,113,114
 67 639 67 639 65 645 c 0,115,116
 55 663 55 663 61 683 c 0,117,118
 66 696 66 696 84 703 c 0,18,19
EndSplineSet
EndChar

StartChar: S
Encoding: 83 83 54
AltUni2: 00ff33.ffffffff.0 0013da.ffffffff.0 00054f.ffffffff.0 000405.ffffffff.0 00ff33.ffffffff.0 0013da.ffffffff.0 00054f.ffffffff.0 000405.ffffffff.0
Width: 514
GlyphClass: 1
Flags: W
LayerCount: 2
Fore
SplineSet
402 648 m 0,0,1
 377 660 377 660 358 660 c 0,2,3
 353 660 353 660 349 659 c 0,4,5
 332 656 332 656 277 629 c 0,6,7
 181 578 181 578 151 543 c 0,8,9
 142 532 142 532 141 525 c 0,10,11
 140 522 140 522 140 521 c 1,12,13
 140 513 140 513 140 521 c 1,14,15
 154 494 154 494 287 449 c 1,16,17
 288 444 288 444 288 448 c 1,18,19
 335 432 335 432 373 417 c 0,20,21
 416 396 416 396 440 374 c 0,22,23
 483 337 483 337 492 273 c 0,24,25
 494 262 494 262 494 256 c 128,-1,26
 494 250 494 250 494 249 c 0,27,28
 494 211 494 211 477 164 c 128,-1,29
 460 117 460 117 428.5 73 c 128,-1,30
 397 29 397 29 360 7 c 0,31,32
 300 -26 300 -26 193 -30 c 0,33,34
 148 -31 148 -31 142 -31 c 0,35,36
 124 -31 124 -31 113 -31 c 2,37,-1
 86 -31 l 2,38,39
 66 -31 66 -31 52 -16.5 c 128,-1,40
 38 -2 38 -2 38 18.5 c 128,-1,41
 38 39 38 39 52 53.5 c 128,-1,42
 66 68 66 68 86 68 c 2,43,-1
 187 68 l 1,44,45
 267 72 267 72 297 88 c 0,46,47
 321 101 321 101 346.5 132.5 c 128,-1,48
 372 164 372 164 385 199 c 1,49,50
 395 241 395 241 395.5 251 c 128,-1,51
 396 261 396 261 395 266 c 0,52,53
 393 291 393 291 375 308 c 0,54,55
 355 322 355 322 326 334.5 c 128,-1,56
 297 347 297 347 238 367 c 1,57,58
 238 368 238 368 238 367 c 1,59,60
 161 394 161 394 129 412 c 0,61,62
 69 445 69 445 51 486 c 0,63,64
 42 505 42 505 42 526 c 0,65,66
 42 564 42 564 72 602 c 0,67,68
 108 650 108 650 216 711 c 0,69,70
 249 729 249 729 270 737 c 0,71,72
 314 758 314 758 357 758 c 0,73,74
 396 758 396 758 441 738 c 0,75,76
 460 730 460 730 467 711 c 0,77,78
 471 702 471 702 471 692.5 c 128,-1,79
 471 683 471 683 466 673 c 0,80,81
 458 654 458 654 439 647 c 0,82,83
 430 644 430 644 421 644 c 0,84,85
 411 644 411 644 402 648 c 0,0,1
140 530 m 1024,86,-1
EndSplineSet
EndChar

StartChar: T
Encoding: 84 84 55
AltUni2: 00ff34.ffffffff.0 001d40.ffffffff.0 0013a2.ffffffff.0 000422.ffffffff.0 0003a4.ffffffff.0 00ff34.ffffffff.0 001d40.ffffffff.0 0013a2.ffffffff.0 000422.ffffffff.0 0003a4.ffffffff.0
Width: 668
GlyphClass: 1
Flags: W
LayerCount: 2
Fore
SplineSet
234 -36 m 0,0,1
 217 -36 217 -36 203 -30 c 0,2,3
 181 -22 181 -22 181 -11 c 0,4,5
 181 -10 181 -10 248 636 c 1,6,7
 150 626 150 626 100 613 c 0,8,9
 94 611 94 611 88 611 c 0,10,11
 75 611 75 611 63 619 c 0,12,13
 45 632 45 632 40 658 c 0,14,15
 39 664 39 664 39 671 c 0,16,17
 39 680 39 680 47 688 c 0,18,19
 57 698 57 698 78 701 c 0,20,21
 149 717 149 717 284 732 c 0,22,23
 294 733 294 733 323 735.5 c 128,-1,24
 352 738 352 738 378 740 c 0,25,26
 406 743 406 743 437 745 c 1,27,28
 437 738 437 738 437 745 c 1,29,30
 467 747 467 747 486 750 c 128,-1,31
 505 753 505 753 518 754 c 128,-1,32
 531 755 531 755 537 756 c 1,33,34
 538 741 538 741 539 756 c 1,35,36
 542 741 542 741 546 757 c 0,37,38
 549 758 549 758 551.5 758 c 128,-1,39
 554 758 554 758 556 758.5 c 128,-1,40
 558 759 558 759 563 759 c 0,41,42
 580 762 580 762 599.5 763.5 c 128,-1,43
 619 765 619 765 622 765 c 0,44,45
 626 765 626 765 636 762 c 0,46,47
 653 757 653 757 661 748 c 0,48,49
 675 725 675 725 660 702 c 0,50,51
 652 686 652 686 644 681 c 0,52,53
 643 681 643 681 642 681 c 0,54,55
 636 674 636 674 622 673.5 c 128,-1,56
 608 673 608 673 605 672 c 0,57,58
 590 655 590 655 576 668 c 1,59,-1
 567 668 l 2,60,61
 563 667 563 667 552 665 c 1,62,63
 552 650 552 650 551 665 c 1,64,65
 546 651 546 651 540 664 c 1,66,67
 540 646 540 646 540 664 c 1,68,69
 469 655 469 655 354 646 c 1,70,-1
 309 269 l 1,71,72
 290 49 290 49 287 24 c 0,73,74
 280 -21 280 -21 279 -23 c 0,75,76
 278 -24 278 -24 276 -24 c 0,77,78
 259 -36 259 -36 234 -36 c 0,0,1
EndSplineSet
EndChar

StartChar: U
Encoding: 85 85 56
AltUni2: 00ff35.ffffffff.0 001d41.ffffffff.0 00ff35.ffffffff.0 001d41.ffffffff.0
Width: 593
GlyphClass: 1
Flags: W
LayerCount: 2
Fore
SplineSet
493 -10 m 0,0,1
 479 -10 479 -10 467 -5 c 0,2,3
 449 2 449 2 444 16 c 0,4,5
 432 62 432 62 426 113 c 1,6,7
 420 104 420 104 413 95 c 0,8,9
 380 53 380 53 340 25 c 0,10,11
 285 -12 285 -12 228 -12 c 0,12,13
 222 -12 222 -12 216 -11 c 0,14,15
 146 -5 146 -5 103 37 c 0,16,17
 70 73 70 73 50 137 c 0,18,19
 31 203 31 203 31 302 c 0,20,21
 31 344 31 344 34 391 c 0,22,23
 42 509 42 509 66 632 c 0,24,25
 67 647 67 647 71 663 c 0,26,27
 74 679 74 679 82 714 c 0,28,29
 85 728 85 728 101 737 c 0,30,31
 113 743 113 743 128 743 c 0,32,33
 133 743 133 743 139 742 c 0,34,35
 160 738 160 738 172 727 c 0,36,37
 181 718 181 718 181 708 c 0,38,39
 181 703 181 703 178 686 c 0,40,41
 175 670 175 670 172 657 c 0,42,43
 168 633 168 633 164 615 c 0,44,45
 140 497 140 497 132 385 c 0,46,47
 129 341 129 341 129 303 c 0,48,49
 129 217 129 217 145 161 c 0,50,51
 169 90 169 90 227 87 c 0,52,53
 228 87 228 87 228.5 87 c 128,-1,54
 229 87 229 87 230 87 c 0,55,56
 247 87 247 87 272 101 c 0,57,58
 296 117 296 117 322 150 c 0,59,60
 378 221 378 221 406 322 c 1,61,-1
 406 323 l 1,62,63
 419 367 419 367 426 421 c 0,64,65
 433 474 433 474 439 525 c 0,66,67
 447 593 447 593 454 635 c 0,68,69
 463 699 463 699 475 748 c 0,70,71
 479 762 479 762 496 770 c 0,72,73
 509 775 509 775 522 775 c 0,74,75
 528 775 528 775 534 774 c 0,76,77
 553 771 553 771 564 759 c 0,78,79
 572 751 572 751 572 741 c 0,80,81
 572 725 572 725 569 718 c 1,82,83
 569 718 569 718 568 719 c 1,84,85
 570 712 570 712 570 705 c 0,86,87
 565 651 565 651 551 539 c 0,88,89
 550 524 550 524 548 513 c 0,90,91
 546 504 546 504 545 499 c 0,92,93
 522 310 522 310 522 211 c 0,94,95
 522 113 522 113 540 40 c 0,96,97
 542 32 542 32 542 23 c 128,-1,98
 542 14 542 14 535 6 c 0,99,100
 524 -7 524 -7 504 -10 c 0,101,102
 498 -10 498 -10 493 -10 c 0,0,1
EndSplineSet
EndChar

StartChar: V
Encoding: 86 86 57
AltUni2: 00ff36.ffffffff.0 002c7d.ffffffff.0 002164.ffffffff.0 0013d9.ffffffff.0 00ff36.ffffffff.0 002c7d.ffffffff.0 002164.ffffffff.0 0013d9.ffffffff.0
Width: 489
GlyphClass: 1
Flags: W
LayerCount: 2
Fore
SplineSet
347 745 m 0,0,1
 344 755 344 755 344 767 c 0,2,3
 344 774 344 774 349 781 c 0,4,5
 358 793 358 793 377 798 c 0,6,7
 386 800 386 800 395.5 800 c 128,-1,8
 405 800 405 800 416 797 c 0,9,10
 435 791 435 791 441 777 c 0,11,12
 497 610 497 610 439 353 c 0,13,14
 379 89 379 89 239 -20 c 0,15,16
 220 -32 220 -32 191 -36 c 0,17,18
 176 -39 176 -39 160 -37 c 0,19,20
 133 -35 133 -35 119 -24 c 0,21,22
 68 22 68 22 51 143 c 0,23,24
 40 223 40 223 40 371 c 0,25,26
 40 380 40 380 39 392 c 2,27,-1
 39 393 l 2,28,29
 39 493 39 493 36 561 c 0,30,31
 32 628 32 628 19 671 c 0,32,33
 13 689 13 689 23 705 c 0,34,35
 33 717 33 717 52 721 c 0,36,37
 60 723 60 723 69 723 c 128,-1,38
 78 723 78 723 89 719 c 0,39,40
 107 713 107 713 113 699 c 0,41,42
 128 649 128 649 134 560 c 0,43,44
 134 556 134 556 134 559 c 1,45,46
 129 494 129 494 138 394 c 0,47,48
 139 384 139 384 139 378.5 c 128,-1,49
 139 373 139 373 139 371 c 0,50,51
 139 236 139 236 150 156 c 0,52,53
 160 97 160 97 180 67 c 1,54,55
 226 109 226 109 267 181 c 0,56,57
 315 267 315 267 343 373 c 1,58,59
 369 489 369 489 369 588 c 0,60,61
 369 685 369 685 347 745 c 0,0,1
EndSplineSet
EndChar

StartChar: W
Encoding: 87 87 58
AltUni2: 00ff37.ffffffff.0 001d42.ffffffff.0 0013b3.ffffffff.0 00ff37.ffffffff.0 001d42.ffffffff.0 0013b3.ffffffff.0
Width: 792
GlyphClass: 1
Flags: W
LayerCount: 2
Fore
SplineSet
168 664 m 0,0,1
 168 659 168 659 168 654 c 0,2,3
 167 650 167 650 164 637 c 0,4,5
 159 613 159 613 159 609 c 2,6,-1
 159 605 l 1,7,8
 122 407 122 407 122 279 c 0,9,10
 122 201 122 201 136 147 c 0,11,12
 157 81 157 81 200 72 c 0,13,14
 207 71 207 71 213 71 c 0,15,16
 230 71 230 71 244 78 c 0,17,18
 268 95 268 95 288 135 c 0,19,20
 327 220 327 220 342 370 c 0,21,22
 344 383 344 383 346 412 c 0,23,24
 346 416 346 416 345 425 c 0,25,26
 344 452 344 452 344 548 c 2,27,-1
 344 557 l 2,28,29
 344 610 344 610 350 624 c 0,30,31
 355 632 355 632 369 638 c 256,32,33
 383 644 383 644 398.5 644 c 128,-1,34
 414 644 414 644 428 636 c 0,35,36
 440 630 440 630 446 620 c 0,37,38
 447 618 447 618 447 616 c 0,39,40
 448 614 448 614 448 609 c 0,41,42
 451 601 451 601 451 583 c 0,43,44
 451 561 451 561 452 540 c 0,45,46
 452 479 452 479 447 411 c 1,47,48
 448 353 448 353 453 301 c 1,49,-1
 453 301 l 1,50,51
 465 177 465 177 489 110 c 0,52,53
 500 81 500 81 515 69 c 0,54,55
 519 69 519 69 521 69 c 1,56,57
 111 61 111 61 522 69 c 0,58,59
 539 71 539 71 557 86 c 0,60,61
 581 113 581 113 604 173 c 0,62,63
 644 275 644 275 661 435 c 0,64,65
 672 535 672 535 672 620 c 0,66,67
 672 648 672 648 671 674 c 1,68,69
 671 673 671 673 671 674 c 1,70,71
 671 676 671 676 670 679 c 0,72,73
 658 689 658 689 652 706 c 0,74,75
 648 719 648 719 648 731 c 0,76,77
 648 737 648 737 650 742 c 256,78,79
 652 747 652 747 659 758 c 0,80,81
 670 771 670 771 687 776 c 0,82,83
 696 779 696 779 705 779 c 0,84,85
 725 779 725 779 741 767 c 0,86,87
 750 760 750 760 755 750 c 0,88,89
 764 728 764 728 766 678 c 0,90,91
 767 650 767 650 767 620 c 0,92,93
 767 530 767 530 756 424 c 0,94,95
 737 256 737 256 697 141 c 1,96,97
 697 144 697 144 697 141 c 1,98,99
 672 73 672 73 641 33 c 0,100,101
 597 -17 597 -17 539 -25 c 0,102,103
 530 -26 530 -26 521 -26 c 0,104,105
 477 -26 477 -26 441 3 c 0,106,107
 413 30 413 30 393 80 c 0,108,109
 390 87 390 87 385 106 c 1,110,111
 382 100 382 100 381 97 c 0,112,113
 349 33 349 33 306 3 c 0,114,115
 264 -24 264 -24 215 -24 c 0,116,117
 196 -24 196 -24 176 -20 c 0,118,119
 120 -8 120 -8 87 33 c 0,120,121
 57 70 57 70 43 124 c 0,122,123
 27 188 27 188 27 281 c 0,124,125
 27 316 27 316 29 354 c 1,126,-1
 29 354 l 1,127,128
 35 443 35 443 52 554 c 1,129,130
 52 553 52 553 52 554 c 1,131,132
 58 584 58 584 64 619 c 0,133,134
 64 625 64 625 69 645 c 0,135,136
 69 656 69 656 73 668 c 0,137,138
 77 682 77 682 93 690 c 0,139,140
 105 695 105 695 120 695 c 0,141,142
 146 695 146 695 160 681 c 0,143,144
 168 673 168 673 168 664 c 0,0,1
448 613 m 1024,145,-1
EndSplineSet
EndChar

StartChar: X
Encoding: 88 88 59
AltUni2: 00ff38.ffffffff.0 002169.ffffffff.0 000425.ffffffff.0 0003a7.ffffffff.0 00ff38.ffffffff.0 002169.ffffffff.0 000425.ffffffff.0 0003a7.ffffffff.0
Width: 582
GlyphClass: 1
Flags: W
LayerCount: 2
Fore
SplineSet
54 756 m 0,0,1
 70 761 70 761 72.5 761 c 128,-1,2
 75 761 75 761 75 761 c 2,3,4
 84 761 84 761 92 758 c 0,5,6
 111 753 111 753 120 739 c 0,7,8
 137 702 137 702 183 599 c 0,9,10
 215 534 215 534 238 487 c 1,11,12
 299 561 299 561 357 625 c 0,13,14
 422 702 422 702 482 774 c 0,15,16
 496 788 496 788 519 788 c 0,17,18
 537 788 537 788 552 779 c 0,19,20
 570 768 570 768 570 752 c 0,21,22
 570 730 570 730 559 712 c 0,23,24
 556 707 556 707 532 678 c 0,25,26
 509 648 509 648 481 611 c 0,27,28
 452 575 452 575 441 561 c 0,29,30
 343 450 343 450 290 377 c 1,31,32
 343 277 343 277 387 211 c 0,33,34
 464 93 464 93 521 46 c 0,35,36
 539 27 539 27 539 -5 c 0,37,38
 539 -17 539 -17 529 -26 c 0,39,40
 515 -40 515 -40 491 -40 c 0,41,42
 473 -40 473 -40 460 -33 c 0,43,44
 379 28 379 28 294 159 c 0,45,46
 258 212 258 212 223 274 c 1,47,48
 140 132 140 132 108 -5 c 0,49,50
 103 -20 103 -20 86 -27 c 0,51,52
 74 -33 74 -33 60 -33 c 0,53,54
 55 -33 55 -33 49 -32 c 0,55,56
 29 -29 29 -29 18 -16 c 0,57,58
 11 -7 11 -7 11 3 c 0,59,60
 11 10 11 10 13 18 c 0,61,62
 52 186 52 186 148 353 c 0,63,64
 154 365 154 365 167 385 c 0,65,66
 165 389 165 389 161.5 396.5 c 128,-1,67
 158 404 158 404 155 410 c 0,68,69
 121 480 121 480 81 577 c 0,70,71
 40 677 40 677 30 697 c 0,72,73
 26 711 26 711 26 724 c 0,74,75
 26 731 26 731 29 738 c 0,76,77
 36 751 36 751 54 756 c 0,0,1
EndSplineSet
EndChar

StartChar: Y
Encoding: 89 89 60
AltUni2: 00ff39.ffffffff.0 0004ae.ffffffff.0 0003d2.ffffffff.0 0003a5.ffffffff.0 00ff39.ffffffff.0 0004ae.ffffffff.0 0003d2.ffffffff.0 0003a5.ffffffff.0
Width: 601
GlyphClass: 1
Flags: W
LayerCount: 2
Fore
SplineSet
27 722 m 0,0,1
 27 740 27 740 44 751 c 0,2,3
 57 758 57 758 74 758 c 0,4,5
 98 758 98 758 113 745 c 0,6,7
 125 732 125 732 155 673 c 0,8,9
 200 590 200 590 217 563 c 0,10,11
 289 446 289 446 335 418 c 0,12,13
 338 416 338 416 341 415 c 0,14,15
 355 448 355 448 392 527 c 0,16,17
 429 610 429 610 451 657 c 0,18,19
 478 720 478 720 487 738 c 0,20,21
 495 753 495 753 514 758 c 0,22,23
 523 760 523 760 532 760 c 128,-1,24
 541 760 541 760 551 757 c 0,25,26
 570 752 570 752 577 738 c 0,27,28
 580 732 580 732 580 724 c 0,29,30
 580 711 580 711 576 698 c 0,31,32
 559 652 559 652 542 617 c 0,33,34
 528 583 528 583 514 548 c 0,35,36
 499 515 499 515 481 472 c 1,37,38
 450 432 450 432 454 407 c 0,39,40
 454 405 454 405 454 403 c 128,-1,41
 454 401 454 401 454 400 c 0,42,43
 454 387 454 387 446 375 c 0,44,45
 438 362 438 362 431 355 c 1,46,47
 427 343 427 343 413 308.5 c 128,-1,48
 399 274 399 274 392 255 c 0,49,50
 334 102 334 102 310 -14 c 0,51,52
 305 -28 305 -28 287 -36 c 0,53,54
 273 -43 273 -43 255 -43 c 0,55,56
 249 -43 249 -43 245 -42 c 0,57,58
 223 -39 223 -39 211 -26 c 0,59,60
 202 -17 202 -17 202 -8 c 0,61,62
 202 0 202 0 203 7 c 0,63,64
 230 129 230 129 290 290 c 0,65,66
 295 301 295 301 302 320 c 1,67,68
 265 334 265 334 228 372 c 0,69,70
 178 422 178 422 124 513 c 0,71,72
 95 564 95 564 67 628 c 0,73,74
 44 673 44 673 35 684 c 0,75,76
 27 699 27 699 27 722 c 0,0,1
EndSplineSet
EndChar

StartChar: Z
Encoding: 90 90 61
AltUni2: 00ff3a.ffffffff.0 002128.ffffffff.0 002124.ffffffff.0 0013c3.ffffffff.0 000396.ffffffff.0 00ff3a.ffffffff.0 002128.ffffffff.0 002124.ffffffff.0 0013c3.ffffffff.0 000396.ffffffff.0
Width: 587
GlyphClass: 1
Flags: W
LayerCount: 2
Fore
SplineSet
92 746 m 2,0,-1
 93 746 l 2,1,2
 97 746 97 746 112.5 748 c 128,-1,3
 128 750 128 750 143 751 c 0,4,5
 162 754 162 754 184 756.5 c 128,-1,6
 206 759 206 759 225 760 c 128,-1,7
 244 761 244 761 273 761 c 0,8,9
 306 761 306 761 325.5 759.5 c 128,-1,10
 345 758 345 758 348 758 c 2,11,-1
 349 758 l 1,12,13
 413 754 413 754 454 753 c 2,14,-1
 488 753 l 1,15,-1
 506 753 l 2,16,17
 532 753 532 753 547 731 c 0,18,19
 556 718 556 718 556 703 c 0,20,21
 556 676 556 676 507 605 c 1,22,23
 502 589 502 589 498 590 c 0,24,25
 488 577 488 577 471 552 c 0,26,27
 463 541 463 541 446 516 c 0,28,29
 429 492 429 492 372 409 c 1,30,-1
 377 409 l 1,31,-1
 414 409 l 2,32,33
 437 409 437 409 451.5 394 c 128,-1,34
 466 379 466 379 466 359 c 128,-1,35
 466 339 466 339 451.5 323.5 c 128,-1,36
 437 308 437 308 414 308 c 2,37,-1
 306 308 l 1,38,39
 292 289 292 289 280 271 c 0,40,41
 221 186 221 186 191 140.5 c 128,-1,42
 161 95 161 95 158 90 c 128,-1,43
 155 85 155 85 149 76 c 1,44,45
 158 77 158 77 170 79 c 2,46,-1
 172 79 l 2,47,48
 174 79 174 79 184 81 c 1,49,50
 185 97 185 97 186 83 c 1,51,-1
 193 83 l 1,52,53
 245 91 245 91 286 91 c 128,-1,54
 327 91 327 91 359 87 c 0,55,56
 377 86 377 86 431 75 c 0,57,58
 441 74 441 74 504 58 c 0,59,60
 523 53 523 53 534 36 c 0,61,62
 542 24 542 24 542 9 c 0,63,64
 542 4 542 4 541 -1 c 0,65,66
 538 -22 538 -22 521 -33 c 0,67,68
 509 -42 509 -42 495 -42 c 256,69,70
 481 -42 481 -42 408 -25 c 0,71,72
 389 -21 389 -21 344 -13 c 0,73,74
 282 -6 282 -6 211 -18 c 1,75,-1
 210 -18 l 2,76,77
 207 -19 207 -19 185 -22 c 0,78,79
 160 -26 160 -26 128 -26 c 0,80,81
 61 -26 61 -26 40 16 c 0,82,83
 33 29 33 29 33 43 c 0,84,85
 33 56 33 56 37 68 c 0,86,87
 51 106 51 106 181 316 c 1,88,89
 162 318 162 318 143 321 c 0,90,91
 124 323 124 323 111 339 c 0,92,93
 101 352 101 352 101 368 c 0,94,95
 101 392 101 392 120 408 c 0,96,97
 133 419 133 419 150 419 c 0,98,99
 153 419 153 419 158 418 c 0,100,101
 194 413 194 413 245 411 c 1,102,103
 306 500 306 500 359 573 c 0,104,105
 362 578 362 578 386 608 c 0,106,107
 414 643 414 643 415.5 644 c 128,-1,108
 417 645 417 645 419 648 c 128,-1,109
 421 651 421 651 422 652 c 1,110,111
 343 655 343 655 328 658 c 0,112,113
 323 659 323 659 321 659 c 0,114,115
 320 644 320 644 320 659 c 1,116,117
 300 660 300 660 275.5 660 c 128,-1,118
 251 660 251 660 219 658 c 0,119,120
 212 658 212 658 203 657 c 0,121,122
 150 635 150 635 102 644 c 0,123,124
 99 644 99 644 97 644 c 0,125,126
 78 644 78 644 63 658 c 0,127,128
 48 673 48 673 48 696 c 0,129,130
 48 713 48 713 59 728 c 128,-1,131
 70 743 70 743 92 746 c 2,0,-1
EndSplineSet
EndChar

StartChar: bracketleft
Encoding: 91 91 62
AltUni2: 00ff3b.ffffffff.0 00fe47.ffffffff.0 00ff3b.ffffffff.0 00fe47.ffffffff.0
Width: 260
GlyphClass: 1
Flags: W
LayerCount: 2
Fore
SplineSet
134 426 m 1,0,1
 128 264 128 264 128 91 c 0,2,3
 128 -20 128 -20 135 -77 c 0,4,5
 137 -85 137 -85 138 -95 c 0,6,7
 140 -95 140 -95 141 -95 c 2,8,-1
 156 -95 l 2,9,10
 176 -95 176 -95 191 -97 c 0,11,12
 213 -101 213 -101 225 -120 c 0,13,14
 235 -134 235 -134 235 -150 c 0,15,16
 235 -156 235 -156 234 -162 c 0,17,18
 228 -183 228 -183 211 -195 c 0,19,20
 197 -205 197 -205 181 -205 c 0,21,22
 176 -205 176 -205 168 -203 c 0,23,24
 163 -203 163 -203 154 -203 c 2,25,-1
 138 -203 l 1,26,-1
 137 -203 l 2,27,28
 105 -200 105 -200 96 -197.5 c 128,-1,29
 87 -195 87 -195 77 -191 c 0,30,31
 61 -184 61 -184 48 -165 c 0,32,33
 26 -130 26 -130 21 9 c 0,34,35
 20 42 20 42 20 103 c 128,-1,36
 20 164 20 164 22 269 c 0,37,38
 24 394 24 394 31 580 c 0,39,40
 34 653 34 653 33 669 c 0,41,42
 33 671 33 671 33 673 c 0,43,44
 33 687 33 687 41 700 c 0,45,46
 45 714 45 714 54 723 c 0,47,48
 67 736 67 736 86 738 c 0,49,50
 93 739 93 739 110 744 c 0,51,52
 164 759 164 759 193 759 c 1,53,54
 193 759 193 759 193 759 c 1,55,56
 212 759 212 759 228 753 c 0,57,58
 249 746 249 746 259 726 c 0,59,60
 264 714 264 714 264 704 c 128,-1,61
 264 694 264 694 261 685 c 0,62,63
 254 663 254 663 234 653 c 0,64,65
 222 648 222 648 212.5 648 c 128,-1,66
 203 648 203 648 196 650 c 2,67,-1
 191 650 l 1,68,-1
 190 651 l 1,69,70
 190 651 190 651 188 650 c 2,71,-1
 186 650 l 2,72,73
 181 650 181 650 170 648 c 128,-1,74
 159 646 159 646 155.5 645 c 128,-1,75
 152 644 152 644 148 642.5 c 128,-1,76
 144 641 144 641 141 640 c 0,77,78
 140 623 140 623 137 530 c 128,-1,79
 134 437 134 437 134 427 c 2,80,-1
 134 426 l 1,0,1
EndSplineSet
Substitution2: "'rtla' Right to Left Alternates lookup 0 subtable" bracketright
EndChar

StartChar: backslash
Encoding: 92 92 63
AltUni2: 00ff3c.ffffffff.0 00fe68.ffffffff.0 002216.ffffffff.0 00ff3c.ffffffff.0 00fe68.ffffffff.0 002216.ffffffff.0
Width: 397
GlyphClass: 1
Flags: W
LayerCount: 2
Fore
SplineSet
398 -141 m 0,0,1
 402 -151 402 -151 402 -161.5 c 128,-1,2
 402 -172 402 -172 397 -183 c 0,3,4
 388 -204 388 -204 368 -212 c 0,5,6
 358 -216 358 -216 347.5 -216 c 128,-1,7
 337 -216 337 -216 326 -211 c 0,8,9
 305 -202 305 -202 297 -182 c 0,10,11
 254 -74 254 -74 210 55 c 0,12,13
 165 185 165 185 131 292 c 0,14,15
 129 297 129 297 127.5 303 c 128,-1,16
 126 309 126 309 111 353.5 c 128,-1,17
 96 398 96 398 86 430 c 0,18,19
 80 447 80 447 55 514 c 128,-1,20
 30 581 30 581 20 617 c 0,21,22
 1 680 1 680 -2 735 c 0,23,24
 -2 737 -2 737 -2 739 c 0,25,26
 -2 760 -2 760 13 775 c 0,27,28
 29 792 29 792 51 792 c 128,-1,29
 73 792 73 792 88 778 c 128,-1,30
 103 764 103 764 106 742 c 2,31,-1
 106 741 l 2,32,33
 107 698 107 698 123 646 c 0,34,35
 130 623 130 623 151 564 c 0,36,37
 188 465 188 465 188 464 c 0,38,39
 198 432 198 432 213 386.5 c 128,-1,40
 228 341 228 341 229 338 c 2,41,-1
 233 327 l 1,42,43
 271 209 271 209 312 91 c 1,44,-1
 312 91 l 1,45,46
 355 -38 355 -38 398 -141 c 0,0,1
EndSplineSet
EndChar

StartChar: bracketright
Encoding: 93 93 64
AltUni2: 00ff3d.ffffffff.0 00fe48.ffffffff.0 00ff3d.ffffffff.0 00fe48.ffffffff.0
Width: 229
GlyphClass: 1
Flags: W
LayerCount: 2
Fore
SplineSet
96 -109 m 2,0,-1
 111 -108 l 2,1,2
 113 -108 113 -108 114 -108 c 0,3,4
 116 -101 116 -101 117 -91 c 0,5,6
 122 -30 122 -30 123 -2.5 c 128,-1,7
 124 25 124 25 124 47 c 0,8,9
 124 147 124 147 122 257 c 1,10,-1
 122 257 l 1,11,12
 122 275 122 275 118 413 c 1,13,-1
 118 413 l 1,14,15
 118 423 118 423 114.5 513 c 128,-1,16
 111 603 111 603 111 645 c 1,17,18
 101 648 101 648 91 650 c 2,19,-1
 90 650 l 1,20,21
 80 646 80 646 70 646 c 128,-1,22
 60 646 60 646 49 650 c 0,23,24
 29 658 29 658 20 679 c 0,25,26
 11 699 11 699 19.5 719.5 c 128,-1,27
 28 740 28 740 48 750 c 0,28,29
 67 757 67 757 74.5 757.5 c 128,-1,30
 82 758 82 758 86 758 c 0,31,32
 108 758 108 758 138 749 c 2,33,-1
 164 740 l 2,34,35
 181 734 181 734 193 732 c 0,36,37
 216 726 216 726 227 706 c 0,38,39
 234 693 234 693 234 680 c 0,40,41
 234 659 234 659 219 643 c 1,42,43
 219 603 219 603 221 567 c 2,44,-1
 221 566 l 2,45,46
 221 545 221 545 222.5 492.5 c 128,-1,47
 224 440 224 440 225 423 c 1,48,-1
 226 422 l 1,49,50
 230 276 230 276 231 213 c 0,51,52
 233 73 233 73 231 -3 c 0,53,54
 227 -141 227 -141 203 -179 c 0,55,56
 185 -204 185 -204 152 -213 c 0,57,58
 135 -216 135 -216 114 -216 c 2,59,-1
 98 -217 l 1,60,-1
 81 -217 l 2,61,62
 75 -218 75 -218 69 -218 c 0,63,64
 54 -218 54 -218 41 -209 c 0,65,66
 22 -197 22 -197 18 -175 c 0,67,68
 17 -169 17 -169 17 -164 c 0,69,70
 17 -148 17 -148 27 -134 c 0,71,72
 39 -116 39 -116 61 -111 c 0,73,74
 71 -109 71 -109 96 -109 c 2,0,-1
EndSplineSet
Substitution2: "'rtla' Right to Left Alternates lookup 0 subtable" bracketleft
EndChar

StartChar: asciicircum
Encoding: 94 94 65
AltUni2: 00ff3e.ffffffff.0 002303.ffffffff.0 000302.ffffffff.0 0002c6.ffffffff.0 0002c4.ffffffff.0 00ff3e.ffffffff.0 002303.ffffffff.0 000302.ffffffff.0 0002c6.ffffffff.0 0002c4.ffffffff.0
Width: 345
GlyphClass: 1
Flags: W
LayerCount: 2
Fore
SplineSet
76 419 m 0,0,1
 64 419 64 419 53 426 c 0,2,3
 33 438 33 438 33 462 c 0,4,5
 33 474 33 474 41 487 c 0,6,7
 42 487 42 487 53 504 c 128,-1,8
 64 521 64 521 82 547 c 0,9,10
 85 551 85 551 95 565 c 0,11,12
 114 590 114 590 123 599 c 0,13,14
 145 621 145 621 160 624 c 0,15,16
 171 627 171 627 173 627 c 0,17,18
 191 627 191 627 208 615 c 0,19,20
 219 606 219 606 221 604 c 0,21,22
 237 588 237 588 245 578 c 0,23,24
 270 549 270 549 285 521 c 0,25,26
 296 506 296 506 300.5 499 c 128,-1,27
 305 492 305 492 306 491 c 2,28,-1
 310 487 l 1,29,-1
 310 485 l 2,30,31
 310 483 310 483 313 482 c 2,32,-1
 320 482 l 1,33,-1
 320 472 l 1,34,-1
 322 471 l 1,35,-1
 322 467 l 2,36,37
 322 466 322 466 322.5 464.5 c 128,-1,38
 323 463 323 463 325 457 c 2,39,-1
 325 455 l 1,40,-1
 325 446 l 1,41,-1
 325 445 l 2,42,43
 323 435 323 435 321 432 c 0,44,45
 312 418 312 418 303 413 c 0,46,47
 293 408 293 408 281 408 c 2,48,-1
 279 408 l 2,49,50
 264 411 264 411 257 417 c 0,51,52
 255 418 255 418 247 427 c 1,53,-1
 247 428 l 2,54,55
 246 429 246 429 246 429 c 2,56,57
 244 432 244 432 243 433.5 c 128,-1,58
 242 435 242 435 242 435 c 2,59,60
 240 437 240 437 235 444 c 128,-1,61
 230 451 230 451 226 456 c 1,62,-1
 226 457 l 1,63,64
 211 480 211 480 209 485 c 0,65,66
 199 502 199 502 175 530 c 1,67,68
 162 514 162 514 153 501 c 0,69,70
 123 456 123 456 120.5 452.5 c 128,-1,71
 118 449 118 449 116 446 c 0,72,73
 114 442 114 442 111 438 c 0,74,75
 99 419 99 419 76 419 c 0,0,1
EndSplineSet
EndChar

StartChar: underscore
Encoding: 95 95 66
AltUni2: 00ff3f.ffffffff.0 00fe4f.ffffffff.0 00fe4e.ffffffff.0 00fe4d.ffffffff.0 00fe34.ffffffff.0 00fe33.ffffffff.0 00ff3f.ffffffff.0 00fe4f.ffffffff.0 00fe4e.ffffffff.0 00fe4d.ffffffff.0 00fe34.ffffffff.0 00fe33.ffffffff.0
Width: 574
GlyphClass: 1
Flags: W
LayerCount: 2
Fore
SplineSet
19 -105 m 0,0,1
 19 -80 19 -80 37 -64 c 0,2,3
 52 -50 52 -50 72 -50 c 0,4,5
 74 -50 74 -50 76 -50 c 0,6,7
 138 -52 138 -52 244.5 -52 c 128,-1,8
 351 -52 351 -52 414 -52 c 128,-1,9
 477 -52 477 -52 526 -53 c 2,10,-1
 527 -53 l 2,11,12
 549 -54 549 -54 563.5 -70 c 128,-1,13
 578 -86 578 -86 578 -106 c 0,14,15
 578 -132 578 -132 562 -146.5 c 128,-1,16
 546 -161 546 -161 526 -161 c 0,17,18
 524 -161 524 -161 499 -160 c 0,19,20
 451 -159 451 -159 301 -160 c 0,21,22
 136 -160 136 -160 72 -158 c 2,23,-1
 71 -158 l 2,24,25
 48 -157 48 -157 33.5 -141 c 128,-1,26
 19 -125 19 -125 19 -105 c 0,0,1
EndSplineSet
EndChar

StartChar: grave
Encoding: 96 96 67
AltUni2: 00ff40.ffffffff.0 002035.ffffffff.0 002018.ffffffff.0 001fef.ffffffff.0 00060c.ffffffff.0 00ff40.ffffffff.0 002035.ffffffff.0 002018.ffffffff.0 001fef.ffffffff.0 00060c.ffffffff.0
Width: 261
GlyphClass: 1
Flags: W
LayerCount: 2
Fore
SplineSet
247 546 m 0,0,1
 247 532 247 532 240 520 c 0,2,3
 229 500 229 500 206 494 c 0,4,5
 199 493 199 493 192 493 c 0,6,7
 178 493 178 493 166 500 c 0,8,9
 83 546 83 546 38 638 c 0,10,11
 23 669 23 669 18.5 679 c 128,-1,12
 14 689 14 689 14 698.5 c 128,-1,13
 14 708 14 708 17 718 c 0,14,15
 25 739 25 739 45 749 c 0,16,17
 56 754 56 754 66.5 754 c 128,-1,18
 77 754 77 754 86 751 c 0,19,20
 107 744 107 744 117 724 c 2,21,-1
 128 702 l 1,22,-1
 128 701 l 1,23,24
 146 664 146 664 167 638 c 128,-1,25
 188 612 188 612 220 593 c 0,26,27
 240 582 240 582 245 560 c 0,28,29
 247 553 247 553 247 546 c 0,0,1
EndSplineSet
EndChar

StartChar: a
Encoding: 97 97 68
AltUni2: 00ff41.ffffffff.0 002090.ffffffff.0 001d43.ffffffff.0 000430.ffffffff.0 0000aa.ffffffff.0 00ff41.ffffffff.0 002090.ffffffff.0 001d43.ffffffff.0 000430.ffffffff.0 0000aa.ffffffff.0
Width: 481
GlyphClass: 1
Flags: W
AnchorPoint: "Anchor-0" 217 422 basechar 0
LayerCount: 2
Fore
SplineSet
362 354 m 1,0,1
 375 362 375 362 393.5 362 c 128,-1,2
 412 362 412 362 426 352 c 0,3,4
 439 343 439 343 446 324 c 0,5,6
 448 314 448 314 448 307 c 0,7,8
 448 299 448 299 448 294 c 0,9,10
 448 267 448 267 436 230 c 0,11,12
 421 176 421 176 392 129 c 1,13,14
 399 69 399 69 432 16 c 0,15,16
 435 11 435 11 436 10 c 0,17,18
 445 -6 445 -6 445 -25 c 0,19,20
 445 -29 445 -29 444 -33 c 0,21,22
 439 -45 439 -45 423 -52 c 0,23,24
 404 -59 404 -59 398.5 -59 c 128,-1,25
 393 -59 393 -59 387 -58 c 0,26,27
 365 -54 365 -54 354 -38 c 0,28,29
 332 -1 332 -1 317 34 c 1,30,31
 278 6 278 6 234 -3 c 0,32,33
 212 -8 212 -8 190 -8 c 0,34,35
 116 -8 116 -8 62 65 c 0,36,37
 37 98 37 98 37 142 c 0,38,39
 37 167 37 167 43 196 c 0,40,41
 62 262 62 262 110 312 c 0,42,43
 165 371 165 371 244 380 c 0,44,45
 256 381 256 381 268 381 c 0,46,47
 323 381 323 381 362 354 c 1,0,1
436 1 m 1024,48,-1
290 150 m 2,49,50
 290 208 290 208 315 266 c 1,51,52
 285 284 285 284 267 287 c 0,53,54
 232 287 232 287 186 250 c 0,55,56
 148 215 148 215 137 174 c 0,57,58
 132 156 132 156 132 139 c 0,59,60
 132 127 132 127 140 118 c 0,61,62
 168 88 168 88 191 88 c 0,63,64
 195 88 195 88 202 89 c 0,65,66
 240 95 240 95 285 139 c 0,67,68
 286 140 286 140 287.5 142.5 c 128,-1,69
 289 145 289 145 290 146 c 2,70,-1
 290 150 l 2,49,50
EndSplineSet
EndChar

StartChar: b
Encoding: 98 98 69
AltUni2: 00ff42.ffffffff.0 001d47.ffffffff.0 00ff42.ffffffff.0 001d47.ffffffff.0
Width: 438
GlyphClass: 1
Flags: W
LayerCount: 2
Fore
SplineSet
197 -14 m 1,0,1
 160 -16 160 -16 147 -16 c 1,2,3
 140 0 140 0 133 -15 c 1,4,5
 125 -15 125 -15 119 -13 c 0,6,7
 105 -9 105 -9 99 -1 c 0,8,9
 97 2 97 2 95 4 c 0,10,11
 86 8 86 8 78 16 c 0,12,13
 75 19 75 19 67 33 c 0,14,15
 57 50 57 50 57 62 c 0,16,17
 56 118 56 118 51 140 c 0,18,19
 50 146 50 146 50 157 c 0,20,21
 47 192 47 192 47 234 c 0,22,23
 47 375 47 375 79 589 c 0,24,25
 82 610 82 610 99 621 c 0,26,27
 111 629 111 629 126 629 c 0,28,29
 151 629 151 629 164 611 c 0,30,31
 175 598 175 598 175 582 c 0,32,33
 175 579 175 579 174 575 c 0,34,35
 155 463 155 463 148 371 c 1,36,37
 184 408 184 408 233 408 c 0,38,39
 283 408 283 408 317 374 c 0,40,41
 408 272 408 272 419 196 c 0,42,43
 422 176 422 176 422 158 c 0,44,45
 422 122 422 122 410 92 c 0,46,47
 388 34 388 34 336 6 c 0,48,49
 315 -7 315 -7 197 -14 c 1,50,51
 197 1 197 1 197 -14 c 1,0,1
158 193 m 0,52,53
 146 156 146 156 146 142 c 2,54,-1
 146 141 l 2,55,56
 148 133 148 133 151 124 c 128,-1,57
 154 115 154 115 156 104 c 0,58,59
 161 83 161 83 162 65 c 1,60,61
 178 66 178 66 189 66 c 0,62,63
 234 70 234 70 242 70.5 c 128,-1,64
 250 71 250 71 254 72 c 2,65,-1
 258 73 l 1,66,67
 326 109 326 109 326 168 c 0,68,69
 326 175 326 175 325 183 c 0,70,71
 313 279 313 279 234 323 c 1,72,73
 219 310 219 310 200 282.5 c 128,-1,74
 181 255 181 255 158 193 c 0,52,53
EndSplineSet
EndChar

StartChar: c
Encoding: 99 99 70
AltUni2: 00ff43.ffffffff.0 00217d.ffffffff.0 001d9c.ffffffff.0 000441.ffffffff.0 00ff43.ffffffff.0 00217d.ffffffff.0 001d9c.ffffffff.0 000441.ffffffff.0
Width: 439
GlyphClass: 1
Flags: W
LayerCount: 2
Fore
SplineSet
360 308 m 0,0,1
 340 314 340 314 320 314 c 0,2,3
 277 314 277 314 232 293 c 0,4,5
 168 261 168 261 154 207 c 0,6,7
 150 192 150 192 150 179 c 0,8,9
 150 146 150 146 176 122 c 1,10,11
 239 76 239 76 381 76 c 0,12,13
 400 76 400 76 414 62 c 128,-1,14
 428 48 428 48 428 28.5 c 128,-1,15
 428 9 428 9 414.5 -5 c 128,-1,16
 401 -19 401 -19 381 -19 c 0,17,18
 191 -19 191 -19 108 55 c 0,19,20
 55 105 55 105 55 174 c 0,21,22
 55 198 55 198 61 224 c 0,23,24
 84 312 84 312 167 365 c 1,25,26
 241 402 241 402 319 402 c 0,27,28
 356 402 356 402 391 389 c 0,29,30
 410 382 410 382 418 367 c 0,31,32
 423 358 423 358 423 350 c 128,-1,33
 423 342 423 342 420 334 c 0,34,35
 413 317 413 317 396 310 c 0,36,37
 386 305 386 305 377 305 c 128,-1,38
 368 305 368 305 360 308 c 0,0,1
EndSplineSet
EndChar

StartChar: d
Encoding: 100 100 71
AltUni2: 00ff44.ffffffff.0 00217e.ffffffff.0 002146.ffffffff.0 001d48.ffffffff.0 00ff44.ffffffff.0 00217e.ffffffff.0 002146.ffffffff.0 001d48.ffffffff.0
Width: 515
GlyphClass: 1
Flags: W
LayerCount: 2
Fore
SplineSet
459 -25 m 0,0,1
 459 -29 459 -29 457 -33 c 0,2,3
 453 -45 453 -45 437 -52 c 0,4,5
 418 -59 418 -59 412 -59 c 256,6,7
 406 -59 406 -59 401 -58 c 0,8,9
 388 -56 388 -56 372 -44 c 0,10,11
 369 -43 369 -43 366 -42 c 0,12,13
 365 -39 365 -39 362 -34 c 0,14,15
 339 0 339 0 324 34 c 1,16,17
 287 6 287 6 244 -3 c 0,18,19
 223 -8 223 -8 203 -8 c 0,20,21
 129 -8 129 -8 75 65 c 0,22,23
 50 98 50 98 50 142 c 0,24,25
 50 167 50 167 57 196 c 0,26,27
 74 260 74 260 123 312 c 0,28,29
 178 371 178 371 255 380 c 0,30,31
 266 381 266 381 277 381 c 0,32,33
 326 381 326 381 367 359 c 1,34,35
 413 610 413 610 417 618 c 0,36,37
 419 621 419 621 419 623 c 0,38,39
 436 645 436 645 459 645 c 1,40,41
 459 645 459 645 459 645 c 1,42,43
 478 645 478 645 496 630 c 0,44,45
 502 627 502 627 502 617 c 0,46,47
 502 598 502 598 492 544 c 0,48,49
 492 539 492 539 492 543 c 1,50,51
 466 416 466 416 441 296 c 0,52,53
 436 274 436 274 406 127 c 1,54,55
 410 83 410 83 446 14 c 0,56,57
 449 11 449 11 450 10 c 0,58,59
 459 -6 459 -6 459 -25 c 0,0,1
449 1 m 1024,60,-1
299 150 m 2,61,62
 299 208 299 208 323 266 c 1,63,64
 294 284 294 284 276 287 c 0,65,66
 243 287 243 287 199 250 c 0,67,68
 161 215 161 215 150 174 c 0,69,70
 146 156 146 156 146 139 c 0,71,72
 146 127 146 127 154 118 c 0,73,74
 181 88 181 88 203 88 c 0,75,76
 206 88 206 88 214 89 c 0,77,78
 251 95 251 95 293 139 c 0,79,80
 295 140 295 140 296.5 142.5 c 128,-1,81
 298 145 298 145 299 146 c 2,82,-1
 299 150 l 2,61,62
EndSplineSet
EndChar

StartChar: e
Encoding: 101 101 72
AltUni2: 00ff45.ffffffff.0 002147.ffffffff.0 00212f.ffffffff.0 002091.ffffffff.0 001d49.ffffffff.0 000435.ffffffff.0 00ff45.ffffffff.0 002147.ffffffff.0 00212f.ffffffff.0 002091.ffffffff.0 001d49.ffffffff.0 000435.ffffffff.0
Width: 373
GlyphClass: 1
Flags: W
LayerCount: 2
Fore
SplineSet
41 151 m 0,0,1
 29 192 29 192 29 233 c 0,2,3
 29 273 29 273 44 311 c 0,4,5
 78 397 78 397 169 424 c 0,6,7
 198 433 198 433 222 433 c 0,8,9
 271 433 271 433 300 402 c 0,10,11
 328 374 328 374 328 335 c 0,12,13
 328 315 328 315 323 292 c 0,14,15
 307 231 307 231 254 189 c 0,16,17
 205 150 205 150 142 148 c 1,18,19
 157 119 157 119 186 101 c 1,20,21
 219 86 219 86 237 85 c 0,22,23
 252 85 252 85 264 88 c 0,24,25
 276 93 276 93 285.5 93 c 128,-1,26
 295 93 295 93 305 87 c 0,27,28
 322 75 322 75 328 51 c 0,29,30
 335 33 335 33 326 16 c 0,31,32
 318 4 318 4 299 0 c 0,33,34
 267 -10 267 -10 237 -10 c 0,35,36
 179 -10 179 -10 129 25 c 0,37,38
 65 70 65 70 41 151 c 0,0,1
199 333 m 0,39,40
 151 320 151 320 133 279 c 0,41,42
 126 262 126 262 125 243 c 1,43,44
 130 243 130 243 136 243 c 0,45,46
 170 243 170 243 195 252 c 1,47,48
 222 276 222 276 229 314 c 0,49,50
 232 328 232 328 232 338 c 1,51,52
 232 338 232 338 229 339 c 0,53,54
 226 337 226 337 219 337 c 128,-1,55
 212 337 212 337 199 333 c 0,39,40
EndSplineSet
EndChar

StartChar: f
Encoding: 102 102 73
AltUni2: 00ff46.ffffffff.0 001da0.ffffffff.0 000584.ffffffff.0 00ff46.ffffffff.0 001da0.ffffffff.0 000584.ffffffff.0
Width: 285
GlyphClass: 1
Flags: W
LayerCount: 2
Fore
SplineSet
146 605 m 0,0,1
 168 630 168 630 194 630 c 0,2,3
 214 630 214 630 231 617 c 0,4,5
 241 609 241 609 252 592 c 0,6,7
 269 559 269 559 274 508 c 0,8,9
 274 506 274 506 274 504 c 0,10,11
 274 488 274 488 263 473 c 256,12,13
 252 458 252 458 231 456 c 0,14,15
 229 456 229 456 227 456 c 0,16,17
 211 456 211 456 197 466 c 0,18,19
 193 470 193 470 189 474 c 1,20,21
 170 411 170 411 167 320 c 1,22,23
 172 316 172 316 177 323 c 1,24,25
 194 320 194 320 210 329 c 0,26,27
 214 330 214 330 218 330 c 0,28,29
 233 330 233 330 246 322 c 0,30,31
 263 312 263 312 266 294 c 0,32,33
 267 289 267 289 267 284 c 0,34,35
 267 272 267 272 259 260 c 0,36,37
 248 244 248 244 229 241 c 0,38,39
 205 237 205 237 200 235 c 0,40,41
 188 233 188 233 179.5 231 c 128,-1,42
 171 229 171 229 168 228 c 0,43,44
 177 79 177 79 216 -19 c 0,45,46
 219 -27 219 -27 219 -36.5 c 128,-1,47
 219 -46 219 -46 215 -55 c 0,48,49
 207 -73 207 -73 189 -80 c 256,50,51
 171 -87 171 -87 152.5 -79 c 128,-1,52
 134 -71 134 -71 127 -52 c 0,53,54
 81 65 81 65 74 226 c 1,55,56
 50 229 50 229 43 231 c 0,57,58
 24 237 24 237 14 252 c 0,59,60
 7 263 7 263 7 276 c 0,61,62
 7 283 7 283 9 288 c 0,63,64
 14 305 14 305 31 315 c 0,65,66
 42 321 42 321 54 321 c 0,67,68
 60 321 60 321 64.5 320 c 128,-1,69
 69 319 69 319 71 319 c 0,70,71
 76 478 76 478 125 574 c 0,72,73
 134 592 134 592 146 605 c 0,0,1
EndSplineSet
EndChar

StartChar: g
Encoding: 103 103 74
AltUni2: 00ff47.ffffffff.0 00210a.ffffffff.0 001d4d.ffffffff.0 00ff47.ffffffff.0 00210a.ffffffff.0 001d4d.ffffffff.0
Width: 421
GlyphClass: 1
Flags: W
LayerCount: 2
Fore
SplineSet
139 111 m 0,0,1
 139 99 139 99 155 95 c 0,2,3
 170 90 170 90 183 90 c 128,-1,4
 196 90 196 90 210 96 c 0,5,6
 242 116 242 116 267 165 c 0,7,8
 270 173 270 173 277 188 c 0,9,10
 276 192 276 192 274.5 199.5 c 128,-1,11
 273 207 273 207 271 213 c 0,12,13
 263 260 263 260 262 287 c 1,14,15
 259 272 259 272 256 281 c 1,16,17
 213 252 213 252 180 209 c 1,18,-1
 180 209 l 1,19,20
 139 149 139 149 139 111 c 0,0,1
383 323 m 0,21,22
 389 317 389 317 389 311 c 0,23,24
 389 300 389 300 387 292 c 2,25,-1
 387 273 l 2,26,27
 387 238 387 238 375 182 c 0,28,29
 375 169 375 169 376 169 c 0,30,31
 379 164 379 164 379 157 c 0,32,33
 379 156 379 156 380 154 c 128,-1,34
 381 152 381 152 381 146 c 2,35,-1
 381 145 l 1,36,37
 393 101 393 101 402 1 c 0,38,39
 407 -61 407 -61 407 -105 c 0,40,41
 407 -170 407 -170 393 -196 c 0,42,43
 388 -202 388 -202 373 -205 c 0,44,45
 300 -229 300 -229 198 -229 c 0,46,47
 144 -229 144 -229 90 -223 c 0,48,49
 42 -216 42 -216 5 -192 c 0,50,51
 -4 -190 -4 -190 -4 -187 c 0,52,53
 -4 -172 -4 -172 7 -151 c 0,54,55
 17 -134 17 -134 35 -126 c 1,56,57
 37 -107 37 -107 39 -124 c 1,58,59
 76 -119 76 -119 113 -143 c 1,60,61
 262 -143 262 -143 301 -131 c 0,62,63
 307 -130 307 -130 309 -130 c 0,64,65
 310 -130 310 -130 311 -130 c 0,66,67
 313 -124 313 -124 313 -124 c 2,68,69
 313 -121 313 -121 313 -122 c 1,70,71
 314 -110 314 -110 314 -96 c 0,72,73
 314 -59 314 -59 307 -9 c 0,74,75
 304 15 304 15 302 39 c 1,76,77
 249 -6 249 -6 183 -6 c 0,78,79
 142 -6 142 -6 102 12 c 0,80,81
 39 43 39 43 39 108 c 0,82,83
 39 118 39 118 40 128 c 0,84,85
 46 189 46 189 86 255 c 0,86,87
 117 304 117 304 174 349 c 0,88,89
 198 368 198 368 224 380 c 0,90,91
 240 387 240 387 258 390 c 0,92,93
 264 390 264 390 274 390 c 0,94,95
 285 390 285 390 298 387 c 0,96,97
 311 385 311 385 316 382 c 1,98,99
 316 377 316 377 319 377 c 0,100,101
 333 377 333 377 343 374 c 0,102,103
 362 366 362 366 371 353 c 0,104,105
 376 345 376 345 383 323 c 0,21,22
381 145 m 1024,106,-1
EndSplineSet
EndChar

StartChar: h
Encoding: 104 104 75
AltUni2: 00ff48.ffffffff.0 00210e.ffffffff.0 002095.ffffffff.0 0013c2.ffffffff.0 000570.ffffffff.0 0002b0.ffffffff.0 00ff48.ffffffff.0 00210e.ffffffff.0 002095.ffffffff.0 0013c2.ffffffff.0 000570.ffffffff.0 0002b0.ffffffff.0
Width: 345
GlyphClass: 1
Flags: W
LayerCount: 2
Fore
SplineSet
176 710 m 0,0,1
 181 706 181 706 181 696 c 0,2,3
 181 679 181 679 169 631 c 0,4,5
 157 587 157 587 140 483 c 0,6,7
 123 371 123 371 118 328 c 1,8,9
 129 330 129 330 141 352 c 1,10,11
 171 381 171 381 197 382 c 0,12,13
 204 382 204 382 206 382 c 0,14,15
 237 382 237 382 259 372 c 0,16,17
 287 359 287 359 298 330 c 0,18,19
 312 288 312 288 312 227 c 0,20,21
 312 206 312 206 308 150 c 0,22,23
 305 95 305 95 303 79 c 0,24,25
 301 62 301 62 299 46 c 0,26,27
 297 26 297 26 295 22 c 0,28,29
 294 21 294 21 292 20 c 0,30,31
 291 13 291 13 290 0 c 0,32,33
 286 -17 286 -17 269 -30 c 0,34,35
 259 -36 259 -36 245.5 -36 c 128,-1,36
 232 -36 232 -36 218 -25 c 0,37,38
 204 -12 204 -12 204 2 c 0,39,40
 204 9 204 9 207 23 c 0,41,42
 209 35 209 35 213 59 c 0,43,44
 224 139 224 139 224 196 c 0,45,46
 224 252 224 252 215 291 c 1,47,48
 214 287 214 287 214 285 c 0,49,50
 212 276 212 276 211 288 c 1,51,52
 211 273 211 273 211 292 c 1,53,54
 204 299 204 299 203 299 c 0,55,56
 161 270 161 270 132 199 c 0,57,58
 114 152 114 152 114 115 c 0,59,60
 114 94 114 94 121 77 c 0,61,62
 138 32 138 32 138 11 c 0,63,64
 138 4 138 4 131 1 c 0,65,66
 119 -9 119 -9 106 -11 c 0,67,68
 98 -13 98 -13 90 -13 c 0,69,70
 66 -13 66 -13 50 0 c 0,71,72
 39 11 39 11 33 30 c 0,73,74
 18 81 18 81 18 163 c 1,75,76
 18 163 18 163 18 163 c 1,77,78
 18 276 18 276 44 448 c 0,79,80
 48 474 48 474 66 547 c 0,81,82
 83 621 83 621 87 649 c 0,83,84
 91 676 91 676 94 693 c 0,85,86
 97 706 97 706 105 714 c 0,87,88
 117 724 117 724 138 724 c 0,89,90
 162 724 162 724 176 710 c 0,0,1
EndSplineSet
EndChar

StartChar: k
Encoding: 107 107 78
AltUni2: 00ff4b.ffffffff.0 002096.ffffffff.0 001d4f.ffffffff.0 00ff4b.ffffffff.0 002096.ffffffff.0 001d4f.ffffffff.0
Width: 424
GlyphClass: 1
Flags: W
LayerCount: 2
Fore
SplineSet
77 554 m 0,0,1
 77 567 77 567 77 580 c 0,2,3
 77 592 77 592 89 602 c 0,4,5
 103 612 103 612 123 612 c 256,6,7
 143 612 143 612 157 603 c 0,8,9
 171 593 171 593 172 580 c 0,10,11
 172 568 172 568 172 541 c 256,12,13
 172 514 172 514 170 457 c 0,14,15
 170 446 170 446 168 424 c 0,16,17
 167 401 167 401 166 381 c 0,18,19
 163 350 163 350 163 339 c 2,20,-1
 163 337 l 2,21,22
 161 315 161 315 160.5 306.5 c 128,-1,23
 160 298 160 298 160 294 c 0,24,25
 159 287 159 287 159 282 c 1,26,27
 207 346 207 346 280 397 c 0,28,29
 281 398 281 398 286 403 c 0,30,31
 302 415 302 415 315 419 c 0,32,33
 330 422 330 422 332 422 c 128,-1,34
 334 422 334 422 335 422 c 0,35,36
 351 422 351 422 366 414 c 1,37,38
 366 424 366 424 367 414 c 0,39,40
 369 401 369 401 372 409 c 1,41,42
 373 397 373 397 375 406 c 1,43,44
 389 396 389 396 389 383 c 0,45,46
 389 358 389 358 375 340 c 0,47,48
 362 322 362 322 345 321 c 1,49,50
 281 265 281 265 226 192 c 1,51,52
 252 171 252 171 270 160 c 0,53,54
 292 148 292 148 317 131 c 0,55,56
 358 98 358 98 381 91 c 0,57,58
 400 83 400 83 408 59 c 0,59,60
 413 46 413 46 413 34 c 0,61,62
 413 27 413 27 410 21 c 0,63,64
 404 8 404 8 387 2 c 0,65,66
 377 -1 377 -1 367.5 -1 c 128,-1,67
 358 -1 358 -1 350 1 c 0,68,69
 308 14 308 14 240 61 c 0,70,71
 212 79 212 79 187 98 c 1,72,73
 174 31 174 31 165 17 c 0,74,75
 161 10 161 10 151 3 c 0,76,77
 136 -4 136 -4 121 -4 c 0,78,79
 112 -4 112 -4 104 -2 c 0,80,81
 88 2 88 2 79 13 c 0,82,83
 73 19 73 19 71 25 c 0,84,85
 66 42 66 42 62 71 c 0,86,87
 58 101 58 101 58 128 c 0,88,89
 58 182 58 182 59.5 199.5 c 128,-1,90
 61 217 61 217 61 228 c 128,-1,91
 61 239 61 239 65 306 c 1,92,93
 65 305 65 305 65 306 c 1,94,95
 68 340 68 340 68 344 c 128,-1,96
 68 348 68 348 69 357 c 0,97,98
 69 366 69 366 69.5 370 c 128,-1,99
 70 374 70 374 70.5 377.5 c 128,-1,100
 71 381 71 381 71 384.5 c 128,-1,101
 71 388 71 388 71.5 396.5 c 128,-1,102
 72 405 72 405 73 428 c 256,103,104
 74 451 74 451 75 462 c 0,105,106
 77 516 77 516 77 554 c 0,0,1
EndSplineSet
EndChar

StartChar: l
Encoding: 108 108 79
AltUni2: 00ff4c.ffffffff.0 00217c.ffffffff.0 002113.ffffffff.0 002097.ffffffff.0 0002e1.ffffffff.0 00ff4c.ffffffff.0 00217c.ffffffff.0 002113.ffffffff.0 002097.ffffffff.0 0002e1.ffffffff.0
Width: 231
GlyphClass: 1
Flags: W
LayerCount: 2
Fore
SplineSet
190 577 m 0,0,1
 194 571 194 571 194 565 c 0,2,3
 194 553 194 553 191 542 c 0,4,5
 184 520 184 520 174 448 c 1,6,7
 164 323 164 323 164 282 c 0,8,9
 164 281 164 281 164 281 c 2,10,11
 164 267 164 267 164 254 c 0,12,13
 164 144 164 144 186 97 c 0,14,15
 187 97 187 97 189 97 c 0,16,17
 203 90 203 90 212 73 c 0,18,19
 220 56 220 56 220 37 c 0,20,21
 220 35 220 35 220 33 c 0,22,23
 215 19 215 19 199 11 c 0,24,25
 187 6 187 6 172 6 c 0,26,27
 169 6 169 6 164 6 c 0,28,29
 99 19 99 19 80 112 c 0,30,31
 69 167 69 167 69 255 c 0,32,33
 69 357 69 357 79 451 c 0,34,35
 89 542 89 542 102 575 c 0,36,37
 108 588 108 588 126 594 c 0,38,39
 136 596 136 596 145 596 c 128,-1,40
 154 596 154 596 163 594 c 0,41,42
 182 590 182 590 190 577 c 0,0,1
EndSplineSet
EndChar

StartChar: m
Encoding: 109 109 80
AltUni2: 00ff4d.ffffffff.0 00217f.ffffffff.0 002098.ffffffff.0 001d50.ffffffff.0 00ff4d.ffffffff.0 00217f.ffffffff.0 002098.ffffffff.0 001d50.ffffffff.0
Width: 504
GlyphClass: 1
Flags: W
LayerCount: 2
Fore
SplineSet
136 300 m 0,0,1
 133 315 133 315 128 329 c 1,2,3
 112 280 112 280 112 190 c 0,4,5
 112 142 112 142 115 85 c 0,6,7
 117 77 117 77 117 69 c 128,-1,8
 117 61 117 61 118 54 c 1,9,10
 118 68 118 68 118 53 c 1,11,12
 118 64 118 64 118 46 c 0,13,14
 118 33 118 33 112 19 c 0,15,16
 99 -7 99 -7 71 -10 c 0,17,18
 69 -10 69 -10 67 -10 c 0,19,20
 49 -10 49 -10 35 2 c 0,21,22
 22 14 22 14 20 31 c 0,23,24
 17 60 17 60 16 71 c 0,25,26
 14 84 14 84 13 94 c 1,27,28
 15 30 15 30 13 99 c 0,29,30
 12 103 12 103 12 105 c 0,31,32
 12 111 12 111 10 114 c 0,33,34
 3 182 3 182 2 204 c 0,35,36
 -3 280 -3 280 2 319 c 0,37,38
 5 338 5 338 20 348 c 0,39,40
 32 357 32 357 46 358 c 1,41,42
 57 380 57 380 72 394 c 0,43,44
 100 425 100 425 145 429 c 1,45,46
 145 414 145 414 146 429 c 1,47,48
 174 429 174 429 192 411 c 0,49,50
 195 408 195 408 203 396 c 0,51,52
 212 381 212 381 216 369 c 0,53,54
 231 334 231 334 241 292 c 0,55,56
 243 286 243 286 245 279 c 1,57,58
 261 334 261 334 279 362 c 0,59,60
 291 382 291 382 303 392 c 0,61,62
 326 412 326 412 355 413 c 1,63,64
 355 398 355 398 355 413 c 1,65,66
 388 413 388 413 408 394 c 0,67,68
 422 380 422 380 433 360 c 0,69,70
 469 296 469 296 484 219 c 0,71,72
 489 184 489 184 492 151 c 0,73,74
 493 136 493 136 493 97 c 1,75,76
 493 103 493 103 493 94 c 0,77,78
 493 93 493 93 494 92 c 1,79,80
 494 98 494 98 494 89 c 1,81,82
 494 95 494 95 494 87 c 1,83,84
 494 90 494 90 494 77 c 0,85,86
 494 65 494 65 494 34 c 1,87,88
 494 45 494 45 494 33 c 1,89,90
 494 44 494 44 494 32 c 0,91,92
 491 25 491 25 489 -7 c 0,93,94
 487 -27 487 -27 471 -39 c 0,95,96
 458 -49 458 -49 443 -49 c 0,97,98
 418 -49 418 -49 404 -31 c 0,99,100
 394 -17 394 -17 394 -1 c 0,101,102
 394 3 394 3 396.5 21.5 c 128,-1,103
 399 40 399 40 399 42 c 0,104,105
 399 76 399 76 399 81 c 0,106,107
 399 100 399 100 399 89 c 1,108,109
 399 105 399 105 398 91 c 1,110,111
 398 108 398 108 398 95 c 1,112,113
 398 112 398 112 398 98 c 1,114,115
 398 114 398 114 398 101 c 1,116,117
 398 118 398 118 398 104 c 1,118,119
 398 143 398 143 397 158 c 0,120,121
 394 195 394 195 390 221 c 0,122,123
 381 273 381 273 360 316 c 1,124,125
 346 278 346 278 332 215 c 0,126,127
 331 210 331 210 328.5 200.5 c 128,-1,128
 326 191 326 191 324.5 182 c 128,-1,129
 323 173 323 173 321 165 c 0,130,131
 318 149 318 149 316 142 c 0,132,133
 316 138 316 138 311 118 c 0,134,135
 300 62 300 62 295 49 c 0,136,137
 287 23 287 23 267 9 c 0,138,139
 255 0 255 0 241 -2 c 0,140,141
 234 -3 234 -3 227 -3 c 0,142,143
 208 -3 208 -3 192 9 c 0,144,145
 180 17 180 17 174 33 c 0,146,147
 171 43 171 43 171 47 c 0,148,149
 170 61 170 61 172 79 c 0,150,151
 172 94 172 94 172 80 c 1,152,153
 173 90 173 90 173 96 c 0,154,155
 164 197 164 197 136 300 c 0,0,1
EndSplineSet
EndChar

StartChar: n
Encoding: 110 110 81
AltUni2: 00ff4e.ffffffff.0 002099.ffffffff.0 00207f.ffffffff.0 000578.ffffffff.0 00ff4e.ffffffff.0 002099.ffffffff.0 00207f.ffffffff.0 000578.ffffffff.0
Width: 412
GlyphClass: 1
Flags: W
LayerCount: 2
Fore
SplineSet
387 65 m 1,0,1
 400 52 400 52 400 35 c 0,2,3
 400 28 400 28 397 20 c 0,4,5
 390 2 390 2 373 -5 c 0,6,7
 363 -10 363 -10 354 -10 c 128,-1,8
 345 -10 345 -10 338 -8 c 0,9,10
 325 -4 325 -4 312 9 c 0,11,12
 301 23 301 23 293 53 c 0,13,14
 290 70 290 70 285 114 c 0,15,16
 285 130 285 130 285 115 c 1,17,18
 285 122 285 122 281 158 c 0,19,20
 281 174 281 174 281 159 c 1,21,22
 281 164 281 164 275 203 c 0,23,24
 264 269 264 269 244 303 c 0,25,26
 233 324 233 324 220 332 c 1,27,28
 208 325 208 325 197 313 c 0,29,30
 169 287 169 287 159 265 c 0,31,32
 150 242 150 242 150 209 c 0,33,34
 150 201 150 201 151 191 c 0,35,36
 151 174 151 174 154.5 146 c 128,-1,37
 158 118 158 118 158.5 111.5 c 128,-1,38
 159 105 159 105 159 99 c 0,39,40
 159 74 159 74 157 54 c 1,41,42
 157 69 157 69 157 53 c 0,43,44
 155 35 155 35 154 25 c 0,45,46
 152 21 152 21 147 10 c 0,47,48
 138 -2 138 -2 129 -6 c 0,49,50
 112 -13 112 -13 107 -13 c 0,51,52
 106 -13 106 -13 106 -13 c 2,53,54
 84 -13 84 -13 67 7 c 1,55,56
 66 23 66 23 65 9 c 1,57,58
 63 28 63 28 61 19 c 1,59,60
 59 36 59 36 58 27 c 1,61,62
 58 40 58 40 58 28 c 1,63,64
 42 90 42 90 42 175 c 0,65,66
 42 185 42 185 42 195 c 1,67,68
 42 196 42 196 42 195 c 1,69,70
 44 252 44 252 48 317 c 1,71,72
 49 309 49 309 49 317 c 1,73,74
 49 310 49 310 49 319 c 0,75,76
 49 327 49 327 50 330 c 0,77,78
 53 347 53 347 66 358 c 128,-1,79
 79 369 79 369 96 369 c 256,80,81
 113 369 113 369 126 360 c 1,82,83
 164 398 164 398 218 398 c 0,84,85
 229 398 229 398 240 397 c 0,86,87
 285 390 285 390 309 364 c 0,88,89
 330 343 330 343 342 314 c 0,90,91
 361 269 361 269 370 201 c 0,92,93
 380 132 380 132 380 113 c 0,94,95
 385 77 385 77 387 65 c 1,0,1
EndSplineSet
EndChar

StartChar: o
Encoding: 111 111 82
AltUni2: 00ff4f.ffffffff.0 002134.ffffffff.0 002092.ffffffff.0 001d52.ffffffff.0 000585.ffffffff.0 00043e.ffffffff.0 0003bf.ffffffff.0 0000ba.ffffffff.0 00ff4f.ffffffff.0 002134.ffffffff.0 002092.ffffffff.0 001d52.ffffffff.0 000585.ffffffff.0 00043e.ffffffff.0 0003bf.ffffffff.0 0000ba.ffffffff.0
Width: 474
GlyphClass: 1
Flags: W
AnchorPoint: "Anchor-0" 211 454 basechar 0
LayerCount: 2
Fore
SplineSet
209 305 m 0,0,1
 124 262 124 262 124 197 c 0,2,3
 124 155 124 155 162 119 c 0,4,5
 201 87 201 87 241 87 c 0,6,7
 277 87 277 87 303 109 c 0,8,9
 334 136 334 136 349 185 c 0,10,11
 357 212 357 212 357 233 c 128,-1,12
 357 254 357 254 344 266 c 0,13,14
 324 286 324 286 263 297 c 0,15,16
 259 298 259 298 219 304 c 0,17,18
 215 304 215 304 209 305 c 0,0,1
30 196 m 0,19,20
 30 285 30 285 98 349 c 1,21,22
 92 364 92 364 92 382 c 256,23,24
 92 400 92 400 113 410 c 0,25,26
 127 417 127 417 140 417 c 0,27,28
 155 417 155 417 170 409 c 0,29,30
 175 406 175 406 187 404 c 1,31,32
 190 382 190 382 193 408 c 1,33,34
 206 412 206 412 220 412 c 0,35,36
 244 412 244 412 261 395 c 1,37,38
 275 393 275 393 292 389 c 0,39,40
 380 370 380 370 418 325 c 0,41,42
 452 287 452 287 452 232 c 0,43,44
 452 197 452 197 441 159 c 0,45,46
 395 17 395 17 283 -4 c 0,47,48
 262 -8 262 -8 241 -8 c 0,49,50
 206 -8 206 -8 172 2 c 0,51,52
 122 20 122 20 88 56 c 0,53,54
 30 120 30 120 30 196 c 0,19,20
EndSplineSet
EndChar

StartChar: p
Encoding: 112 112 83
AltUni2: 00ff50.ffffffff.0 00209a.ffffffff.0 001d56.ffffffff.0 000440.ffffffff.0 0003f1.ffffffff.0 0003c1.ffffffff.0 00ff50.ffffffff.0 00209a.ffffffff.0 001d56.ffffffff.0 000440.ffffffff.0 0003f1.ffffffff.0 0003c1.ffffffff.0
Width: 459
GlyphClass: 1
Flags: W
LayerCount: 2
Fore
SplineSet
248 -372 m 0,0,1
 248 -374 248 -374 248 -376 c 0,2,3
 248 -392 248 -392 234 -407 c 0,4,5
 217 -424 217 -424 186 -424 c 0,6,7
 165 -424 165 -424 153 -413 c 0,8,9
 145 -405 145 -405 140 -392 c 0,10,11
 134 -383 134 -383 131 -370 c 0,12,13
 104 -239 104 -239 93 -142 c 0,14,15
 92 -118 92 -118 91 -124 c 1,16,17
 89 -89 89 -89 87 -84 c 0,18,19
 85 -53 85 -53 83 -53 c 1,20,21
 83 -38 83 -38 83 -52 c 1,22,23
 81 -20 81 -20 77 4 c 0,24,25
 72 27 72 27 72 38.5 c 128,-1,26
 72 50 72 50 71 53.5 c 128,-1,27
 70 57 70 57 70 64 c 0,28,29
 70 68 70 68 68.5 80.5 c 128,-1,30
 67 93 67 93 65 128 c 0,31,32
 59 193 59 193 59 251 c 0,33,34
 59 255 59 255 59 260 c 0,35,36
 59 309 59 309 63 354 c 0,37,38
 65 372 65 372 79 384 c 256,39,40
 93 396 93 396 111 396 c 0,41,42
 121 396 121 396 130 392 c 1,43,44
 147 406 147 406 169 414 c 0,45,46
 193 423 193 423 222 423 c 0,47,48
 291 423 291 423 344 374 c 0,49,50
 400 322 400 322 421 243 c 0,51,52
 427 217 427 217 427 187 c 0,53,54
 427 143 427 143 413 87 c 0,55,56
 395 21 395 21 251 -27 c 0,57,58
 244 -29 244 -29 240 -30 c 0,59,60
 232 -18 232 -18 224 -35 c 1,61,62
 197 -43 197 -43 179 -47 c 1,63,64
 180 -40 180 -40 181 -63 c 0,65,66
 194 -135 194 -135 198 -150 c 0,67,68
 242 -307 242 -307 248 -372 c 0,0,1
219 50 m 1,69,70
 302 65 302 65 325 116 c 0,71,72
 336 141 336 141 336 168 c 256,73,74
 336 195 336 195 328 225 c 0,75,76
 314 283 314 283 267 321 c 0,77,78
 240 342 240 342 220 342 c 0,79,80
 176 342 176 342 164 256 c 0,81,82
 159 223 159 223 159 178.5 c 128,-1,83
 159 134 159 134 164 75 c 2,84,-1
 167 39 l 1,85,-1
 167 38 l 2,86,87
 167 37 167 37 167 36 c 0,88,89
 168 35 168 35 169 34 c 0,90,91
 171 34 171 34 174 36 c 0,92,93
 181 39 181 39 191 42 c 2,94,-1
 219 50 l 1,69,70
EndSplineSet
EndChar

StartChar: q
Encoding: 113 113 84
AltUni2: 00ff51.ffffffff.0 00ff51.ffffffff.0
Width: 492
GlyphClass: 1
Flags: W
LayerCount: 2
Fore
SplineSet
209 62 m 0,0,1
 234 62 234 62 262 76 c 0,2,3
 323 109 323 109 349 194 c 0,4,5
 353 209 353 209 353 231 c 0,6,7
 353 236 353 236 353 241 c 1,8,-1
 353 241 l 1,9,10
 353 249 353 249 352 257 c 0,11,12
 352 274 352 274 352 284 c 0,13,14
 352 285 352 285 352 285 c 1,15,16
 284 307 284 307 257 307 c 0,17,18
 252 307 252 307 249 307 c 0,19,20
 239 305 239 305 225 297 c 0,21,22
 205 283 205 283 179 253 c 1,23,-1
 179 253 l 1,24,25
 135 187 135 187 135 133 c 0,26,27
 135 123 135 123 137 114 c 0,28,29
 144 78 144 78 181 66 c 0,30,31
 195 62 195 62 209 62 c 0,0,1
448 76 m 0,32,33
 448 -330 448 -330 461 -420 c 0,34,35
 461 -425 461 -425 461 -429 c 0,36,37
 461 -440 461 -440 452 -449 c 0,38,39
 438 -462 438 -462 414 -462 c 0,40,41
 399 -462 399 -462 387 -457 c 0,42,43
 370 -449 370 -449 367 -436 c 0,44,45
 356 -371 356 -371 353 16 c 1,46,47
 342 7 342 7 329 -1 c 0,48,49
 271 -33 271 -33 210 -33 c 0,50,51
 173 -33 173 -33 140 -21 c 0,52,53
 61 10 61 10 43 98 c 0,54,55
 40 116 40 116 40 134 c 0,56,57
 40 210 40 210 94 295 c 0,58,59
 123 342 123 342 147 365 c 0,60,61
 193 402 193 402 256 402 c 0,62,63
 284 402 284 402 310 397 c 0,64,65
 337 391 337 391 371 379 c 1,66,67
 379 391 379 391 390 396 c 0,68,69
 401 399 401 399 410.5 399 c 128,-1,70
 420 399 420 399 430.5 396 c 128,-1,71
 441 393 441 393 450 386 c 256,72,73
 459 379 459 379 459 369 c 0,74,75
 459 363 459 363 458 357 c 0,76,77
 461 352 461 352 461 348 c 0,78,79
 461 339 461 339 459 331 c 0,80,81
 448 289 448 289 448 76 c 0,32,33
EndSplineSet
EndChar

StartChar: r
Encoding: 114 114 85
AltUni2: 00ff52.ffffffff.0 001d63.ffffffff.0 0002b3.ffffffff.0 00ff52.ffffffff.0 001d63.ffffffff.0 0002b3.ffffffff.0
Width: 421
GlyphClass: 1
Flags: W
LayerCount: 2
Fore
SplineSet
159 -7 m 0,0,1
 154 -16 154 -16 146 -21 c 0,2,3
 132 -31 132 -31 114 -31 c 0,4,5
 101 -31 101 -31 86 -24 c 0,6,7
 73 -18 73 -18 69 -12 c 0,8,9
 67 -8 67 -8 66 -5 c 0,10,11
 60 7 60 7 52 55 c 0,12,13
 44 104 44 104 44 153 c 0,14,15
 44 169 44 169 45 186 c 0,16,17
 45 201 45 201 46 218 c 0,18,19
 48 281 48 281 47 309 c 2,20,-1
 47 317 l 2,21,22
 47 320 47 320 48 321 c 0,23,24
 51 338 51 338 57 356 c 0,25,26
 62 370 62 370 69 379 c 0,27,28
 83 395 83 395 99 401 c 0,29,30
 123 411 123 411 154 411 c 0,31,32
 214 411 214 411 296 385 c 1,33,34
 341 366 341 366 371 339 c 0,35,36
 410 307 410 307 410 269 c 0,37,38
 410 247 410 247 396 234 c 128,-1,39
 382 221 382 221 364 221 c 0,40,41
 343 221 343 221 329.5 234 c 128,-1,42
 316 247 316 247 316 265 c 0,43,44
 316 266 316 266 316 267 c 0,45,46
 315 270 315 270 301 277 c 0,47,48
 284 289 284 289 247 301 c 0,49,50
 190 318 190 318 154 318 c 0,51,52
 150 318 150 318 147 318 c 0,53,54
 143 318 143 318 143 318 c 1,55,56
 143 313 143 313 143 311 c 0,57,58
 145 294 145 294 145 283 c 0,59,60
 148 257 148 257 150 222 c 0,61,62
 151 211 151 211 155 163 c 0,63,64
 162 59 162 59 162 27 c 0,65,66
 162 1 162 1 159 -7 c 0,0,1
EndSplineSet
EndChar

StartChar: s
Encoding: 115 115 86
AltUni2: 00ff53.ffffffff.0 00209b.ffffffff.0 000455.ffffffff.0 0002e2.ffffffff.0 00017f.ffffffff.0 00ff53.ffffffff.0 00209b.ffffffff.0 000455.ffffffff.0 0002e2.ffffffff.0 00017f.ffffffff.0
Width: 390
GlyphClass: 1
Flags: W
LayerCount: 2
Fore
SplineSet
308.5 328.5 m 128,-1,1
 296 315 296 315 277 315 c 0,2,3
 262 315 262 315 231 317 c 1,4,5
 231 302 231 302 230 317 c 1,6,7
 224 318 224 318 219 318 c 0,8,9
 212 314 212 314 193 303 c 128,-1,10
 174 292 174 292 163 283 c 1,11,12
 174 277 174 277 186 272 c 1,13,14
 200 257 200 257 215 261 c 1,15,16
 223 248 223 248 232 253 c 1,17,18
 290 230 290 230 317 209 c 0,19,20
 360 176 360 176 360 132 c 0,21,22
 360 123 360 123 358 114 c 0,23,24
 346 54 346 54 287 20 c 0,25,26
 244 -7 244 -7 183 -13 c 0,27,28
 170 -14 170 -14 158 -14 c 0,29,30
 116 -14 116 -14 85 1 c 0,31,32
 58 12 58 12 46 36 c 0,33,34
 40 48 40 48 40 63 c 256,35,36
 40 78 40 78 48 93.5 c 128,-1,37
 56 109 56 109 74 114 c 0,38,39
 81 116 81 116 90 116 c 256,40,41
 99 116 99 116 108 111 c 0,42,43
 123 103 123 103 129 88 c 0,44,45
 132 81 132 81 132 77 c 128,-1,46
 132 73 132 73 132 72 c 0,47,48
 142 69 142 69 153 69 c 0,49,50
 206 69 206 69 239 90 c 1,51,52
 239 97 239 97 239 90 c 1,53,54
 265 105 265 105 271 132 c 0,55,56
 271 133 271 133 271 134 c 0,57,58
 271 141 271 141 260 150 c 0,59,60
 242 163 242 163 196 183 c 0,61,62
 192 184 192 184 156 199 c 0,63,64
 123 213 123 213 109 222 c 0,65,66
 81 240 81 240 71 265 c 0,67,68
 68 275 68 275 68 285 c 0,69,70
 68 333 68 333 144 376 c 0,71,72
 154 381 154 381 160 386 c 0,73,74
 169 392 169 392 175 395 c 0,75,76
 190 404 190 404 208 406 c 0,77,78
 217 407 217 407 236 406 c 1,79,80
 236 391 236 391 236 406 c 1,81,82
 265 404 265 404 277 404 c 0,83,84
 295 404 295 404 308 391 c 128,-1,85
 321 378 321 378 321 360 c 128,-1,0
 321 342 321 342 308.5 328.5 c 128,-1,1
EndSplineSet
EndChar

StartChar: t
Encoding: 116 116 87
AltUni2: 00ff54.ffffffff.0 00209c.ffffffff.0 001d57.ffffffff.0 00ff54.ffffffff.0 00209c.ffffffff.0 001d57.ffffffff.0
Width: 296
GlyphClass: 1
Flags: W
LayerCount: 2
Fore
SplineSet
83 298 m 0,0,1
 84 303 84 303 85 307 c 1,2,3
 74 306 74 306 71 306 c 0,4,5
 56 306 56 306 42 316 c 128,-1,6
 28 326 28 326 25 346 c 0,7,8
 25 350 25 350 25 353 c 0,9,10
 25 368 25 368 33 380 c 0,11,12
 44 397 44 397 65 400 c 0,13,14
 77 402 77 402 88 403.5 c 128,-1,15
 99 405 99 405 103 405.5 c 128,-1,16
 107 406 107 406 108 406 c 0,17,18
 109 408 109 408 111 418 c 0,19,20
 116 437 116 437 126 469 c 0,21,22
 131 474 131 474 137 510 c 0,23,24
 147 548 147 548 152 569.5 c 128,-1,25
 157 591 157 591 174 601 c 0,26,27
 185 608 185 608 198 608 c 0,28,29
 204 608 204 608 209 607 c 0,30,31
 228 602 228 602 239 586 c 0,32,33
 247 575 247 575 247 561 c 0,34,35
 247 556 247 556 245 545 c 128,-1,36
 243 534 243 534 231.5 494 c 128,-1,37
 220 454 220 454 216 444 c 0,38,39
 213 427 213 427 208 409 c 1,40,41
 228 408 228 408 246 405.5 c 128,-1,42
 264 403 264 403 276 387 c 0,43,44
 285 375 285 375 285 361 c 0,45,46
 285 340 285 340 267 326 c 0,47,48
 254 316 254 316 238 316 c 0,49,50
 235 316 235 316 220 318 c 128,-1,51
 205 320 205 320 185 320 c 1,52,53
 183 315 183 315 181 305 c 0,54,55
 178 297 178 297 177 287 c 0,56,57
 163 218 163 218 163 168 c 0,58,59
 163 144 163 144 166 125 c 0,60,61
 174 71 174 71 214 62 c 0,62,63
 233 57 233 57 243 42 c 0,64,65
 249 32 249 32 249 20 c 0,66,67
 249 14 249 14 247 8 c 0,68,69
 243 -11 243 -11 226 -21 c 0,70,71
 215 -27 215 -27 203 -27 c 0,72,73
 197 -27 197 -27 190 -25 c 0,74,75
 137 -13 137 -13 107 25 c 0,76,77
 81 57 81 57 72 108 c 0,78,79
 67 131 67 131 67 160 c 0,80,81
 67 162 67 162 67 164 c 0,82,83
 67 221 67 221 83 298 c 0,0,1
EndSplineSet
EndChar

StartChar: u
Encoding: 117 117 88
AltUni2: 00ff55.ffffffff.0 001d64.ffffffff.0 001d58.ffffffff.0 00057d.ffffffff.0 00ff55.ffffffff.0 001d64.ffffffff.0 001d58.ffffffff.0 00057d.ffffffff.0
Width: 444
GlyphClass: 1
Flags: W
AnchorPoint: "Anchor-0" 199 398 basechar 0
LayerCount: 2
Fore
SplineSet
147 353.5 m 128,-1,1
 147 345 147 345 145 337 c 0,2,3
 144 322 144 322 142 324 c 1,4,5
 141 320 141 320 139 314 c 0,6,7
 139 307 139 307 139 313 c 1,8,9
 139 305 139 305 139 309 c 1,10,11
 139 302 139 302 138 307 c 1,12,13
 126 258 126 258 120 225 c 0,14,15
 118 208 118 208 118 192 c 0,16,17
 118 144 118 144 139 110 c 0,18,19
 142 105 142 105 151 99 c 0,20,21
 165 93 165 93 174 93 c 2,22,-1
 175 93 l 2,23,24
 176 93 176 93 176 93 c 2,25,26
 252 93 252 93 298 251 c 0,27,28
 298 253 298 253 299.5 259.5 c 128,-1,29
 301 266 301 266 302 269 c 0,30,31
 303 327 303 327 321 369 c 0,32,33
 325 378 325 378 331 383 c 0,34,35
 343 404 343 404 365 404 c 0,36,37
 371 404 371 404 379 402 c 0,38,39
 396 398 396 398 405 383 c 0,40,41
 412 373 412 373 412 362 c 0,42,43
 412 357 412 357 411 353 c 128,-1,44
 410 349 410 349 409 342 c 0,45,46
 394 273 394 273 391 257 c 0,47,48
 389 238 389 238 392 211 c 0,49,50
 395 150 395 150 413 47 c 0,51,52
 414 44 414 44 414 41 c 0,53,54
 414 28 414 28 405 17 c 0,55,56
 392 0 392 0 369 0 c 0,57,58
 355 0 355 0 344 8 c 0,59,60
 329 18 329 18 326 37 c 0,61,62
 323 52 323 52 320 74 c 1,63,64
 301 46 301 46 274 30 c 0,65,66
 229 5 229 5 175 5 c 0,67,68
 173 5 173 5 171 5 c 2,69,-1
 170 5 l 2,70,71
 135 6 135 6 105.5 23.5 c 128,-1,72
 76 41 76 41 62 64 c 0,73,74
 30 117 30 117 30 186 c 0,75,76
 30 207 30 207 33 230 c 0,77,78
 36 262 36 262 52 324 c 0,79,80
 55 339 55 339 56 342 c 1,81,82
 58 338 58 338 60 358 c 0,83,84
 64 374 64 374 79 383 c 0,85,86
 90 391 90 391 102 391 c 0,87,88
 107 391 107 391 112 390 c 0,89,90
 131 386 131 386 141 372 c 0,91,0
 147 362 147 362 147 353.5 c 128,-1,1
140 324 m 1024,92,-1
EndSplineSet
EndChar

StartChar: v
Encoding: 118 118 89
AltUni2: 00ff56.ffffffff.0 002174.ffffffff.0 001d65.ffffffff.0 001d5b.ffffffff.0 00ff56.ffffffff.0 002174.ffffffff.0 001d65.ffffffff.0 001d5b.ffffffff.0
Width: 436
GlyphClass: 1
Flags: W
LayerCount: 2
Fore
SplineSet
29 369 m 0,0,1
 26 378 26 378 26 390 c 0,2,3
 26 396 26 396 32 403 c 0,4,5
 40 415 40 415 60 419 c 0,6,7
 67 421 67 421 76 421 c 128,-1,8
 85 421 85 421 96 417 c 0,9,10
 113 411 113 411 119 398 c 0,11,12
 135 346 135 346 152 281 c 0,13,14
 155 276 155 276 158 267 c 0,15,16
 181 195 181 195 202 147 c 1,17,18
 205 168 205 168 208 180 c 0,19,20
 226 236 226 236 265 295 c 0,21,22
 294 340 294 340 338 403 c 0,23,24
 349 414 349 414 369 417 c 0,25,26
 374 418 374 418 379 418 c 0,27,28
 394 418 394 418 406 412 c 0,29,30
 425 402 425 402 425 385 c 0,31,32
 425 365 425 365 417 349 c 0,33,34
 340 240 340 240 319 157 c 0,35,36
 317 151 317 151 314 115 c 2,37,-1
 314 109 l 1,38,-1
 314 111 l 2,39,40
 314 114 314 114 314 109 c 0,41,42
 313 105 313 105 312 96 c 1,43,44
 312 96 312 96 312 96 c 1,45,46
 312 98 312 98 312 96 c 1,47,48
 308 55 308 55 306 42 c 0,49,50
 303 30 303 30 298 19 c 0,51,52
 290 4 290 4 276 -5 c 0,53,54
 256 -18 256 -18 230 -18 c 0,55,56
 220 -18 220 -18 209 -16 c 0,57,58
 184 -12 184 -12 164 3 c 1,59,60
 141 29 141 29 121 73 c 0,61,62
 105 106 105 106 90 151 c 0,63,64
 76 200 76 200 63 248 c 0,65,66
 62 253 62 253 60 256 c 0,67,68
 41 333 41 333 29 369 c 0,0,1
EndSplineSet
EndChar

StartChar: w
Encoding: 119 119 90
AltUni2: 00ff57.ffffffff.0 0002b7.ffffffff.0 00ff57.ffffffff.0 0002b7.ffffffff.0
Width: 600
GlyphClass: 1
Flags: W
LayerCount: 2
Fore
SplineSet
265 222 m 1,0,-1
 264 233 l 2,1,2
 264 235 264 235 263 241 c 0,3,4
 259 263 259 263 256 293 c 0,5,6
 254 309 254 309 254 318 c 0,7,8
 254 338 254 338 255 349 c 0,9,10
 255 358 255 358 263 372 c 0,11,12
 267 380 267 380 278 388 c 0,13,14
 295 397 295 397 314 397 c 0,15,16
 321 397 321 397 327 396 c 0,17,18
 354 392 354 392 365 375 c 0,19,20
 381 344 381 344 381 298 c 0,21,22
 381 271 381 271 378.5 257 c 128,-1,23
 376 243 376 243 374.5 232 c 128,-1,24
 373 221 373 221 372 216 c 2,25,-1
 372 210 l 2,26,27
 372 209 372 209 373 207 c 2,28,-1
 373 205 l 1,29,-1
 373 201 l 2,30,31
 373 198 373 198 373.5 193 c 128,-1,32
 374 188 374 188 374.5 180.5 c 128,-1,33
 375 173 375 173 377 154 c 0,34,35
 386 109 386 109 397 94 c 1,36,37
 402 94 402 94 404 94 c 256,38,39
 406 94 406 94 408 94 c 0,40,41
 437 100 437 100 455 129 c 1,42,43
 475 173 475 173 475 242 c 0,44,45
 475 353 475 353 439 435 c 0,46,47
 435 447 435 447 435 459 c 0,48,49
 435 466 435 466 438 471 c 0,50,51
 446 484 446 484 465 488 c 0,52,53
 479 492 479 492 481 492 c 128,-1,54
 483 492 483 492 483 492 c 2,55,56
 492 492 492 492 501 489 c 0,57,58
 520 484 520 484 528 472 c 0,59,60
 549 425 549 425 559 360 c 0,61,62
 570 295 570 295 570 241 c 0,63,64
 570 150 570 150 542 89 c 0,65,66
 507 21 507 21 438 3 c 0,67,68
 408 -2 408 -2 400 -2 c 0,69,70
 399 -2 399 -2 399 -2 c 2,71,72
 341 -2 341 -2 306 43 c 0,73,74
 304 47 304 47 301 51 c 1,75,76
 276 19 276 19 245 1 c 0,77,78
 210 -18 210 -18 174 -18 c 0,79,80
 132 -18 132 -18 93 13 c 0,81,82
 55 45 55 45 45 100 c 0,83,84
 30 171 30 171 59 303 c 0,85,86
 61 312 61 312 70 351 c 0,87,88
 75 364 75 364 92 371 c 0,89,90
 103 376 103 376 116 376 c 0,91,92
 122 376 122 376 127 375 c 0,93,94
 146 372 146 372 157 360 c 0,95,96
 165 353 165 353 165 345 c 128,-1,97
 165 337 165 337 163 328 c 0,98,99
 154 287 154 287 152 280 c 0,100,101
 135 202 135 202 135 154 c 0,102,103
 135 103 135 103 157 84 c 0,104,105
 167 79 167 79 174 78 c 0,106,107
 178 78 178 78 184 80 c 0,108,109
 210 93 210 93 237 140 c 0,110,111
 255 179 255 179 265 222 c 1,0,-1
EndSplineSet
EndChar

StartChar: x
Encoding: 120 120 91
AltUni2: 00ff58.ffffffff.0 002179.ffffffff.0 002093.ffffffff.0 001d61.ffffffff.0 000445.ffffffff.0 0003c7.ffffffff.0 0002e3.ffffffff.0 00ff58.ffffffff.0 002179.ffffffff.0 002093.ffffffff.0 001d61.ffffffff.0 000445.ffffffff.0 0003c7.ffffffff.0 0002e3.ffffffff.0
Width: 436
GlyphClass: 1
Flags: W
LayerCount: 2
Fore
SplineSet
44 352 m 0,0,1
 44 358 44 358 48 364 c 0,2,3
 55 377 55 377 74 381 c 0,4,5
 88 385 88 385 90 385 c 128,-1,6
 92 385 92 385 92 384 c 1,7,8
 101 384 101 384 110 382 c 0,9,10
 128 377 128 377 136 365 c 0,11,12
 157 314 157 314 190 264 c 1,13,14
 242 317 242 317 264 332 c 1,15,16
 264 311 264 311 265 333 c 0,17,18
 268 336 268 336 273 337 c 1,19,20
 276 325 276 325 279 344 c 1,21,22
 279 354 279 354 279 344 c 1,23,24
 296 360 296 360 302 371 c 0,25,26
 309 384 309 384 328 389 c 0,27,28
 336 391 336 391 345.5 391 c 128,-1,29
 355 391 355 391 364 388 c 0,30,31
 382 383 382 383 389 370 c 0,32,33
 392 365 392 365 392 358 c 0,34,35
 392 343 392 343 387 332 c 0,36,37
 380 314 380 314 367 296 c 1,38,39
 367 286 367 286 367 296 c 1,40,41
 357 275 357 275 347 276 c 1,42,43
 344 262 344 262 341 270 c 1,44,45
 335 263 335 263 333 261 c 0,46,47
 331 260 331 260 329 259 c 0,48,49
 327 256 327 256 325 255 c 0,50,51
 293 218 293 218 259 183 c 1,52,53
 320 111 320 111 381 80 c 0,54,55
 399 67 399 67 404 42 c 0,56,57
 406 33 406 33 406 22 c 0,58,59
 406 16 406 16 400 9 c 0,60,61
 390 -2 390 -2 371 -6 c 0,62,63
 365 -7 365 -7 355.5 -7 c 128,-1,64
 346 -7 346 -7 335 -3 c 0,65,66
 264 32 264 32 187 108 c 1,67,68
 157 70 157 70 121 9 c 0,69,70
 111 -3 111 -3 92 -7 c 0,71,72
 86 -8 86 -8 79 -8 c 0,73,74
 66 -8 66 -8 55 -3 c 0,75,76
 39 4 39 4 34 17 c 0,77,78
 32 22 32 22 32 29 c 0,79,80
 32 42 32 42 38 57 c 0,81,82
 80 124 80 124 121 185 c 1,83,84
 82 253 82 253 48 328 c 0,85,86
 44 340 44 340 44 352 c 0,0,1
EndSplineSet
EndChar

StartChar: y
Encoding: 121 121 92
AltUni2: 00ff59.ffffffff.0 000443.ffffffff.0 0002b8.ffffffff.0 00ff59.ffffffff.0 000443.ffffffff.0 0002b8.ffffffff.0
Width: 403
GlyphClass: 1
Flags: W
LayerCount: 2
Fore
SplineSet
357 220 m 128,-1,1
 348 136 348 136 345 22 c 0,2,3
 343 -77 343 -77 343 -117 c 0,4,5
 343 -159 343 -159 344 -169 c 0,6,7
 350 -231 350 -231 350 -238 c 0,8,9
 350 -304 350 -304 352 -320 c 1,10,11
 361 -334 361 -334 361 -347 c 0,12,13
 361 -367 361 -367 346 -381 c 1,14,15
 321 -395 321 -395 314 -395 c 2,16,17
 314 -395 314 -395 313 -395 c 0,18,19
 294 -395 294 -395 281 -382 c 0,20,21
 267 -369 267 -369 261.5 -349 c 128,-1,22
 256 -329 256 -329 255 -319 c 0,23,24
 251 -303 251 -303 249 -173 c 0,25,26
 248 -140 248 -140 248 -90.5 c 128,-1,27
 248 -41 248 -41 248 22 c 1,28,29
 243 19 243 19 239 18 c 0,30,31
 222 28 222 28 206 8 c 1,32,33
 205 23 205 23 203 7 c 1,34,-1
 200 7 l 1,35,36
 155 -2 155 -2 143 -2 c 2,37,38
 143 -2 143 -2 142 -2 c 0,39,40
 95 -2 95 -2 63 39 c 0,41,42
 37 72 37 72 23 145 c 0,43,44
 16 183 16 183 16 245 c 128,-1,45
 16 307 16 307 21 337 c 0,46,47
 24 355 24 355 40 366 c 0,48,49
 53 374 53 374 68 374 c 0,50,51
 92 374 92 374 106 355 c 0,52,53
 115 342 115 342 115 327 c 0,54,55
 115 324 115 324 114 314.5 c 128,-1,56
 113 305 113 305 112 270 c 128,-1,57
 111 235 111 235 111 223 c 0,58,59
 111 180 111 180 117 141 c 0,60,61
 125 88 125 88 140 69 c 0,62,63
 145 67 145 67 161 67 c 0,64,65
 167 68 167 68 171 69 c 0,66,67
 175 71 175 71 181.5 73.5 c 128,-1,68
 188 76 188 76 195 82 c 0,69,70
 217 98 217 98 233 146 c 0,71,72
 262 239 262 239 262 340 c 0,73,74
 262 359 262 359 275.5 372.5 c 128,-1,75
 289 386 289 386 307 386 c 0,76,77
 321 386 321 386 330 381 c 0,78,79
 338 380 338 380 344 378 c 0,80,81
 362 372 362 372 370 355 c 0,82,83
 374 346 374 346 374 337 c 256,84,85
 374 328 374 328 371 320 c 0,86,0
 366 304 366 304 357 220 c 128,-1,1
EndSplineSet
EndChar

StartChar: z
Encoding: 122 122 93
AltUni2: 00ff5a.ffffffff.0 001dbb.ffffffff.0 00ff5a.ffffffff.0 001dbb.ffffffff.0
Width: 472
GlyphClass: 1
Flags: W
LayerCount: 2
Fore
SplineSet
398 384 m 0,0,1
 431 364 431 364 431 331 c 0,2,3
 431 312 431 312 420 294.5 c 128,-1,4
 409 277 409 277 381 245 c 0,5,6
 377 241 377 241 373 237 c 1,7,8
 374 238 374 238 377 238 c 128,-1,9
 380 238 380 238 383 238 c 0,10,11
 398 238 398 238 411 231 c 0,12,13
 431 218 431 218 431 195 c 0,14,15
 431 181 431 181 422 169 c 0,16,17
 410 155 410 155 391 152 c 0,18,19
 325 142 325 142 262 139 c 1,20,21
 224 111 224 111 215 104 c 1,22,23
 209 111 209 111 204 95 c 1,24,25
 203 106 203 106 202 93 c 0,26,27
 199 90 199 90 195 86.5 c 128,-1,28
 191 83 191 83 188 81 c 0,29,30
 179 70 179 70 172 62 c 1,31,32
 216 80 216 80 261 68 c 1,33,34
 277 70 277 70 290 70 c 0,35,36
 358 70 358 70 411 41 c 0,37,38
 428 32 428 32 433 13 c 0,39,40
 436 6 436 6 436 -3 c 0,41,42
 436 -13 436 -13 430 -24 c 0,43,44
 420 -41 420 -41 402 -46 c 0,45,46
 395 -48 395 -48 386 -48 c 0,47,48
 376 -48 376 -48 366 -42 c 0,49,50
 339 -27 339 -27 307 -26 c 1,51,52
 307 -11 307 -11 307 -26 c 1,53,54
 303 -26 303 -26 290 -26 c 128,-1,55
 277 -26 277 -26 227 -30 c 0,56,57
 150 -37 150 -37 103 -33 c 0,58,59
 66 -30 66 -30 54 3 c 0,60,61
 50 13 50 13 50 23 c 0,62,63
 50 35 50 35 53 42 c 0,64,65
 60 66 60 66 77 90 c 0,66,67
 101 126 101 126 118 144 c 1,68,69
 113 145 113 145 107 146 c 0,70,71
 88 149 88 149 77 164 c 0,72,73
 69 175 69 175 69 188 c 0,74,75
 69 193 69 193 70 197 c 0,76,77
 73 215 73 215 90 225 c 0,78,79
 102 233 102 233 116 233 c 0,80,81
 121 233 121 233 126 232 c 0,82,83
 168 225 168 225 212 224 c 1,84,85
 228 236 228 236 232 240 c 0,86,87
 304 297 304 297 321 314 c 1,88,89
 311 315 311 315 297 316 c 1,90,91
 297 308 297 308 296 316 c 1,92,93
 273 318 273 318 196 320 c 1,94,95
 132 315 132 315 75 327 c 0,96,97
 56 330 56 330 44.5 342.5 c 128,-1,98
 33 355 33 355 33 371 c 0,99,100
 33 392 33 392 50 405 c 0,101,102
 64 416 64 416 80 416 c 0,103,104
 82 416 82 416 93 415 c 128,-1,105
 104 414 104 414 141 412 c 0,106,107
 183 410 183 410 233 408 c 128,-1,108
 283 406 283 406 306 404 c 0,109,110
 352 401 352 401 370 395 c 0,111,112
 389 390 389 390 398 384 c 0,0,1
EndSplineSet
EndChar

StartChar: braceleft
Encoding: 123 123 94
AltUni2: 00ff5b.ffffffff.0 00fe5b.ffffffff.0 00fe37.ffffffff.0 00ff5b.ffffffff.0 00fe5b.ffffffff.0 00fe37.ffffffff.0
Width: 357
GlyphClass: 1
Flags: W
LayerCount: 2
Fore
SplineSet
308 685 m 2,0,-1
 303 685 l 2,1,2
 270 685 270 685 255 654 c 0,3,4
 237 616 237 616 228 528 c 0,5,6
 228 524 228 524 227 518 c 128,-1,7
 226 512 226 512 225 505 c 0,8,9
 218 389 218 389 198 340 c 0,10,11
 187 314 187 314 165 292 c 0,12,13
 154 280 154 280 130 262 c 1,14,-1
 129 261 l 1,15,16
 188 206 188 206 218 126 c 0,17,18
 225 109 225 109 228.5 80.5 c 128,-1,19
 232 52 232 52 235 4 c 0,20,21
 237 -20 237 -20 239 -53 c 0,22,23
 248 -140 248 -140 264 -173 c 0,24,25
 269 -184 269 -184 276 -188 c 0,26,27
 279 -190 279 -190 284 -190 c 128,-1,28
 289 -190 289 -190 297 -188.5 c 128,-1,29
 305 -187 305 -187 306.5 -187 c 128,-1,30
 308 -187 308 -187 308 -187 c 2,31,32
 323 -187 323 -187 335 -194 c 0,33,34
 354 -205 354 -205 360 -227 c 0,35,36
 361 -234 361 -234 361 -241 c 0,37,38
 361 -256 361 -256 354 -268 c 0,39,40
 343 -287 343 -287 321 -292.5 c 128,-1,41
 299 -298 299 -298 279 -298 c 0,42,43
 205 -298 205 -298 166 -221 c 0,44,45
 135 -153 135 -153 128 -3 c 0,46,47
 123 73 123 73 116 90 c 0,48,49
 104 125 104 125 78 157 c 128,-1,50
 52 189 52 189 26 204 c 0,51,52
 8 217 8 217 1 237 c 0,53,54
 -3 245 -3 245 -3 255 c 0,55,56
 -3 263 -3 263 -0.5 272 c 128,-1,57
 2 281 2 281 9 293 c 0,58,59
 21 316 21 316 53 340 c 0,60,61
 58 344 58 344 63 346 c 2,62,-1
 64 348 l 1,63,-1
 65 348 l 1,64,65
 93 369 93 369 98 383 c 0,66,67
 105 398 105 398 109 427.5 c 128,-1,68
 113 457 113 457 115 484 c 0,69,70
 117 508 117 508 120 537 c 2,71,-1
 120 538 l 1,72,73
 124 581 124 581 131 621 c 0,74,75
 141 667 141 667 158 701 c 0,76,77
 202 793 202 793 302 793 c 0,78,79
 305 793 305 793 308 793 c 2,80,-1
 309 793 l 2,81,82
 331 792 331 792 345.5 776 c 128,-1,83
 360 760 360 760 360 740 c 0,84,85
 360 716 360 716 344 700.5 c 128,-1,86
 328 685 328 685 308 685 c 2,0,-1
EndSplineSet
Substitution2: "'rtla' Right to Left Alternates lookup 0 subtable" braceright
EndChar

StartChar: bar
Encoding: 124 124 95
AltUni2: 00ffe8.ffffffff.0 00ff5c.ffffffff.0 002758.ffffffff.0 002502.ffffffff.0 002223.ffffffff.0 0001c0.ffffffff.0 00ffe8.ffffffff.0 00ff5c.ffffffff.0 002758.ffffffff.0 002502.ffffffff.0 002223.ffffffff.0 0001c0.ffffffff.0
Width: 173
GlyphClass: 1
Flags: W
LayerCount: 2
Fore
SplineSet
64 715 m 0,0,1
 62 723 62 723 62 729 c 128,-1,2
 62 735 62 735 63 740 c 0,3,4
 63 744 63 744 65 748.5 c 128,-1,5
 67 753 67 753 67 754 c 2,6,-1
 67 757 l 2,7,8
 67 779 67 779 83 794.5 c 128,-1,9
 99 810 99 810 121.5 810 c 128,-1,10
 144 810 144 810 159.5 794 c 128,-1,11
 175 778 175 778 175 756 c 2,12,-1
 176 602 l 2,13,14
 178 460 178 460 178 389 c 128,-1,15
 178 318 178 318 175 237 c 0,16,17
 175 231 175 231 170 152 c 1,18,-1
 170 152 l 1,19,-1
 167 121 l 2,20,21
 160 26 160 26 159.5 -1 c 128,-1,22
 159 -28 159 -28 159 -40 c 0,23,24
 159 -99 159 -99 167 -144 c 0,25,26
 167 -148 167 -148 167 -152 c 0,27,28
 167 -169 167 -169 157 -184 c 0,29,30
 145 -202 145 -202 122 -206 c 0,31,32
 118 -206 118 -206 114 -206 c 0,33,34
 97 -206 97 -206 82 -196 c 0,35,36
 64 -183 64 -183 60 -161 c 0,37,38
 51 -99 51 -99 51 -28 c 0,39,40
 51 -21 51 -21 51 -14 c 1,41,-1
 51 -14 l 1,42,43
 52 30 52 30 59 130 c 1,44,-1
 59 131 l 1,45,-1
 61 149 l 1,46,-1
 62 159 l 1,47,-1
 62 160 l 2,48,49
 63 168 63 168 64.5 197.5 c 128,-1,50
 66 227 66 227 67 241 c 0,51,52
 70 319 70 319 70 390 c 128,-1,53
 70 461 70 461 68 601 c 1,54,-1
 68 601 l 1,55,56
 68 628 68 628 67.5 657.5 c 128,-1,57
 67 687 67 687 67 696 c 1,58,-1
 65 698 l 1,59,-1
 65 704 l 1,60,-1
 65 707 l 2,61,62
 65 710 65 710 64 715 c 0,0,1
EndSplineSet
EndChar

StartChar: braceright
Encoding: 125 125 96
AltUni2: 00ff5d.ffffffff.0 00fe5c.ffffffff.0 00fe38.ffffffff.0 00ff5d.ffffffff.0 00fe5c.ffffffff.0 00fe38.ffffffff.0
Width: 381
GlyphClass: 1
Flags: W
LayerCount: 2
Fore
SplineSet
81 671 m 2,0,-1
 72 671 l 2,1,2
 52 671 52 671 37 686 c 0,3,4
 20 703 20 703 20 725 c 128,-1,5
 20 747 20 747 34.5 762.5 c 128,-1,6
 49 778 49 778 71 779 c 1,7,-1
 71 779 l 1,8,9
 76 779 76 779 80 779 c 0,10,11
 177 779 177 779 225 687 c 0,12,13
 240 652 240 652 250 607 c 0,14,15
 254 586 254 586 262 525 c 0,16,17
 264 505 264 505 268 464 c 0,18,19
 271 426 271 426 274 405.5 c 128,-1,20
 277 385 277 385 283 370 c 0,21,22
 290 354 290 354 317 334 c 0,23,24
 327 328 327 328 330 325 c 0,25,26
 361 303 361 303 374 279 c 0,27,28
 381 267 381 267 385 253 c 0,29,30
 386 247 386 247 386 239.5 c 128,-1,31
 386 232 386 232 382 223 c 0,32,33
 375 202 375 202 356 191 c 0,34,35
 331 176 331 176 304.5 143.5 c 128,-1,36
 278 111 278 111 265 76 c 0,37,38
 259 57 259 57 254 -17 c 2,39,-1
 250 -75 l 2,40,41
 241 -179 241 -179 214 -234 c 0,42,43
 175 -312 175 -312 99 -312 c 0,44,45
 80 -312 80 -312 58.5 -306.5 c 128,-1,46
 37 -301 37 -301 26 -282 c 0,47,48
 19 -270 19 -270 19 -255 c 0,49,50
 19 -248 19 -248 20 -241 c 0,51,52
 26 -220 26 -220 45 -208 c 0,53,54
 57 -200 57 -200 72 -200 c 0,55,56
 79 -200 79 -200 86 -201.5 c 128,-1,57
 93 -203 93 -203 97.5 -203 c 128,-1,58
 102 -203 102 -203 106 -201 c 0,59,60
 111 -199 111 -199 118 -185 c 0,61,62
 137 -148 137 -148 143 -49 c 0,63,64
 146 -21 146 -21 146 -9 c 1,65,-1
 146 -9 l 1,66,67
 151 78 151 78 164 113 c 0,68,69
 194 192 194 192 253 247 c 1,70,71
 232 263 232 263 217 277 c 0,72,73
 195 299 195 299 184 327 c 0,74,75
 172 351 172 351 166 397 c 0,76,77
 162 422 162 422 158 471 c 0,78,79
 156 487 156 487 154 515 c 0,80,81
 145 604 145 604 128 639 c 0,82,83
 111 671 111 671 81 671 c 2,0,-1
EndSplineSet
Substitution2: "'rtla' Right to Left Alternates lookup 0 subtable" braceleft
EndChar

StartChar: asciitilde
Encoding: 126 126 97
AltUni2: 00ff5e.ffffffff.0 00223c.ffffffff.0 000303.ffffffff.0 00ff5e.ffffffff.0 00223c.ffffffff.0 000303.ffffffff.0
Width: 406
GlyphClass: 1
Flags: W
LayerCount: 2
Fore
SplineSet
37 261 m 0,0,1
 37 300 37 300 58 340 c 0,2,3
 72 368 72 368 94 383 c 1,4,5
 127 397 127 397 136 397 c 0,6,7
 137 397 137 397 137 397 c 2,8,9
 174 397 174 397 201 366 c 0,10,11
 208 357 208 357 220 338 c 0,12,13
 221 336 221 336 222 334 c 0,14,15
 231 317 231 317 234 317 c 1,16,17
 234 317 234 317 234 317 c 1,18,19
 239 314 239 314 244 314 c 0,20,21
 253 314 253 314 265 323 c 0,22,23
 288 342 288 342 288 370 c 0,24,25
 288 388 288 388 300.5 400 c 128,-1,26
 313 412 313 412 331 412 c 128,-1,27
 349 412 349 412 361 399.5 c 128,-1,28
 373 387 373 387 373 370 c 0,29,30
 373 305 373 305 320 258 c 0,31,32
 286 229 286 229 245 229 c 0,33,34
 218 229 218 229 192 243 c 0,35,36
 177 251 177 251 163 270 c 0,37,38
 156 280 156 280 151 287 c 2,39,-1
 138 309 l 1,40,41
 135 305 135 305 133 301 c 0,42,43
 121 278 121 278 121 261 c 0,44,45
 121 258 121 258 121.5 255 c 128,-1,46
 122 252 122 252 122 249 c 0,47,48
 122 235 122 235 112 222 c 0,49,50
 100 207 100 207 79 207 c 0,51,52
 65 207 65 207 52.5 217 c 128,-1,53
 40 227 40 227 38 245 c 0,54,55
 37 253 37 253 37 261 c 0,0,1
EndSplineSet
EndChar

StartChar: cent
Encoding: 162 162 99
AltUni2: 00ffe0.ffffffff.0 00ffe0.ffffffff.0
Width: 425
GlyphClass: 1
Flags: W
LayerCount: 2
Fore
SplineSet
151 205 m 0,0,1
 135 178 135 178 135 154 c 0,2,3
 135 110 135 110 181 85 c 1,4,5
 175 129 175 129 170 175 c 1,6,7
 170 160 170 160 170 175 c 1,8,9
 168 194 168 194 166 224 c 1,10,11
 159 216 159 216 151 205 c 0,0,1
393 7 m 0,12,13
 379 -3 379 -3 363 -3 c 1,14,15
 351 13 351 13 339 -1 c 1,16,-1
 329 -1 l 1,17,18
 338 -59 338 -59 342 -79 c 128,-1,19
 346 -99 346 -99 346 -106 c 0,20,21
 346 -121 346 -121 337 -134 c 0,22,23
 325 -153 325 -153 303 -157 c 0,24,25
 297 -158 297 -158 292 -158 c 0,26,27
 271 -158 271 -158 254 -148 c 0,28,29
 230 -136 230 -136 225 -114 c 0,30,31
 215 -74 215 -74 200 -2 c 1,32,33
 151 3 151 3 121 19 c 0,34,35
 45 61 45 61 30 131 c 0,36,37
 27 147 27 147 27 163 c 0,38,39
 27 211 27 211 55 257 c 0,40,41
 91 324 91 324 162 361 c 0,42,43
 164 362 164 362 165 362 c 0,44,45
 169 437 169 437 186 502 c 0,46,47
 192 524 192 524 215 536 c 0,48,49
 232 544 232 544 250 544 c 0,50,51
 258 544 258 544 266 543 c 0,52,53
 294 538 294 538 306 520 c 0,54,55
 315 507 315 507 315 492 c 0,56,57
 315 485 315 485 314 479 c 0,58,59
 305 442 305 442 302 393 c 1,60,61
 325 394 325 394 349 392 c 1,62,63
 350 377 350 377 350 392 c 1,64,65
 373 389 373 389 387 371 c 0,66,67
 397 356 397 356 397 338 c 0,68,69
 397 311 397 311 377 295 c 0,70,71
 362 284 362 284 344 284 c 0,72,73
 340 284 340 284 333 285 c 128,-1,74
 326 286 326 286 316.5 286 c 128,-1,75
 307 286 307 286 299 285 c 1,76,77
 300 196 300 196 313 97 c 1,78,79
 349 98 349 98 370 95 c 0,80,81
 392 92 392 92 405 75 c 0,82,83
 415 63 415 63 415 48 c 0,84,85
 415 22 415 22 393 7 c 0,12,13
EndSplineSet
EndChar

StartChar: sterling
Encoding: 163 163 100
AltUni2: 00ffe1.ffffffff.0 00ffe1.ffffffff.0
Width: 498
GlyphClass: 1
Flags: W
LayerCount: 2
Fore
SplineSet
57 313 m 0,0,1
 59 313 59 313 61 314 c 0,2,3
 54 367 54 367 54 398 c 0,4,5
 54 432 54 432 57 454.5 c 128,-1,6
 60 477 60 477 68 507 c 0,7,8
 80 557 80 557 96 592 c 0,9,10
 125 653 125 653 163 674 c 0,11,12
 191 688 191 688 219 688 c 0,13,14
 264 688 264 688 306 651 c 0,15,16
 343 618 343 618 359 591 c 0,17,18
 375 565 375 565 379 525 c 0,19,20
 379 521 379 521 379 518 c 0,21,22
 379 500 379 500 368 485 c 0,23,24
 349 465 349 465 318 465 c 0,25,26
 298 465 298 465 279.5 477.5 c 128,-1,27
 261 490 261 490 258 511 c 128,-1,28
 255 532 255 532 248 543 c 128,-1,29
 241 554 241 554 219 573 c 1,30,31
 199 547 199 547 178 481 c 0,32,33
 174 461 174 461 171 453 c 0,34,35
 167 429 167 429 167 400 c 0,36,37
 167 358 167 358 174 323 c 1,38,39
 240 323 240 323 280 324 c 1,40,41
 281 309 281 309 281 324 c 1,42,43
 306 324 306 324 324 309 c 0,44,45
 343 293 343 293 343 270 c 128,-1,46
 343 247 343 247 325.5 231.5 c 128,-1,47
 308 216 308 216 282 216 c 0,48,49
 249 215 249 215 200 215 c 1,50,51
 207 184 207 184 214 173 c 1,52,53
 214 165 214 165 214 171 c 1,54,55
 214 164 214 164 214 171 c 1,56,57
 215 167 215 167 219 157 c 0,58,59
 222 147 222 147 226 137.5 c 128,-1,60
 230 128 230 128 233 118 c 1,61,62
 247 120 247 120 266 120 c 0,63,64
 287 120 287 120 311 116 c 0,65,66
 370 106 370 106 413 80 c 0,67,68
 463 49 463 49 483 11 c 0,69,70
 488 0 488 0 488 -10 c 0,71,72
 488 -11 488 -11 488 -11 c 2,73,74
 488 -21 488 -21 484 -31 c 0,75,76
 475 -52 475 -52 456 -61 c 0,77,78
 445 -66 445 -66 434.5 -66 c 128,-1,79
 424 -66 424 -66 414 -62 c 0,80,81
 393 -54 393 -54 384 -33 c 0,82,83
 377 -16 377 -16 348 1 c 0,84,85
 317 19 317 19 284 26 c 0,86,87
 270 29 270 29 262 29 c 1,88,89
 261 43 261 43 261 27 c 0,90,91
 262 23 262 23 262 18 c 0,92,93
 262 2 262 2 251 -12 c 0,94,95
 232 -34 232 -34 199 -34 c 0,96,97
 180 -34 180 -34 164 -24 c 0,98,99
 143 -11 143 -11 138 13 c 0,100,101
 138 28 138 28 138 14 c 1,102,103
 138 16 138 16 138 18.5 c 128,-1,104
 138 21 138 21 138 22 c 0,105,106
 132 30 132 30 131 36 c 0,107,108
 128 54 128 54 118 89 c 0,109,110
 112 107 112 107 108 118 c 0,111,112
 102 138 102 138 99 149 c 0,113,114
 88 184 88 184 82 208 c 1,115,116
 73 207 73 207 68 207 c 0,117,118
 53 207 53 207 41 215 c 0,119,120
 22 227 22 227 16 248 c 0,121,122
 15 255 15 255 15 262 c 0,123,124
 15 277 15 277 23 289 c 0,125,126
 35 308 35 308 57 313 c 0,0,1
EndSplineSet
EndChar

StartChar: currency
Encoding: 164 164 101
Width: 541
GlyphClass: 1
Flags: W
LayerCount: 2
Fore
SplineSet
321 356 m 0,0,1
 290 341 290 341 281 341 c 2,2,3
 281 341 281 341 265 342 c 0,4,5
 252 342 252 342 240 330 c 1,6,7
 240 315 240 315 239 329 c 1,8,9
 218 311 218 311 212 280 c 0,10,11
 210 270 210 270 210 262 c 0,12,13
 210 246 210 246 218 234 c 0,14,15
 226 220 226 220 257 220 c 0,16,17
 303 220 303 220 327 241 c 0,18,19
 349 264 349 264 351 297 c 0,20,21
 351 333 351 333 335 349 c 0,22,23
 329 356 329 356 321 356 c 0,0,1
114 189 m 1,24,25
 98 223 98 223 98 262 c 0,26,27
 98 310 98 310 120 356 c 1,28,29
 109 366 109 366 101 376 c 0,30,31
 92 386 92 386 86 398 c 1,32,33
 86 385 86 385 86 401 c 1,34,35
 83 391 83 391 81 411 c 1,36,37
 74 411 74 411 67 441 c 0,38,39
 61 452 61 452 61 462.5 c 128,-1,40
 61 473 61 473 64 482 c 0,41,42
 72 504 72 504 92 514 c 0,43,44
 103 519 103 519 113.5 519 c 128,-1,45
 124 519 124 519 133 516 c 0,46,47
 154 508 154 508 164 489 c 0,48,49
 167 484 167 484 172 472.5 c 128,-1,50
 177 461 177 461 179 456 c 0,51,52
 182 451 182 451 183 447 c 0,53,54
 185 431 185 431 187 444 c 1,55,56
 187 429 187 429 187 443 c 1,57,58
 192 438 192 438 195 435 c 0,59,60
 226 449 226 449 260 450 c 1,61,62
 281 465 281 465 321 465 c 0,63,64
 346 465 346 465 369 457 c 1,65,66
 385 474 385 474 391 480 c 0,67,68
 413 499 413 499 441 523 c 0,69,70
 457 537 457 537 477 537 c 0,71,72
 502 537 502 537 518 517 c 0,73,74
 530 502 530 502 530 483 c 0,75,76
 530 458 530 458 512 441 c 0,77,78
 473 410 473 410 451 381 c 1,79,80
 467 345 467 345 467 304 c 0,81,82
 467 241 467 241 436 192 c 0,83,84
 437 189 437 189 439 186 c 128,-1,85
 441 183 441 183 443 180 c 0,86,87
 448 159 448 159 453 167 c 0,88,89
 454 167 454 167 456 165.5 c 128,-1,90
 458 164 458 164 459 162 c 0,91,92
 480 146 480 146 480 119 c 0,93,94
 480 101 480 101 468 87 c 0,95,96
 451 66 451 66 425 66 c 0,97,98
 407 66 407 66 389 78 c 0,99,100
 387 79 387 79 381.5 83 c 128,-1,101
 376 87 376 87 369 92.5 c 128,-1,102
 362 98 362 98 344 120 c 0,103,104
 342 122 342 122 341 124 c 0,105,106
 305 112 305 112 261 112 c 0,107,108
 229 112 229 112 199 119 c 1,109,110
 181 95 181 95 173.5 72.5 c 128,-1,111
 166 50 166 50 146 40 c 0,112,113
 134 35 134 35 124 35 c 128,-1,114
 114 35 114 35 105 38 c 0,115,116
 85 45 85 45 74 64 c 0,117,118
 68 76 68 76 68 86.5 c 128,-1,119
 68 97 68 97 71 106 c 0,120,121
 85 149 85 149 114 189 c 1,24,25
EndSplineSet
EndChar

StartChar: yen
Encoding: 165 165 102
AltUni2: 00ffe5.ffffffff.0 00ffe5.ffffffff.0
Width: 473
GlyphClass: 1
Flags: W
LayerCount: 2
Fore
SplineSet
205 21 m 1,0,1
 193 19 193 19 189 19 c 0,2,3
 167 19 167 19 147 31 c 0,4,5
 130 42 130 42 127 63 c 0,6,7
 127 65 127 65 127 67 c 0,8,9
 127 84 127 84 139 100 c 0,10,11
 153 116 153 116 180 118 c 1,12,13
 159 119 159 119 144 129 c 0,14,15
 125 143 125 143 125 166 c 0,16,17
 125 184 125 184 138 199 c 0,18,19
 152 215 152 215 178 217 c 0,20,21
 202 220 202 220 218 222 c 1,22,23
 219 239 219 239 219 247 c 128,-1,24
 219 255 219 255 219 256 c 0,25,26
 191 287 191 287 144 348 c 0,27,28
 140 352 140 352 139 355 c 0,29,30
 109 399 109 399 90 425.5 c 128,-1,31
 71 452 71 452 45 476 c 0,32,33
 28 492 28 492 28 514.5 c 128,-1,34
 28 537 28 537 43 552 c 0,35,36
 59 570 59 570 82 570 c 128,-1,37
 105 570 105 570 119 555 c 0,38,39
 152 525 152 525 186 485 c 0,40,41
 212 456 212 456 246 412 c 1,42,43
 247 395 247 395 249 408 c 1,44,45
 261 392 261 392 272 378 c 1,46,47
 299 419 299 419 302 421 c 1,48,49
 302 407 302 407 302 422 c 1,50,51
 346 485 346 485 359 514 c 0,52,53
 368 534 368 534 388 542 c 0,54,55
 398 546 398 546 408.5 546 c 128,-1,56
 419 546 419 546 430 541 c 0,57,58
 451 531 451 531 459 510 c 0,59,60
 462 500 462 500 462 490 c 256,61,62
 462 480 462 480 458 470 c 0,63,64
 436 424 436 424 403 369 c 0,65,66
 401 365 401 365 398 362 c 0,67,68
 367 310 367 310 352 277 c 1,69,70
 354 266 354 266 351 256 c 1,71,72
 369 261 369 261 372.5 261.5 c 128,-1,73
 376 262 376 262 382 262 c 0,74,75
 397 262 397 262 409 255 c 0,76,77
 428 243 428 243 435 222 c 0,78,79
 436 215 436 215 436 208 c 0,80,81
 436 195 436 195 429 184 c 0,82,83
 418 167 418 167 396 163 c 0,84,85
 388 161 388 161 344 149 c 0,86,87
 343 148 343 148 340 148 c 1,88,89
 340 146 340 146 340 144 c 128,-1,90
 340 142 340 142 340 140 c 1,91,92
 342 141 342 141 349.5 143.5 c 128,-1,93
 357 146 357 146 367.5 146 c 128,-1,94
 378 146 378 146 389 142 c 0,95,96
 409 134 409 134 417 116 c 0,97,98
 421 107 421 107 421 98 c 128,-1,99
 421 89 421 89 416 80 c 0,100,101
 407 61 407 61 386 54 c 0,102,103
 367 48 367 48 333 41 c 1,104,105
 333 28 333 28 333 14.5 c 128,-1,106
 333 1 333 1 334 -11 c 1,107,108
 334 3 334 3 334 -12 c 0,109,110
 334 -32 334 -32 336 -51 c 0,111,112
 338 -59 338 -59 338.5 -61 c 128,-1,113
 339 -63 339 -63 339 -64 c 0,114,115
 349 -83 349 -83 342 -104 c 0,116,117
 334 -126 334 -126 311 -135 c 0,118,119
 297 -141 297 -141 285 -141 c 128,-1,120
 273 -141 273 -141 263 -138 c 0,121,122
 237 -131 237 -131 224 -112 c 0,123,124
 205 -82 205 -82 205 5 c 0,125,126
 205 12 205 12 205 21 c 1,0,1
EndSplineSet
EndChar

StartChar: brokenbar
Encoding: 166 166 103
AltUni2: 00ffe4.ffffffff.0 00ffe4.ffffffff.0
Width: 223
GlyphClass: 1
Flags: W
LayerCount: 2
Fore
SplineSet
182 368.5 m 128,-1,1
 166 348 166 348 143.5 348 c 128,-1,2
 121 348 121 348 105.5 367.5 c 128,-1,3
 90 387 90 387 90 417 c 0,4,5
 90 465 90 465 84 561 c 0,6,7
 84 570 84 570 83 579 c 0,8,9
 77 688 77 688 77 762 c 0,10,11
 77 772 77 772 77 782 c 1,12,13
 77 782 77 782 77 782 c 1,14,15
 78 798 78 798 94 809 c 0,16,17
 109 820 109 820 129 820 c 0,18,19
 154 820 154 820 170 809 c 0,20,21
 185 797 185 797 185 780 c 1,22,-1
 185 780 l 1,23,24
 185 770 185 770 185 761 c 0,25,26
 185 690 185 690 191 586 c 0,27,28
 192 576 192 576 192 566 c 0,29,30
 198 468 198 468 198 417 c 0,31,0
 198 389 198 389 182 368.5 c 128,-1,1
196 241 m 2,32,-1
 194 192 l 2,33,34
 194 169 194 169 196 144 c 1,35,-1
 196 144 l 1,36,37
 197 121 197 121 203 51 c 1,38,39
 203 51 203 51 203 49 c 0,40,41
 203 45 203 45 204 42 c 0,42,43
 205 36 205 36 205 32 c 0,44,45
 212 -47 212 -47 212 -100 c 0,46,47
 212 -116 212 -116 196 -127.5 c 128,-1,48
 180 -139 180 -139 158 -139 c 128,-1,49
 136 -139 136 -139 120 -127.5 c 128,-1,50
 104 -116 104 -116 104 -100 c 0,51,52
 104 -53 104 -53 97 23 c 0,53,54
 97 24 97 24 97 24 c 2,55,56
 97 25 97 25 97 31 c 0,57,58
 96 36 96 36 96 41 c 0,59,60
 89 106 89 106 88 136 c 0,61,62
 86 205 86 205 88 242 c 0,63,64
 89 258 89 258 105 268 c 256,65,66
 121 278 121 278 140 278 c 0,67,68
 166 278 166 278 183 265 c 0,69,70
 196 255 196 255 196 241 c 2,32,-1
EndSplineSet
EndChar

StartChar: section
Encoding: 167 167 104
Width: 420
GlyphClass: 2
Flags: W
LayerCount: 2
Fore
SplineSet
323 159 m 1024,0,-1
115 248 m 1024,1,-1
108 60 m 0,2,3
 111 53 111 53 111 47 c 1,4,5
 121 45 121 45 133 45 c 0,6,7
 198 45 198 45 246 62 c 0,8,9
 280 74 280 74 286 95 c 0,10,11
 287 96 287 96 287 97 c 0,12,13
 287 102 287 102 275 106 c 0,14,15
 216 127 216 127 198 131 c 0,16,17
 119 150 119 150 87 167 c 0,18,19
 55 185 55 185 48 204 c 0,20,21
 46 213 46 213 46 222 c 0,22,23
 46 245 46 245 62 268 c 1,24,25
 66 259 66 259 70 281 c 1,26,27
 105 256 105 256 118 249 c 1,28,29
 119 234 119 234 121 250 c 1,30,31
 131 243 131 243 133 240 c 0,32,33
 135 225 135 225 137 240 c 1,34,35
 137 222 137 222 137 234 c 1,36,37
 140 231 140 231 140 227 c 128,-1,38
 140 223 140 223 138 219 c 0,39,40
 139 211 139 211 142 210 c 0,41,42
 154 204 154 204 179 197 c 0,43,44
 203 192 203 192 232 184 c 0,45,46
 323 165 323 165 325.5 164.5 c 128,-1,47
 328 164 328 164 331 162 c 0,48,49
 377 137 377 137 377 98 c 0,50,51
 377 89 377 89 375 81 c 0,52,53
 363 32 363 32 301 4 c 0,54,55
 233 -28 233 -28 143 -28 c 0,56,57
 100 -28 100 -28 64 -15 c 0,58,59
 37 -6 37 -6 23 15 c 0,60,61
 16 25 16 25 16 38 c 256,62,63
 16 51 16 51 25 64 c 128,-1,64
 34 77 34 77 52 81 c 0,65,66
 59 83 59 83 67 83 c 128,-1,67
 75 83 75 83 85 79 c 0,68,69
 101 73 101 73 108 60 c 0,2,3
122 240 m 1024,70,-1
97 255 m 1024,71,-1
305 166 m 1024,72,-1
313 344 m 0,73,74
 310 351 310 351 310 358 c 1,75,76
 300 361 300 361 294 361 c 0,77,78
 275 361 275 361 260 360 c 0,79,80
 213 356 213 356 174 341 c 0,81,82
 140 327 140 327 134 304 c 0,83,84
 134 302 134 302 134 301 c 0,85,86
 134 296 134 296 145 291 c 0,87,88
 204 267 204 267 222 262 c 0,89,90
 301 241 301 241 333 221 c 0,91,92
 366 201 366 201 372 180 c 0,93,94
 375 171 375 171 375 162 c 0,95,96
 375 139 375 139 359 115 c 1,97,98
 354 94 354 94 350 103 c 1,99,100
 316 127 316 127 302 134 c 1,101,102
 301 119 301 119 299 134 c 1,103,104
 290 141 290 141 287 144 c 1,105,106
 285 129 285 129 283 143 c 1,107,108
 283 131 283 131 283 149 c 0,109,110
 281 153 281 153 281 157 c 128,-1,111
 281 161 281 161 283 164 c 0,112,113
 282 172 282 172 278 174 c 0,114,115
 266 179 266 179 241.5 186 c 128,-1,116
 217 193 217 193 213 194 c 128,-1,117
 209 195 209 195 188 202 c 0,118,119
 97 224 97 224 93 225 c 1,120,121
 91 211 91 211 89 227 c 1,122,123
 43 256 43 256 43 301 c 0,124,125
 43 311 43 311 45 321 c 0,126,127
 57 377 57 377 119 410 c 1,128,129
 187 441 187 441 277 441 c 0,130,131
 321 441 321 441 356 429 c 0,132,133
 383 419 383 419 397 395 c 0,134,135
 404 383 404 383 404 368.5 c 128,-1,136
 404 354 404 354 395 338 c 0,137,138
 386 324 386 324 368 319 c 0,139,140
 362 317 362 317 353.5 317 c 128,-1,141
 345 317 345 317 336 322 c 0,142,143
 319 329 319 329 313 344 c 0,73,74
298 174 m 1024,144,-1
EndSplineSet
EndChar

StartChar: copyright
Encoding: 169 169 106
Width: 707
GlyphClass: 1
Flags: W
LayerCount: 2
Fore
SplineSet
605 584 m 0,0,1
 659 530 659 530 672 478 c 0,2,3
 696 378 696 378 696 296 c 128,-1,4
 696 214 696 214 669 151 c 0,5,6
 620 35 620 35 489 6 c 0,7,8
 451 -2 451 -2 412 -2 c 0,9,10
 338 -2 338 -2 260 28 c 0,11,12
 144 72 144 72 98 154 c 0,13,14
 71 202 71 202 71 272 c 0,15,16
 71 299 71 299 75 330 c 0,17,18
 89 426 89 426 136 513 c 0,19,20
 188 610 188 610 264 654 c 0,21,22
 314 682 314 682 366 682 c 0,23,24
 399 682 399 682 432 671 c 0,25,26
 440 671 440 671 446.5 671 c 128,-1,27
 453 671 453 671 462 668 c 0,28,29
 550 638 550 638 605 584 c 0,0,1
182 316 m 0,30,31
 178 291 178 291 178 271 c 0,32,33
 178 230 178 230 192 206 c 0,34,35
 223 157 223 157 302 128 c 0,36,37
 359 107 359 107 412 107 c 0,38,39
 437 107 437 107 462 112 c 0,40,41
 540 128 540 128 570 193 c 0,42,43
 589 235 589 235 589 296 c 0,44,45
 589 297 589 297 589 297 c 2,46,47
 589 362 589 362 566 451 c 0,48,49
 559 476 559 476 526 507 c 0,50,51
 496 536 496 536 447 558 c 1,52,53
 439 556 439 556 432 556 c 0,54,55
 416 556 416 556 403 564 c 0,56,57
 385 574 385 574 366 574 c 128,-1,58
 347 574 347 574 324 561 c 0,59,60
 275 533 275 533 234 462.5 c 128,-1,61
 193 392 193 392 182 316 c 0,30,31
435 515 m 0,62,63
 437 515 437 515 439 515 c 0,64,65
 460 515 460 515 479 503 c 0,66,67
 500 488 500 488 500 461 c 0,68,69
 500 442 500 442 485.5 426 c 128,-1,70
 471 410 471 410 447 408 c 0,71,72
 379 400 379 400 354 375 c 0,73,74
 341 362 341 362 341 347 c 0,75,76
 341 343 341 343 341 339 c 0,77,78
 348 314 348 314 378 294 c 0,79,80
 417 269 417 269 479 269 c 0,81,82
 504 269 504 269 521 253 c 128,-1,83
 538 237 538 237 538 215 c 128,-1,84
 538 193 538 193 521 177 c 128,-1,85
 504 161 504 161 479 161 c 0,86,87
 382 161 382 161 311.5 205.5 c 128,-1,88
 241 250 241 250 227 318 c 0,89,90
 223 334 223 334 223 350 c 0,91,92
 223 405 223 405 269 449 c 0,93,94
 327 503 327 503 435 515 c 0,62,63
EndSplineSet
EndChar

StartChar: guillemotleft
Encoding: 171 171 107
AltUni2: 00fe3d.ffffffff.0 00300a.ffffffff.0 00226a.ffffffff.0 00fe3d.ffffffff.0 00300a.ffffffff.0 00226a.ffffffff.0
Width: 488
GlyphClass: 1
Flags: W
LayerCount: 2
Fore
SplineSet
180 286 m 0,0,1
 169 271 169 271 169 264 c 0,2,3
 169 248 169 248 169 263 c 1,4,5
 168 257 168 257 177 248 c 0,6,7
 195 227 195 227 241 198 c 0,8,9
 268 181 268 181 268 154 c 0,10,11
 268 137 268 137 254 122 c 0,12,13
 235 101 235 101 202 101 c 0,14,15
 181 101 181 101 166 112 c 0,16,17
 117 147 117 147 91 182 c 0,18,19
 61 219 61 219 61 263 c 256,20,21
 61 307 61 307 93 351 c 0,22,23
 110 374 110 374 159 423 c 0,24,25
 174 438 174 438 200 438 c 0,26,27
 227 438 227 438 246 421 c 0,28,29
 264 406 264 406 264 386 c 0,30,31
 264 361 264 361 244 345 c 0,32,33
 199 310 199 310 180 286 c 0,0,1
466 178.5 m 128,-1,35
 477 163 477 163 477 145 c 0,36,37
 477 118 477 118 456 102 c 0,38,39
 441 92 441 92 423 92 c 0,40,41
 419 92 419 92 416 92 c 0,42,43
 384 97 384 97 361 119 c 0,44,45
 350 129 350 129 329 154 c 1,46,47
 329 140 329 140 329 155 c 1,48,49
 324 160 324 160 320 166 c 0,50,51
 268 217 268 217 254 243 c 0,52,53
 243 263 243 263 243 281 c 0,54,55
 243 312 243 312 271 336 c 0,56,57
 282 345 282 345 296 353 c 0,58,59
 307 360 307 360 320 367 c 0,60,61
 349 384 349 384 370 405 c 0,62,63
 385 422 385 422 408 422 c 128,-1,64
 431 422 431 422 446 407 c 0,65,66
 463 391 463 391 463 369 c 256,67,68
 463 347 463 347 448 331 c 0,69,70
 424 306 424 306 390 280 c 0,71,72
 385 277 385 277 380 273 c 1,73,74
 390 258 390 258 409 234 c 0,75,76
 416 227 416 227 423 216 c 1,77,78
 425 199 425 199 426 212 c 1,79,80
 435 200 435 200 436 199 c 0,81,34
 455 194 455 194 466 178.5 c 128,-1,35
EndSplineSet
EndChar

StartChar: glyph108
Encoding: 172 172 108
AltUni2: 00ffe2.ffffffff.0 00ffe2.ffffffff.0
Width: 525
GlyphClass: 2
Flags: W
LayerCount: 2
Fore
SplineSet
68 272 m 128,-1,1
 62 272 62 272 60 272 c 0,2,3
 36 272 36 272 19.5 288.5 c 128,-1,4
 3 305 3 305 3 328 c 128,-1,5
 3 351 3 351 19.5 367.5 c 128,-1,6
 36 384 36 384 59 384 c 0,7,8
 68 385 68 385 145 394 c 0,9,10
 250 404 250 404 306.5 404 c 128,-1,11
 363 404 363 404 399 399 c 0,12,13
 452 389 452 389 480 361 c 0,14,15
 500 341 500 341 504 313 c 0,16,17
 507 301 507 301 507 295 c 0,18,19
 507 273 507 273 506 263 c 0,20,21
 503 240 503 240 498.5 217 c 128,-1,22
 494 194 494 194 494 179 c 0,23,24
 494 155 494 155 476.5 139 c 128,-1,25
 459 123 459 123 435 123 c 128,-1,26
 411 123 411 123 395 139 c 0,27,28
 377 156 377 156 377 178 c 0,29,30
 377 207 377 207 386 244 c 0,31,32
 386 245 386 245 388.5 259 c 128,-1,33
 391 273 391 273 391 278 c 128,-1,34
 391 283 391 283 391 285 c 0,35,36
 384 287 384 287 375 288 c 0,37,38
 350 292 350 292 319 292 c 0,39,40
 244 292 244 292 123 278 c 0,41,0
 74 272 74 272 68 272 c 128,-1,1
EndSplineSet
EndChar

StartChar: registered
Encoding: 174 174 110
Width: 887
GlyphClass: 1
Flags: W
LayerCount: 2
Fore
SplineSet
334 -67 m 0,0,1
 328 -67 328 -67 322 -66 c 0,2,3
 131 -29 131 -29 50 132 c 0,4,5
 5 225 5 225 5 333 c 0,6,7
 5 388 5 388 17 446 c 0,8,9
 53 619 53 619 172 723 c 0,10,11
 282 815 282 815 425 815 c 0,12,13
 464 815 464 815 506 808 c 0,14,15
 697 775 697 775 802 611 c 0,16,17
 877 489 877 489 877 352 c 0,18,19
 877 319 877 319 873 286 c 0,20,21
 851 103 851 103 708 14 c 0,22,23
 608 -46 608 -46 475 -46 c 0,24,25
 431 -46 431 -46 384 -40 c 1,26,27
 376 -53 376 -53 363 -61 c 0,28,29
 349 -67 349 -67 334 -67 c 0,0,1
428 484 m 0,30,31
 424 484 424 484 420 484 c 1,32,33
 420 462 420 462 420 484 c 1,34,35
 395 483 395 483 371 474 c 1,36,37
 373 475 373 475 373 476 c 1,38,39
 373 469 373 469 372 459 c 0,40,41
 370 447 370 447 370 420 c 1,42,43
 384 427 384 427 405 436 c 0,44,45
 410 439 410 439 414 440 c 256,46,47
 418 441 418 441 419 441 c 128,-1,48
 420 441 420 441 420 441 c 1,49,50
 460 460 460 460 467 468 c 1,51,52
 461 484 461 484 428 484 c 0,30,31
401 260 m 2,53,54
 398 260 398 260 386 261 c 1,55,56
 391 227 391 227 391 203 c 0,57,58
 391 181 391 181 374 165 c 128,-1,59
 357 149 357 149 334 149 c 128,-1,60
 311 149 311 149 294 165 c 128,-1,61
 277 181 277 181 277 203 c 0,62,63
 277 236 277 236 270 291 c 1,64,-1
 270 294 l 1,65,66
 270 294 270 294 269 294 c 0,67,68
 268 301 268 301 268 309 c 0,69,70
 262 360 262 360 259 382 c 0,71,72
 256 405 256 405 256 414 c 0,73,74
 256 418 256 418 257 420 c 0,75,76
 252 423 252 423 247 426 c 0,77,78
 228 442 228 442 224 470 c 0,79,80
 223 477 223 477 223 484 c 0,81,82
 223 495 223 495 233 505 c 0,83,84
 263 544 263 544 312 567 c 0,85,86
 366 592 366 592 428 592 c 0,87,88
 476 592 476 592 514 572 c 0,89,90
 565 547 565 547 578 496 c 0,91,92
 581 485 581 485 581 474 c 0,93,94
 581 422 581 422 539 384 c 0,95,96
 523 370 523 370 501 359 c 0,97,98
 500 359 500 359 500 359 c 2,99,100
 497 357 497 357 488 352 c 1,101,102
 516 339 516 339 542 313 c 0,103,104
 556 297 556 297 582 260 c 1,105,106
 583 248 583 248 584 258 c 1,107,108
 585 247 585 247 585 257 c 1,109,110
 607 228 607 228 619 214 c 0,111,112
 632 204 632 204 632 190 c 0,113,114
 632 165 632 165 613 150 c 0,115,116
 597 136 597 136 576 136 c 0,117,118
 551 136 551 136 534 153 c 0,119,120
 517 168 517 168 491 198 c 1,121,122
 491 177 491 177 491 201 c 1,123,124
 490 195 490 195 490 203 c 0,125,126
 490 208 490 208 489 202 c 1,127,128
 473 222 473 222 458 240 c 1,129,130
 442 252 442 252 431 257 c 0,131,132
 429 257 429 257 425 258 c 0,133,134
 417 259 417 259 411 259 c 2,135,-1
 409 259 l 1,136,137
 408 230 408 230 407 260 c 1,138,139
 406 257 406 257 404 260 c 2,140,-1
 401 260 l 2,53,54
474 61 m 0,141,142
 574 61 574 61 645 104 c 0,143,144
 750 166 750 166 766 298 c 0,145,146
 769 324 769 324 769 349 c 0,147,148
 769 459 769 459 707 555 c 0,149,150
 624 678 624 678 485 702 c 0,151,152
 456 707 456 707 428 707 c 0,153,154
 327 707 327 707 249 643 c 1,155,156
 249 626 249 626 249 643 c 1,157,158
 152 563 152 563 124 425 c 0,159,160
 114 375 114 375 114 331 c 0,161,162
 114 245 114 245 150 172 c 0,163,164
 186 106 186 106 256 71 c 1,165,166
 272 88 272 88 293 88 c 0,167,168
 301 88 301 88 311 85 c 0,169,170
 400 61 400 61 474 61 c 0,141,142
EndSplineSet
EndChar

StartChar: degree
Encoding: 176 176 111
AltUni2: 0025e6.ffffffff.0 002218.ffffffff.0 00030a.ffffffff.0 0025e6.ffffffff.0 002218.ffffffff.0 00030a.ffffffff.0
Width: 342
GlyphClass: 1
Flags: W
AnchorPoint: "Anchor-0" 167 396 mark 0
LayerCount: 2
Fore
SplineSet
185 395 m 1024,0,-1
149 645 m 2,1,2
 149 645 149 645 150 645 c 0,3,4
 151 608 151 608 152 649 c 0,5,6
 152 658 152 658 153 649 c 1,7,8
 175 657 175 657 194 657 c 0,9,10
 224 657 224 657 249 640 c 0,11,12
 281 619 281 619 295 576 c 0,13,14
 305 547 305 547 305 518 c 0,15,16
 305 443 305 443 265 406 c 0,17,18
 225 370 225 370 176 370 c 0,19,20
 164 370 164 370 150 372 c 0,21,22
 93 383 93 383 58 432 c 0,23,24
 30 472 30 472 30 517 c 0,25,26
 30 532 30 532 36 547 c 0,27,28
 52 603 52 603 128 642 c 0,29,30
 137 645 137 645 149 645 c 2,1,2
115 518 m 0,31,32
 115 501 115 501 125 484 c 0,33,34
 140 461 140 461 165 455 c 0,35,36
 170 454 170 454 175 454 c 0,37,38
 194 454 194 454 211 471 c 0,39,40
 220 482 220 482 220 518 c 0,41,42
 220 534 220 534 214 552 c 0,43,44
 207 568 207 568 197 574 c 0,45,46
 195 572 195 572 193.5 572 c 128,-1,47
 192 572 192 572 190 572 c 0,48,49
 182 567 182 567 172 567 c 2,50,-1
 171 567 l 2,51,52
 170 567 170 567 169 567 c 0,53,54
 125 547 125 547 117 525 c 0,55,56
 115 521 115 521 115 518 c 0,31,32
EndSplineSet
EndChar

StartChar: plusminus
Encoding: 177 177 112
Width: 513
GlyphClass: 1
Flags: W
LayerCount: 2
Fore
SplineSet
243 190 m 0,0,1
 218 247 218 247 210 328 c 1,2,3
 155 326 155 326 130 325 c 1,4,5
 130 310 130 310 129 325 c 1,6,7
 106 325 106 325 90 340 c 128,-1,8
 74 355 74 355 73 378 c 0,9,10
 73 400 73 400 88 416 c 128,-1,11
 103 432 103 432 125 433 c 1,12,13
 125 418 125 418 125 433 c 1,14,15
 150 434 150 434 205 436 c 1,16,17
 206 466 206 466 210 539 c 1,18,19
 210 524 210 524 210 539 c 1,20,21
 211 562 211 562 230 576 c 128,-1,22
 249 590 249 590 273 590 c 0,23,24
 302 590 302 590 320 574 c 128,-1,25
 338 558 338 558 338 538 c 0,26,27
 338 536 338 536 336 508 c 128,-1,28
 334 480 334 480 333 436 c 1,29,30
 393 434 393 434 453 428 c 0,31,32
 475 426 475 426 488.5 410 c 128,-1,33
 502 394 502 394 502 375 c 0,34,35
 502 349 502 349 482 332 c 0,36,37
 467 321 467 321 449 321 c 0,38,39
 446 321 446 321 414.5 323.5 c 128,-1,40
 383 326 383 326 339 327 c 1,41,42
 346 265 346 265 363 227 c 0,43,44
 368 218 368 218 368 208 c 1,45,46
 368 208 368 208 368 208 c 1,47,48
 368 197 368 197 362 186 c 0,49,50
 351 165 351 165 325 158 c 0,51,52
 307 154 307 154 304.5 154 c 128,-1,53
 302 154 302 154 302 154 c 2,54,55
 289 154 289 154 277 159 c 0,56,57
 253 168 253 168 243 190 c 0,0,1
184 5 m 0,58,59
 163 -2 163 -2 143 8 c 0,60,61
 113 23 113 23 113 59 c 0,62,63
 113 69 113 69 119 81 c 0,64,65
 130 100 130 100 150 107 c 0,66,67
 197 123 197 123 262 123 c 0,68,69
 282 123 282 123 306.5 121 c 128,-1,70
 331 119 331 119 364 114 c 0,71,72
 395 110 395 110 404.5 108.5 c 128,-1,73
 414 107 414 107 419 106 c 0,74,75
 441 103 441 103 455 85 c 0,76,77
 465 70 465 70 465 52 c 0,78,79
 465 25 465 25 444 9 c 0,80,81
 429 -1 429 -1 411 -1 c 0,82,83
 408 -1 408 -1 404.5 -1 c 128,-1,84
 401 -1 401 -1 371 4 c 0,85,86
 313 12 313 12 293 13.5 c 128,-1,87
 273 15 273 15 261 15 c 0,88,89
 220 15 220 15 184 5 c 0,58,59
EndSplineSet
EndChar

StartChar: acute
Encoding: 180 180 113
AltUni2: 001ffd.ffffffff.0 000341.ffffffff.0 000301.ffffffff.0 001ffd.ffffffff.0 000341.ffffffff.0 000301.ffffffff.0
Width: 309
GlyphClass: 1
Flags: W
LayerCount: 2
Fore
SplineSet
71 474 m 0,0,1
 56 482 56 482 51 498 c 0,2,3
 49 505 49 505 49 513 c 128,-1,4
 49 521 49 521 54 531 c 0,5,6
 74 570 74 570 108 609 c 0,7,8
 134 638 134 638 180 679 c 2,9,10
 180 679 180 679 192 690 c 128,-1,11
 204 701 204 701 220 701 c 0,12,13
 239 701 239 701 251 688 c 128,-1,14
 263 675 263 675 263 659 c 0,15,16
 263 639 263 639 249 627 c 0,17,18
 242 621 242 621 237 617 c 256,19,20
 232 613 232 613 229 610 c 0,21,22
 190 573 190 573 172 553 c 0,23,24
 146 523 146 523 129 491 c 0,25,26
 121 476 121 476 104 471 c 0,27,28
 97 469 97 469 89 469 c 128,-1,29
 81 469 81 469 71 474 c 0,0,1
EndSplineSet
EndChar

StartChar: uni00B5
Encoding: 181 181 114
Width: 535
GlyphClass: 1
Flags: W
LayerCount: 2
Fore
SplineSet
242 -38 m 0,0,1
 201 -38 201 -38 167 -16 c 1,2,3
 162 -64 162 -64 158 -126 c 0,4,5
 151 -229 151 -229 150 -237 c 0,6,7
 147 -253 147 -253 131.5 -262.5 c 128,-1,8
 116 -272 116 -272 96 -272 c 0,9,10
 93 -272 93 -272 91 -272 c 0,11,12
 68 -270 68 -270 55 -259 c 0,13,14
 42 -247 42 -247 42 -233 c 0,15,16
 42 -230 42 -230 43 -220 c 0,17,18
 44 -211 44 -211 52 -109 c 0,19,20
 59 -6 59 -6 62 22 c 0,21,22
 67 85 67 85 78 162 c 0,23,24
 96 279 96 279 128 380 c 0,25,26
 129 380 129 380 131 389 c 1,27,28
 37 46 37 46 132 391 c 0,29,30
 133 391 133 391 135 401 c 0,31,32
 137 406 137 406 141 419 c 0,33,34
 146 432 146 432 149 439 c 0,35,36
 157 454 157 454 179 461 c 0,37,38
 192 465 192 465 204 465 c 128,-1,39
 216 465 216 465 227 462 c 0,40,41
 252 456 252 456 262 439 c 0,42,43
 279 411 279 411 260 384 c 0,44,45
 250 367 250 367 248 364 c 0,46,47
 242 355 242 355 238 341 c 0,48,49
 234 323 234 323 230 308 c 0,50,51
 224 284 224 284 218 268 c 0,52,53
 205 227 205 227 199 201 c 0,54,55
 196 175 196 175 196 166 c 0,56,57
 196 155 196 155 197 144 c 0,58,59
 206 104 206 104 237 72 c 1,60,61
 237 72 237 72 238 72 c 0,62,63
 273 110 273 110 301 165 c 0,64,65
 321 203 321 203 348 277 c 0,66,67
 350 281 350 281 352 283 c 0,68,69
 370 335 370 335 386 376 c 0,70,71
 402 414 402 414 423 454 c 0,72,73
 432 468 432 468 453 474 c 0,74,75
 463 476 463 476 473 476 c 0,76,77
 484 476 484 476 495 472 c 0,78,79
 513 465 513 465 520 452 c 0,80,81
 525 442 525 442 525 430 c 0,82,83
 522 426 522 426 524 422 c 0,84,85
 525 419 525 419 525 417 c 0,86,87
 525 414 525 414 525 414 c 2,88,89
 525 398 525 398 518 383 c 0,90,91
 479 305 479 305 476 213 c 0,92,93
 476 203 476 203 476 192 c 0,94,95
 476 126 476 126 490 18 c 0,96,97
 490 13 490 13 490 9 c 0,98,99
 490 -4 490 -4 480 -15 c 0,100,101
 464 -30 464 -30 437 -30 c 0,102,103
 419 -30 419 -30 404 -22 c 0,104,105
 383 -12 383 -12 380 6 c 0,106,107
 376 33 376 33 373 54 c 1,108,109
 355 26 355 26 338 6 c 0,110,111
 296 -38 296 -38 242 -38 c 0,0,1
EndSplineSet
EndChar

StartChar: paragraph
Encoding: 182 182 115
Width: 512
GlyphClass: 1
Flags: W
LayerCount: 2
Fore
SplineSet
222 603 m 1,0,1
 208 598 208 598 196 593 c 0,2,3
 120 562 120 562 102 504 c 0,4,5
 86 456 86 456 121 419 c 0,6,7
 152 386 152 386 209 380 c 1,8,9
 208 411 208 411 208 466 c 0,10,11
 211 550 211 550 222 603 c 1,0,1
361 698 m 0,12,13
 365 700 365 700 375 700 c 0,14,15
 381 700 381 700 387 698 c 0,16,17
 441 694 441 694 468 690 c 0,18,19
 484 688 484 688 494 675 c 128,-1,20
 504 662 504 662 502 646 c 128,-1,21
 500 630 500 630 487 620.5 c 128,-1,22
 474 611 474 611 458 613 c 0,23,24
 423 617 423 617 410 618 c 1,25,26
 394 206 394 206 443 -158 c 0,27,28
 445 -174 445 -174 435.5 -187 c 128,-1,29
 426 -200 426 -200 409 -202 c 0,30,31
 393 -204 393 -204 380 -194.5 c 128,-1,32
 367 -185 367 -185 366 -169 c 0,33,34
 316 200 316 200 332 620 c 1,35,36
 323 620 323 620 307 618 c 1,37,38
 289 562 289 562 286 464 c 0,39,40
 286 391 286 391 288 347 c 2,41,-1
 288 343 l 2,42,43
 290 340 290 340 288 337 c 0,44,45
 289 322 289 322 296 222 c 0,46,47
 297 203 297 203 305 120 c 0,48,49
 313 27 313 27 318 -30 c 0,50,51
 323 -118 323 -118 323 -160 c 0,52,53
 323 -176 323 -176 311.5 -187.5 c 128,-1,54
 300 -199 300 -199 284 -199 c 128,-1,55
 268 -199 268 -199 256.5 -187.5 c 128,-1,56
 245 -176 245 -176 245 -160 c 0,57,58
 245 -100 245 -100 240 -36 c 0,59,60
 236 11 236 11 227 113 c 0,61,62
 225 134 225 134 222.5 167 c 128,-1,63
 220 200 220 200 218 216 c 0,64,65
 215 266 215 266 212 302 c 1,66,67
 119 308 119 308 65 365 c 0,68,69
 34 398 34 398 23.5 441 c 128,-1,70
 13 484 13 484 27 527 c 0,71,72
 55 620 55 620 167 666 c 0,73,74
 248 699 248 699 361 698 c 0,12,13
EndSplineSet
EndChar

StartChar: periodcentered
Encoding: 183 183 116
AltUni2: 0022c5.ffffffff.0 002219.ffffffff.0 0006d4.ffffffff.0 000387.ffffffff.0 0022c5.ffffffff.0 002219.ffffffff.0 0006d4.ffffffff.0 000387.ffffffff.0
Width: 264
GlyphClass: 1
Flags: W
LayerCount: 2
Fore
SplineSet
125 402 m 1,0,-1
 130 407 l 2,1,2
 136 411 136 411 139 412 c 0,3,4
 143 413 143 413 144 413 c 0,5,6
 146 414 146 414 147 414 c 2,7,-1
 148 414 l 1,8,-1
 150 414 l 2,9,10
 151 415 151 415 154 415 c 0,11,12
 163 415 163 415 167 416 c 0,13,14
 187 416 187 416 205 413 c 0,15,16
 220 410 220 410 229 403 c 0,17,18
 249 392 249 392 253 371 c 0,19,20
 257 352 257 352 246 331 c 0,21,22
 241 322 241 322 224 305 c 0,23,24
 214 295 214 295 205 290 c 0,25,26
 190 280 190 280 176 277 c 0,27,28
 143 272 143 272 120 285 c 0,29,30
 94 302 94 302 91 332 c 0,31,32
 86 373 86 373 125 402 c 1,0,-1
EndSplineSet
EndChar

StartChar: cedilla
Encoding: 184 184 117
AltUni2: 000327.ffffffff.0 000327.ffffffff.0
Width: 272
GlyphClass: 1
Flags: W
LayerCount: 2
Fore
SplineSet
183 -114 m 1,0,1
 178 -114 178 -114 171 -117 c 0,2,3
 165 -117 165 -117 162 -120 c 0,4,5
 154 -122 154 -122 151 -122 c 0,6,7
 146 -124 146 -124 134 -124 c 0,8,9
 112 -122 112 -122 101 -105 c 0,10,11
 92 -90 92 -90 95 -72 c 0,12,13
 96 -65 96 -65 101 -55 c 0,14,15
 106 -44 106 -44 120 -19 c 0,16,17
 122 -16 122 -16 125.5 -11.5 c 128,-1,18
 129 -7 129 -7 132.5 -2 c 128,-1,19
 136 3 136 3 141 9 c 2,20,-1
 149 21 l 2,21,22
 159 34 159 34 175 36.5 c 128,-1,23
 191 39 191 39 204 29 c 128,-1,24
 217 19 217 19 219.5 3.5 c 128,-1,25
 222 -12 222 -12 212 -26 c 0,26,27
 212 -27 212 -27 209.5 -30 c 128,-1,28
 207 -33 207 -33 205 -36 c 1,29,30
 216 -38 216 -38 226 -42 c 0,31,32
 240 -47 240 -47 248 -60 c 0,33,34
 253 -66 253 -66 256 -76 c 0,35,36
 261 -89 261 -89 261 -100 c 0,37,38
 265 -156 265 -156 224 -220 c 0,39,40
 211 -239 211 -239 182 -259 c 0,41,42
 166 -269 166 -269 152 -272 c 0,43,44
 128 -276 128 -276 112.5 -259 c 128,-1,45
 97 -242 97 -242 103 -219 c 0,46,47
 107 -205 107 -205 119 -196.5 c 128,-1,48
 131 -188 131 -188 145 -190 c 1,49,50
 156 -181 156 -181 158 -177 c 0,51,52
 181 -143 181 -143 183 -114 c 1,0,1
EndSplineSet
EndChar

StartChar: guillemotright
Encoding: 187 187 118
AltUni2: 00fe3e.ffffffff.0 00300b.ffffffff.0 00226b.ffffffff.0 00fe3e.ffffffff.0 00300b.ffffffff.0 00226b.ffffffff.0
Width: 470
GlyphClass: 1
Flags: W
LayerCount: 2
Fore
SplineSet
146 417 m 0,0,1
 148 416 148 416 150.5 414 c 128,-1,2
 153 412 153 412 157.5 408 c 128,-1,3
 162 404 162 404 166 401 c 0,4,5
 167 400 167 400 169.5 398.5 c 128,-1,6
 172 397 172 397 173 396 c 0,7,8
 179 391 179 391 181 390 c 0,9,10
 190 384 190 384 196 378 c 0,11,12
 202 374 202 374 211 366.5 c 128,-1,13
 220 359 220 359 223 357 c 0,14,15
 258 327 258 327 268 304 c 0,16,17
 274 290 274 290 269 275 c 0,18,19
 268 273 268 273 265 266 c 0,20,21
 261 260 261 260 258 257 c 0,22,23
 255 252 255 252 244 241 c 0,24,25
 216 213 216 213 204 202 c 1,26,-1
 204 201 l 1,27,28
 195 192 195 192 184.5 182 c 128,-1,29
 174 172 174 172 171 169 c 0,30,31
 167 164 167 164 160 157 c 0,32,33
 159 155 159 155 157 153 c 2,34,-1
 156 152 l 2,35,36
 147 138 147 138 131.5 135 c 128,-1,37
 116 132 116 132 102 141 c 128,-1,38
 88 150 88 150 85 165.5 c 128,-1,39
 82 181 82 181 91 195 c 0,40,41
 102 210 102 210 149 257 c 1,42,-1
 150 257 l 1,43,-1
 182 289 l 1,44,45
 176 295 176 295 173 297 c 0,46,47
 169 301 169 301 149 316 c 0,48,49
 147 318 147 318 141.5 322 c 128,-1,50
 136 326 136 326 134 328 c 2,51,-1
 127 333 l 2,52,53
 121 337 121 337 119 339 c 0,54,55
 99 354 99 354 94 359 c 0,56,57
 82 370 82 370 81 386 c 128,-1,58
 80 402 80 402 91 414 c 0,59,60
 101 426 101 426 117.5 427 c 128,-1,61
 134 428 134 428 146 417 c 0,0,1
340 424 m 0,62,63
 360 400 360 400 393 375 c 0,64,65
 394 374 394 374 404.5 366 c 128,-1,66
 415 358 415 358 417 356 c 0,67,68
 429 347 429 347 439 336 c 0,69,70
 460 313 460 313 459 284 c 0,71,72
 458 260 458 260 437 231 c 0,73,74
 398 182 398 182 337 130 c 0,75,76
 325 120 325 120 309 121 c 128,-1,77
 293 122 293 122 282 134 c 0,78,79
 271 147 271 147 272.5 163 c 128,-1,80
 274 179 274 179 287 189 c 0,81,82
 345 240 345 240 374 278 c 0,83,84
 376 280 376 280 377.5 282.5 c 128,-1,85
 379 285 379 285 380 286 c 1,86,87
 378 287 378 287 374 290 c 0,88,89
 371 293 371 293 369 295 c 2,90,-1
 345 313 l 2,91,92
 310 340 310 340 281 373 c 0,93,94
 271 385 271 385 272 401 c 128,-1,95
 273 417 273 417 285 428 c 0,96,97
 297 438 297 438 313 437 c 128,-1,98
 329 436 329 436 340 424 c 0,62,63
EndSplineSet
EndChar

StartChar: onequarter
Encoding: 188 188 119
Width: 370
GlyphClass: 1
Flags: W
LayerCount: 2
Fore
SplineSet
299 92 m 0,0,1
 298 84 298 84 298 65 c 2,2,-1
 298 63 l 1,3,4
 313 64 313 64 325.5 54 c 128,-1,5
 338 44 338 44 339 28 c 0,6,7
 341 12 341 12 331 -0.5 c 128,-1,8
 321 -13 321 -13 305 -15 c 2,9,-1
 295 -17 l 1,10,11
 292 -64 292 -64 286 -107 c 0,12,13
 283 -124 283 -124 270 -133 c 128,-1,14
 257 -142 257 -142 241 -140 c 128,-1,15
 225 -138 225 -138 215.5 -125 c 128,-1,16
 206 -112 206 -112 208 -96 c 0,17,18
 214 -56 214 -56 215 -34 c 1,19,20
 197 -38 197 -38 174 -36 c 0,21,22
 142 -33 142 -33 119 -17 c 0,23,24
 103 -6 103 -6 96 16 c 0,25,26
 93 31 93 31 94 46 c 0,27,28
 96 72 96 72 104 101 c 0,29,30
 107 113 107 113 113 129 c 0,31,32
 115 134 115 134 118.5 146 c 128,-1,33
 122 158 122 158 125 166.5 c 128,-1,34
 128 175 128 175 128 176 c 0,35,36
 133 191 133 191 147 198.5 c 128,-1,37
 161 206 161 206 177 202 c 128,-1,38
 193 198 193 198 200.5 184 c 128,-1,39
 208 170 208 170 203 154 c 0,40,41
 203 152 203 152 196 131.5 c 128,-1,42
 189 111 189 111 187 105 c 0,43,44
 180 84 180 84 179 80 c 0,45,46
 172 54 172 54 172 43 c 1,47,48
 187 40 187 40 212 44 c 0,49,50
 213 44 213 44 215.5 44.5 c 128,-1,51
 218 45 218 45 219 45 c 1,52,53
 219 48 219 48 219.5 55.5 c 128,-1,54
 220 63 220 63 220 67 c 0,55,56
 220 87 220 87 221 94 c 0,57,58
 221 110 221 110 232.5 121.5 c 128,-1,59
 244 133 244 133 261 132 c 0,60,61
 277 131 277 131 288 119.5 c 128,-1,62
 299 108 299 108 299 92 c 0,0,1
60 333 m 0,63,64
 145 331 145 331 203 332 c 2,65,-1
 241 332 l 1,66,-1
 321 332 l 2,67,68
 337 332 337 332 348.5 320.5 c 128,-1,69
 360 309 360 309 360 293 c 128,-1,70
 360 277 360 277 348.5 265.5 c 128,-1,71
 337 254 337 254 321 254 c 2,72,-1
 241 254 l 1,73,-1
 204 254 l 2,74,75
 145 253 145 253 58 255 c 0,76,77
 42 255 42 255 30.5 266.5 c 128,-1,78
 19 278 19 278 20 294 c 0,79,80
 20 310 20 310 31.5 321.5 c 128,-1,81
 43 333 43 333 60 333 c 0,63,64
205 616 m 0,82,83
 205 583 205 583 203 549 c 0,84,85
 203 531 203 531 202 524 c 0,86,87
 200 455 200 455 205 424 c 0,88,89
 207 407 207 407 196.5 394.5 c 128,-1,90
 186 382 186 382 170 381 c 0,91,92
 154 379 154 379 141.5 389 c 128,-1,93
 129 399 129 399 127 415 c 0,94,95
 122 452 122 452 124 526 c 0,96,97
 125 533 125 533 125 552 c 0,98,99
 127 585 127 585 127 616 c 0,100,101
 127 632 127 632 138.5 643.5 c 128,-1,102
 150 655 150 655 166 655 c 128,-1,103
 182 655 182 655 193.5 643.5 c 128,-1,104
 205 632 205 632 205 616 c 0,82,83
EndSplineSet
EndChar

StartChar: onehalf
Encoding: 189 189 120
Width: 431
GlyphClass: 1
Flags: W
LayerCount: 2
Fore
SplineSet
200 66 m 2,0,1
 198 65 198 65 197 64 c 0,2,3
 196 64 196 64 194.5 62 c 128,-1,4
 193 60 193 60 192 60 c 0,5,6
 179 50 179 50 163.5 52 c 128,-1,7
 148 54 148 54 138 67 c 0,8,9
 132 77 132 77 133.5 89 c 128,-1,10
 135 101 135 101 140 112 c 2,11,-1
 144 122 l 2,12,13
 146 123 146 123 149 126 c 2,14,-1
 152 128 l 1,15,-1
 153 129 l 2,16,17
 154 130 154 130 155 130 c 0,18,19
 187 154 187 154 201 162 c 0,20,21
 229 179 229 179 262 185 c 0,22,23
 300 190 300 190 322 166 c 0,24,25
 339 146 339 146 339 117 c 0,26,27
 339 86 339 86 324 50 c 0,28,29
 314 30 314 30 290 -15 c 0,30,31
 289 -17 289 -17 287 -20.5 c 128,-1,32
 285 -24 285 -24 284 -26 c 2,33,-1
 284 -27 l 1,34,-1
 283 -28 l 1,35,36
 295 -26 295 -26 300 -26 c 0,37,38
 346 -22 346 -22 395 -39 c 0,39,40
 410 -45 410 -45 417 -59.5 c 128,-1,41
 424 -74 424 -74 418 -89 c 0,42,43
 413 -105 413 -105 398.5 -111.5 c 128,-1,44
 384 -118 384 -118 368 -113 c 0,45,46
 338 -101 338 -101 308 -103 c 0,47,48
 285 -106 285 -106 239 -121 c 0,49,50
 218 -128 218 -128 201 -115.5 c 128,-1,51
 184 -103 184 -103 182 -82 c 0,52,53
 182 -68 182 -68 188 -50 c 0,54,55
 195 -29 195 -29 214 9 c 2,56,-1
 220 21 l 2,57,58
 252 81 252 81 253 82 c 0,59,60
 258 98 258 98 259 104 c 1,61,62
 251 101 251 101 240 95 c 0,63,64
 226 87 226 87 203 69 c 2,65,-1
 200 66 l 2,0,1
286 669 m 0,66,67
 275 617 275 617 267 548 c 0,68,69
 262 505 262 505 262 482 c 0,70,71
 262 465 262 465 263 460 c 2,72,-1
 263 455 l 1,73,74
 270 441 270 441 265 425.5 c 128,-1,75
 260 410 260 410 247 403 c 0,76,77
 233 395 233 395 217 400 c 128,-1,78
 201 405 201 405 194 419 c 0,79,80
 183 442 183 442 184 483 c 0,81,82
 184 514 184 514 190 558 c 0,83,84
 197 615 197 615 210 684 c 0,85,86
 214 700 214 700 227 709 c 128,-1,87
 240 718 240 718 256 715 c 0,88,89
 272 711 272 711 281 698 c 128,-1,90
 290 685 290 685 286 669 c 0,66,67
84 262 m 0,91,92
 113 286 113 286 167 300 c 0,93,94
 204 310 204 310 283 321 c 0,95,96
 301 323 301 323 368 331 c 0,97,98
 384 333 384 333 397 323 c 128,-1,99
 410 313 410 313 412 297 c 128,-1,100
 414 281 414 281 404 268 c 128,-1,101
 394 255 394 255 378 254 c 0,102,103
 322 247 322 247 294 243 c 0,104,105
 163 227 163 227 133 202 c 0,106,107
 121 192 121 192 105 193.5 c 128,-1,108
 89 195 89 195 79 208 c 0,109,110
 68 220 68 220 69.5 236 c 128,-1,111
 71 252 71 252 84 262 c 0,91,92
EndSplineSet
EndChar

